<svg xmlns="http://www.w3.org/2000/svg" enable-background="new 0 0 7000 5000" viewBox="0 0 7000 5000"><path fill="#d4cdc8" d="M4303.945,802.9c-826.799,265-1205.683-9.145-1881.498,42.4
					c-625.399,47.7-1150.099,259.7-1404.499,1176.599c-128.248,462.228,18.04,988.444,158.702,1340.797h4577.444
					c180.89-258.282,362.467-632.248,367.748-1096.997C6100.643,840,5130.744,537.9,4303.945,802.9z"/><path fill="#c6bcb5" d="M1125.656,3227.045c16.747,47.495,33.911,92.858,50.995,135.65h4577.444
					c29.533-42.168,59.084-87.422,87.883-135.65H1125.656z"/><rect width="689.956" height="495.996" x="3189.973" y="1397.247" fill="#cec4be"/><rect width="649.261" height="491.038" x="3210.321" y="1382.014" fill="#fff"/><polygon fill="#eaeaea" points="3859.582 1382.014 3859.582 1873.052 3210.321 1873.052"/><g><path fill="#91695c" d="M3868.16,1881.63h-666.418v-508.195h666.418V1881.63z M3218.899,1864.473h632.103v-473.88
							h-632.103V1864.473z"/></g><g><path fill="#fff" d="M3003.987,867.477c-179.722-21.842-365.452-38.659-581.54-22.178
						c-362.753,27.668-691.625,110.618-953.522,354.336v1519.569h1535.062V867.477z"/><path fill="#c0e1ff" d="M2960.246,862.294c-166.226-19.159-339.188-32.142-537.799-16.994
						c-342.835,26.148-655.408,101.675-909.782,315.626v1515.951h1447.58V862.294z"/><path fill="#83b583" d="M1859.35 2255.427c1.21-2.087 4.809-7.872 5.558-16.372 2.213-25.133-22.693-48.939-41.765-62.276 50.317 9.75 179.727-14.94 236.649-133.378 65.249-135.764-166.682-141.93-166.682-141.93 92.836-122.447 61.187-223.454-10.55-301.098-71.737-77.644-154.023 0-154.023 0s130.814-213.784-52.748-260.086c-87.487-22.068-136.147 17.574-163.123 65.113v1271.476h466.68C2005.692 2572.161 1828.757 2308.203 1859.35 2255.427zM2960.246 1221.849c-101.02-33.956-152.048 57.956-183.61 158.818-16.713 53.408-13.706 155.35 23.732 169.34-61.004-20.061-124.297-1.85-163.274 51.689-54.772 75.235-45.502 198.22-9.739 264.252 25.382 46.864 63.382 63.701 59.077 87.156-4.209 22.939-44.821 30.086-75.957 32.683-77.104-47.45-151.476-44.218-187.114 5.407-27.78 38.682-24.687 95.219-23.515 114.433 12.298 201.549 192.145 324.27 192.145 324.27s-143.294-50.552-140.472 35.927c2.167 66.375 161.755 167.582 235.842 211.053h272.884V1221.849z"/><path fill="#659b65" d="M1512.666 2256.057c32.325-2.082 82.962-5.44 127.161-8.801 71.644-5.448 135.127-152.523 127.553-310.271-7.574-157.748-119.02 5.225-131.628-12.525-12.607-17.75 105.443-167.457-44.629-183.861-34.757-3.799-60.068 9.957-78.457 33.322V2256.057zM2960.246 2581.688c-12.769-5.692-25.236-12.631-35.233-20.943-35.708-29.688 60.569-239.603-56.537-204.338-95.801 28.849-50.665 154.729-50.665 154.729s22.278 60.696-41.175 67.029c-132.883 13.263 57.692-140.132-37.952-214.098-85.471-66.099-69.13 52.053-129.339 164.876-60.209 112.823-17.353-99.047 35.79-254.452s-51.538-76.261-111.821-16.342-116.262 201.594-116.262 201.594-21.504-85-5.207-247.347c16.298-162.347-62.997-46.85-89.057 89.939-26.06 136.789-142.732 141.021-148.469 117.774-5.737-23.246 52.155-156.513-10.416-207.713-56.055-45.869-97.865 129.034-105.965 165.959-1.379-38.298-9.403-128.82-34.512-156.917-29.103-32.566-71.154-35.595-75.956-35.868-80.944-4.615-130.873 88.86-132.924 92.836-6.013 11.654-29.393 60.255-6.037 169.368 10.908 50.96 36.461 135.895 104.087 229.101h1047.65V2581.688zM2960.246 1350.622c-20.469-18.781-41.834-19.899-58.878 26.164-41.923 113.301 23.645 207.656 23.645 207.656s-127.141-90.826-123.783 21.802c3.357 112.628 110.573 106.056 110.573 106.056s-177.827 56.222-93.993 80.422c40.447 11.676 95.882-3.99 142.436-23.329V1350.622z"/><rect width="1501.453" height="46.893" x="1485.729" y="2034.098" fill="#fff"/><rect width="1501.453" height="46.893" x="1485.729" y="1302.97" fill="#fff"/><path fill="#fff" d="M2259.902,862.066c-15.709,2.093-31.342,4.326-46.893,6.713v1850.426h46.893V862.066z"/><g><path fill="#fff" d="M5635.521,988.685C5274.52,683.933,4766.811,654.545,4303.945,802.9
						c-70.973,22.747-138.644,41.521-203.486,56.871v1859.435h1535.062V988.685z"/><path fill="#c0e1ff" d="M5591.781,953.638C5234.22,681.878,4748.409,660.443,4303.945,802.9
						c-55.175,17.684-108.338,32.946-159.745,46.085v1827.892h1447.581V953.638z"/><path fill="#83b583" d="M5245.097 2255.427c-1.21-2.087-4.809-7.872-5.558-16.372-2.213-25.133 22.692-48.939 41.765-62.276-50.317 9.75-179.727-14.94-236.648-133.378-65.249-135.764 166.682-141.93 166.682-141.93-92.836-122.447-61.187-223.454 10.55-301.098 71.737-77.644 154.023 0 154.023 0s-130.814-213.784 52.748-260.086c87.487-22.068 136.146 17.574 163.123 65.113v1271.476h-466.68C5098.754 2572.161 5275.689 2308.203 5245.097 2255.427zM4144.2 1221.849c101.02-33.956 152.048 57.956 183.61 158.818 16.713 53.408 13.706 155.35-23.732 169.34 61.004-20.061 124.297-1.85 163.273 51.689 54.772 75.235 45.502 198.22 9.739 264.252-25.382 46.864-63.382 63.701-59.077 87.156 4.209 22.939 44.82 30.086 75.957 32.683 77.104-47.45 151.476-44.218 187.114 5.407 27.78 38.682 24.687 95.219 23.515 114.433-12.298 201.549-192.146 324.27-192.146 324.27s143.294-50.552 140.472 35.927c-2.167 66.375-161.755 167.582-235.842 211.053H4144.2V1221.849z"/><path fill="#659b65" d="M5591.781 2256.057c-32.325-2.082-82.962-5.44-127.161-8.801-71.644-5.448-135.127-152.523-127.553-310.271 7.573-157.748 119.02 5.225 131.627-12.525s-105.443-167.457 44.629-183.861c34.756-3.799 60.067 9.957 78.457 33.322V2256.057zM4144.2 2581.688c12.77-5.692 25.236-12.631 35.233-20.943 35.708-29.688-60.569-239.603 56.537-204.338 95.801 28.849 50.666 154.729 50.666 154.729s-22.278 60.696 41.174 67.029c132.883 13.263-57.692-140.132 37.952-214.098 85.471-66.099 69.13 52.053 129.339 164.876 60.209 112.823 17.353-99.047-35.79-254.452-53.143-155.405 51.538-76.261 111.821-16.342 60.283 59.92 116.263 201.594 116.263 201.594s21.504-85 5.207-247.347c-16.298-162.347 62.997-46.85 89.057 89.939s142.732 141.021 148.469 117.774c5.737-23.246-52.155-156.513 10.416-207.713 56.055-45.869 97.865 129.034 105.965 165.959 1.379-38.298 9.403-128.82 34.512-156.917 29.103-32.566 71.154-35.595 75.957-35.868 80.944-4.615 130.873 88.86 132.924 92.836 6.013 11.654 29.392 60.255 6.037 169.368-10.908 50.96-36.461 135.895-104.087 229.101H4144.2V2581.688zM4144.2 1350.622c20.469-18.781 41.834-19.899 58.878 26.164 41.923 113.301-23.645 207.656-23.645 207.656s127.141-90.826 123.783 21.802c-3.357 112.628-110.573 106.056-110.573 106.056s177.827 56.222 93.993 80.422c-40.447 11.676-95.882-3.99-142.436-23.329V1350.622z"/><rect width="1501.453" height="46.893" x="4117.264" y="2034.098" fill="#fff"/><rect width="1501.453" height="46.893" x="4117.264" y="1302.97" fill="#fff"/><path fill="#fff" d="M4891.437,717.075c-15.595-0.552-31.228-0.864-46.893-0.932v2003.062h46.893V717.075z"/></g></g><path fill="#968381" d="M1176.651,3362.695c0,0-599.468,188.849-109.163,538.261
			c763.342,543.991,3464.122,373.175,3933.711,293.056c1189.13-202.885,1425.829-597.383,752.896-831.317
			C5754.095,3362.695,1192.253,3362.695,1176.651,3362.695z"/><g><ellipse cx="3448.948" cy="3827.05" fill="#1d1d1b" opacity=".11" rx="2193.384" ry="273.278"/><ellipse cx="3448.948" cy="3803.96" fill="#ffdda6" rx="2193.384" ry="273.278"/></g><g><ellipse cx="1551.902" cy="3461.419" fill="#1d1d1b" opacity=".11" rx="221.49" ry="31.832"/><path fill="#313d56" d="M1565.895 3468.231h-7.582c-6.252 0-11.32-5.068-11.32-11.32v-107.735c0-6.252 5.068-11.32 11.32-11.32h7.582c6.252 0 11.32 5.068 11.32 11.32v107.735C1577.215 3463.163 1572.147 3468.231 1565.895 3468.231zM1412.7 3468.231h-7.582c-6.252 0-10.335-5.068-9.12-11.32l20.942-107.735c1.215-6.252 7.269-11.32 13.52-11.32h7.582c6.252 0 10.335 5.068 9.12 11.32l-20.942 107.735C1425.005 3463.163 1418.952 3468.231 1412.7 3468.231zM1707.829 3468.231h7.582c6.252 0 10.335-5.068 9.12-11.32l-20.942-107.735c-1.215-6.252-7.269-11.32-13.52-11.32h-7.582c-6.252 0-10.335 5.068-9.12 11.32l20.942 107.735C1695.524 3463.163 1701.577 3468.231 1707.829 3468.231z"/><g><path fill="#ffdda6" d="M1721.086,3336.685c0,0,53.415-23.373,35.89-288.854h-396.567
							c-17.525,265.481,35.89,288.854,35.89,288.854H1721.086z"/><ellipse cx="1558.703" cy="3047.831" fill="#313d56" rx="198.295" ry="15.614"/><path fill="#ffd584" d="M1396.298,3336.685c0,8.623,72.711,15.614,162.405,15.614s162.405-6.99,162.405-15.614
							c1.033-0.491,45.572-22.466,38.671-232.937c-5.979,7.763-9.319,17.887-11.432,27.65c-3.017,13.941-4.562,28.662-12.04,40.808
							c-7.576-1.134-7.877-15.543-15.533-15.29c-2.498,0.083-4.595,1.965-5.942,4.07c-3.089,4.825-3.317,10.867-3.708,16.584
							c-0.391,5.717-1.227,11.847-5.13,16.043c-3.903,4.195-11.902,4.868-14.796-0.077c-1.665-2.845-1.721-7.213-4.86-8.222
							c-2.117-0.68-4.308,0.78-5.858,2.374c-12.995,13.362-9.755,40.74-27.409,46.722c-1.458,0.494-3.058,0.784-4.531,0.335
							c-3.43-1.047-4.505-5.303-4.883-8.87c-2.909-27.501,2.036-56.09-6.372-82.436c-2.121-6.644-5.466-13.466-11.605-16.775
							c-8.052-4.34-18.57-0.97-24.925,5.608c-6.356,6.578-9.393,15.626-11.694,24.479c-5.634,21.683-7.988,44.131-8.29,66.533
							c-0.216,16.01-0.2,34.099-11.775,45.161c-1.423,1.36-3.085,2.612-5.031,2.905c-3.536,0.533-6.698-2.19-8.931-4.982
							c-17.095-21.363-11.038-53.67-24.32-77.59c-2.242-4.037-5.184-7.923-9.346-9.923c-10.085-4.846-21.752,3.382-27.972,12.682
							c-5.06,7.566-9.996,17.195-19.044,18.18c-10.936,1.19-17.928-10.946-22.476-20.962c-4.548-10.016-13.452-21.549-23.905-18.12
							c-10.36,3.398-12.273,19.167-22.596,22.677c-2.827,0.961-5.956,0.811-8.815-0.052c-15.96-4.813-17.944-26.151-26.442-40.492
							c-3.261-5.503-7.849-10.188-13.215-13.667C1355.802,3318.954,1396.298,3336.685,1396.298,3336.685z"/><path fill="#ffca74" d="M1760.504,3144.993c-2.539,3.406-4.698,7.091-6.568,10.908
								c-2.036,4.181-3.703,8.543-4.973,13.025c-0.64,2.243-1.106,4.526-1.584,6.797l-1.379,6.829
								c-0.911,4.551-1.863,9.092-3.095,13.552c-0.618,2.229-1.326,4.429-2.11,6.6c-0.811,2.16-1.719,4.28-2.747,6.339
								c-0.449,0.951-1.295,1.636-2.287,1.901c-0.987,0.264-2.083,0.097-2.925-0.464c-0.433-0.285-0.759-0.628-1.078-1.095
								c-0.327-0.456-0.635-0.931-0.926-1.421c-0.585-0.977-1.118-1.998-1.657-3.027c-1.097-2.037-2.136-4.205-3.958-5.936
								c-0.906-0.85-2.099-1.515-3.397-1.693c-1.281-0.18-2.61,0.047-3.758,0.609c-1.146,0.555-2.142,1.412-2.879,2.395
								c-0.774,0.935-1.384,1.99-1.933,3.062c-1.071,2.169-1.683,4.508-2.072,6.839c-0.785,4.676-0.656,9.36-1.444,13.842
								c-0.389,2.236-0.967,4.437-1.946,6.427c-0.983,1.97-2.31,3.82-4.111,4.953c-1.804,1.151-3.994,1.756-6.121,1.668
								c-2.12-0.074-4.186-0.965-5.326-2.638c-0.284-0.415-0.516-0.867-0.701-1.344c-0.083-0.242-0.167-0.486-0.23-0.737
								c-0.057-0.258-0.115-0.487-0.176-0.809c-0.246-1.197-0.644-2.44-1.375-3.544c-0.699-1.078-1.696-2.058-2.966-2.618
								c-1.263-0.563-2.767-0.639-4.086-0.152c-1.316,0.469-2.476,1.485-3.024,2.844l-1.166,3.326
								c-0.779,2.178-1.569,4.352-2.407,6.507c-1.66,4.315-3.457,8.574-5.431,12.742c-1.984,4.161-4.136,8.243-6.603,12.108
								c-2.463,3.854-5.227,7.548-8.549,10.573c-1.656,1.506-3.478,2.818-5.444,3.705c-1.956,0.886-4.099,1.28-6.056,0.802
								c-1.958-0.451-3.646-1.781-4.758-3.533c-0.564-0.872-0.986-1.846-1.286-2.858c-0.142-0.509-0.261-1.025-0.34-1.55
								c-0.078-0.506-0.124-1.081-0.176-1.664c-0.874-9.218-1.467-18.47-1.977-27.737c-1.051-18.521-1.782-37.168-4.82-55.62
								c-0.781-4.604-1.648-9.2-2.756-13.746l-0.828-3.41l-0.104-0.426l-0.141-0.469c-0.091-0.317-0.198-0.627-0.329-0.928
								c-0.116-0.308-0.252-0.606-0.408-0.895c-0.141-0.297-0.305-0.58-0.482-0.856c-1.377-2.227-3.501-3.97-5.965-4.875
								c-2.461-0.923-5.24-0.925-7.702-0.127c-1.24,0.383-2.394,0.969-3.452,1.665c-0.544,0.332-1.026,0.734-1.527,1.116
								c-0.461,0.419-0.956,0.812-1.375,1.268c-3.504,3.547-5.625,8.028-7.256,12.434c-3.29,8.903-4.832,18.235-5.855,27.517
								c-0.972,9.302-1.367,18.626-1.535,27.931c-0.16,9.307-0.12,18.6-0.137,27.882l-0.035,6.949
								c-0.02,2.292-0.14,4.578-0.331,6.856c-0.378,4.554-1.136,9.071-2.377,13.436c-1.249,4.355-2.986,8.578-5.415,12.351
								c-2.399,3.782-5.515,7.102-9.231,9.511c-3.7,2.407-8.035,3.864-12.407,3.923c-2.179,0.031-4.36-0.286-6.38-1.004
								c-2.019-0.709-3.865-1.859-5.251-3.387c-0.344-0.395-0.645-0.773-0.948-1.236c-0.312-0.461-0.612-0.932-0.898-1.412
								c-0.57-0.96-1.107-1.944-1.589-2.959c-0.969-2.027-1.771-4.145-2.442-6.313c-1.34-4.34-2.189-8.858-2.839-13.413
								c-1.288-9.122-1.81-18.412-3.057-27.679c-0.623-4.632-1.419-9.266-2.615-13.828c-1.193-4.557-2.795-9.053-5.048-13.255
								c-1.119-2.097-2.395-4.143-3.961-6.01c-1.56-1.861-3.433-3.549-5.649-4.734c-2.19-1.208-4.805-1.824-7.347-1.604
								c-2.549,0.206-4.931,1.162-7.017,2.419c-2.086,1.276-3.944,2.828-5.628,4.513c-1.692,1.682-3.222,3.494-4.661,5.363
								c-2.896,3.734-5.244,7.813-7.812,11.601c-1.291,1.894-2.649,3.726-4.182,5.363c-1.531,1.63-3.247,3.076-5.197,4.035
								c-1.936,0.972-4.109,1.421-6.266,1.324c-2.157-0.086-4.253-0.822-6.124-1.963c-1.879-1.141-3.541-2.675-5.017-4.377
								c-1.485-1.699-2.783-3.58-3.981-5.524c-1.19-1.953-2.271-3.98-3.281-6.049c-0.513-1.038-0.979-2.069-1.483-3.139
								c-0.506-1.064-1.042-2.114-1.613-3.146c-2.297-4.104-5.079-8.014-8.735-11.124c-1.836-1.528-3.915-2.847-6.256-3.593
								c-2.332-0.752-4.912-0.825-7.277-0.165c-2.386,0.617-4.518,1.997-6.234,3.668c-1.732,1.675-3.122,3.609-4.41,5.56
								c-1.287,1.955-2.474,3.95-3.758,5.858c-1.283,1.903-2.664,3.739-4.337,5.247c-1.663,1.509-3.656,2.634-5.84,3.11
								c-2.185,0.5-4.47,0.368-6.656-0.234c-2.192-0.587-4.289-1.533-6.151-2.838c-1.871-1.293-3.507-2.918-4.93-4.711
								c-2.845-3.609-4.867-7.817-6.686-12.065c-1.817-4.262-3.417-8.627-5.278-12.892c-1.862-4.253-4.005-8.446-6.939-12.077
								c-2.771-3.473-6.104-6.482-9.804-8.92c3.658,2.508,6.93,5.561,9.629,9.057c2.859,3.656,4.917,7.848,6.706,12.115
								c1.802,4.271,3.349,8.65,5.123,12.953c1.779,4.29,3.764,8.567,6.639,12.308c1.438,1.858,3.111,3.563,5.048,4.936
								c1.926,1.385,4.114,2.404,6.397,3.044c1.144,0.323,2.327,0.54,3.528,0.607c1.204,0.067,2.413-0.034,3.593-0.28
								c2.373-0.484,4.571-1.696,6.358-3.283c1.801-1.587,3.254-3.48,4.585-5.405c1.331-1.93,2.544-3.914,3.833-5.822
								c1.289-1.904,2.656-3.747,4.287-5.285c1.621-1.539,3.539-2.731,5.671-3.264c2.117-0.57,4.364-0.492,6.451,0.194
								c2.092,0.683,4.005,1.904,5.718,3.352c3.417,2.945,6.096,6.742,8.291,10.739c0.547,1.004,1.059,2.027,1.543,3.063
								c0.477,1.033,0.96,2.121,1.469,3.168c1.011,2.112,2.102,4.193,3.313,6.216c1.222,2.015,2.555,3.981,4.114,5.792
								c1.549,1.811,3.323,3.486,5.409,4.776c2.071,1.288,4.489,2.165,6.986,2.283c2.479,0.133,4.998-0.373,7.224-1.47
								c2.235-1.082,4.135-2.676,5.788-4.409c1.655-1.742,3.081-3.645,4.419-5.576c2.667-3.879,4.994-7.855,7.825-11.447
								c2.806-3.581,5.963-6.973,9.745-9.26c1.887-1.12,3.947-1.905,6.041-2.057c2.091-0.16,4.186,0.336,6.055,1.379
								c1.88,1.022,3.518,2.503,4.923,4.204c1.405,1.706,2.605,3.618,3.664,5.618c2.13,3.994,3.662,8.311,4.809,12.734
								c1.15,4.426,1.921,8.965,2.524,13.536c1.211,9.147,1.709,18.43,2.994,27.708c0.651,4.635,1.506,9.278,2.896,13.82
								c0.697,2.269,1.535,4.507,2.565,6.673c0.511,1.084,1.085,2.142,1.698,3.179c0.308,0.518,0.63,1.027,0.967,1.529
								c0.332,0.51,0.748,1.048,1.169,1.526c1.736,1.92,3.964,3.283,6.315,4.117c2.357,0.843,4.844,1.201,7.303,1.172
								c4.933-0.06,9.746-1.685,13.822-4.325c4.092-2.642,7.475-6.255,10.052-10.299c2.609-4.04,4.446-8.501,5.763-13.058
								c1.306-4.567,2.098-9.253,2.497-13.949c0.201-2.349,0.329-4.702,0.354-7.054l0.052-6.98
								c0.041-9.292,0.025-18.573,0.207-27.837c0.176-9.262,0.524-18.515,1.467-27.691c0.983-9.151,2.488-18.303,5.631-26.861
								c0.798-2.135,1.657-4.229,2.739-6.173c1.076-1.948,2.356-3.767,3.873-5.306c0.365-0.402,0.787-0.731,1.181-1.095
								c0.424-0.32,0.831-0.667,1.281-0.939c0.878-0.581,1.814-1.058,2.795-1.36c1.951-0.631,4.064-0.626,5.964,0.077
								c1.899,0.69,3.561,2.047,4.627,3.768c0.138,0.212,0.266,0.43,0.373,0.659c0.122,0.222,0.227,0.451,0.315,0.688
								c0.103,0.231,0.186,0.469,0.254,0.711l0.113,0.364l0.103,0.419l0.824,3.356c1.102,4.475,1.969,9.009,2.753,13.557
								c3.051,18.229,3.832,36.794,4.928,55.334c0.544,9.275,1.127,18.564,2.079,27.831c0.055,0.573,0.104,1.155,0.204,1.796
								c0.098,0.623,0.243,1.239,0.417,1.847c0.366,1.211,0.882,2.386,1.585,3.461c1.372,2.151,3.593,3.918,6.193,4.497
								c1.286,0.312,2.618,0.31,3.888,0.128c1.271-0.198,2.481-0.596,3.614-1.109c2.265-1.04,4.241-2.501,6.008-4.123
								c3.534-3.26,6.352-7.1,8.861-11.07c2.507-3.98,4.669-8.144,6.656-12.374c1.976-4.237,3.766-8.551,5.415-12.913
								c0.832-2.178,1.616-4.373,2.387-6.572l1.116-3.254c0.315-0.809,1.037-1.474,1.9-1.788c0.863-0.325,1.844-0.287,2.705,0.086
								c0.865,0.374,1.615,1.067,2.181,1.927c0.563,0.833,0.909,1.838,1.136,2.906c0.048,0.249,0.128,0.584,0.202,0.891
								c0.08,0.31,0.186,0.617,0.296,0.921c0.238,0.605,0.543,1.188,0.92,1.729c0.763,1.078,1.825,1.933,3.001,2.481
								c1.18,0.545,2.45,0.809,3.706,0.856c2.516,0.079,4.999-0.632,7.1-1.989c0.52-0.347,1.02-0.73,1.482-1.16
								c0.469-0.435,0.857-0.91,1.254-1.377c0.757-0.968,1.394-2.018,1.921-3.112c1.056-2.192,1.645-4.539,2.033-6.872
								c0.779-4.688,0.613-9.367,1.342-13.867c0.359-2.245,0.922-4.448,1.883-6.465c0.496-0.995,1.042-1.973,1.742-2.837
								c0.643-0.882,1.455-1.581,2.393-2.055c0.934-0.471,1.986-0.659,3.011-0.531c1.017,0.131,1.955,0.624,2.749,1.344
								c1.596,1.463,2.671,3.548,3.779,5.567c0.552,1.02,1.106,2.052,1.726,3.06c0.308,0.505,0.639,1.001,0.994,1.483
								c0.338,0.489,0.823,1.005,1.373,1.345c1.106,0.715,2.507,0.906,3.76,0.553c1.255-0.339,2.354-1.276,2.881-2.44
								c1.021-2.109,1.916-4.272,2.709-6.47c0.767-2.206,1.454-4.438,2.049-6.691c1.187-4.508,2.084-9.076,2.939-13.641l1.294-6.842
								c0.448-2.278,0.885-4.553,1.493-6.785c1.19-4.473,2.781-8.845,4.745-13.046c1.8-3.828,3.891-7.532,6.367-10.971
								C1760.504,3145.014,1760.504,3145.003,1760.504,3144.993z"/><path fill="#ffd584" d="M1728.758,3143.372c0.542,0.996,1.118,1.987,1.761,2.948l0.508,0.708
								c0.179,0.23,0.39,0.491,0.624,0.696c0.458,0.439,1.025,0.761,1.622,0.962c1.197,0.418,2.55,0.301,3.663-0.292
								c0.562-0.287,1.051-0.714,1.431-1.213c0.206-0.239,0.346-0.527,0.499-0.792l0.361-0.773c1.96-4.11,3.371-8.444,4.526-12.819
								c2.283-8.77,3.46-17.741,5.495-26.517c1.034-4.381,2.297-8.719,3.999-12.892c1.519-3.731,3.375-7.342,5.697-10.646
								c-2.385,3.238-4.308,6.837-5.895,10.563c-1.774,4.159-3.111,8.493-4.219,12.873c-2.155,8.781-3.433,17.742-5.807,26.424
								c-1.198,4.33-2.645,8.599-4.621,12.617l-0.364,0.756c-0.134,0.219-0.241,0.445-0.409,0.631
								c-0.306,0.392-0.692,0.723-1.139,0.943c-0.882,0.457-1.963,0.539-2.895,0.197c-0.466-0.164-0.904-0.417-1.255-0.765
								c-0.188-0.167-0.331-0.354-0.495-0.567l-0.47-0.673c-0.601-0.921-1.149-1.888-1.674-2.88c-1.062-1.975-2.04-4.046-3.51-5.902
								c-0.75-0.909-1.668-1.76-2.815-2.277c-1.143-0.509-2.449-0.664-3.672-0.416c-1.229,0.237-2.354,0.84-3.28,1.634
								c-0.458,0.396-0.895,0.854-1.238,1.323l-0.536,0.7l-0.481,0.737c-1.256,1.986-2.071,4.215-2.58,6.464
								c-1.049,4.512-0.994,9.109-1.508,13.515c-0.264,2.206-0.654,4.391-1.351,6.456c-0.689,2.062-1.703,4.004-3.129,5.585
								c-0.168,0.212-0.362,0.38-0.55,0.556c-0.194,0.17-0.364,0.366-0.576,0.518c-0.424,0.301-0.828,0.63-1.299,0.863
								c-0.898,0.537-1.905,0.88-2.92,1.127c-1.023,0.237-2.074,0.292-3.105,0.229c-1.017-0.128-2.03-0.352-2.904-0.837
								c-0.235-0.092-0.414-0.27-0.625-0.397c-0.208-0.134-0.412-0.272-0.574-0.458c-0.171-0.174-0.357-0.336-0.521-0.516
								l-0.424-0.601c-0.161-0.187-0.247-0.425-0.353-0.648c-0.096-0.229-0.23-0.439-0.299-0.681l-0.197-0.731l-0.1-0.369
								l-0.089-0.438c-0.255-1.161-0.651-2.369-1.374-3.424c-0.669-1.021-1.62-2.03-2.958-2.522
								c-1.343-0.501-2.846-0.223-3.968,0.343c-1.165,0.554-2.105,1.353-2.957,2.202c-1.634,1.673-3.035,3.552-4.237,5.53
								c-2.404,3.969-4.038,8.297-5.37,12.65c-1.331,4.361-2.34,8.784-3.444,13.137c-0.555,2.175-1.135,4.335-1.836,6.429
								c-0.355,1.043-0.734,2.074-1.183,3.056c-0.433,0.992-0.946,1.928-1.536,2.777c-0.286,0.435-0.624,0.812-0.951,1.187
								c-0.319,0.331-0.683,0.615-1.08,0.84c-0.796,0.447-1.72,0.675-2.652,0.606c-0.936-0.035-1.775-0.328-2.462-0.882
								c-0.696-0.545-1.223-1.376-1.623-2.294c-0.4-0.924-0.672-1.944-0.865-2.991c-0.197-1.046-0.293-2.125-0.409-3.263
								l-0.683-6.733c-0.911-8.979-1.887-17.964-3.077-26.931c-1.185-8.967-2.656-17.911-4.537-26.782
								c-0.986-4.426-2.005-8.848-3.247-13.216c-0.577-2.195-1.27-4.359-1.921-6.535c-0.663-2.184-1.461-4.37-2.431-6.485
								c-0.962-2.12-2.142-4.171-3.581-6.066c-1.439-1.891-3.205-3.589-5.247-4.912c-4.149-2.618-9.179-3.426-13.903-2.77
								c-4.722,0.651-9.357,2.794-12.622,6.484c-0.406,0.457-0.758,0.964-1.137,1.446c-0.355,0.485-0.634,0.954-0.955,1.431
								l-1.866,2.853c-1.279,1.88-2.389,3.87-3.574,5.811c-4.603,7.845-8.578,16.112-11.471,24.773
								c-2.924,8.646-4.898,17.602-6.06,26.624c-1.141,9.029-1.594,18.101-1.818,27.144c-0.417,9.169,1.081,18.21,1.001,27.063
								c-0.049,4.413-0.497,8.829-2.002,12.837c-0.76,1.994-1.782,3.867-3.08,5.534c-1.309,1.618-2.895,3.229-4.575,4.094
								c-0.848,0.438-1.689,0.611-2.633,0.594c-0.93-0.021-1.876-0.265-2.76-0.654c-0.885-0.391-1.692-0.965-2.372-1.639
								c-0.34-0.338-0.64-0.709-0.895-1.101c-0.122-0.199-0.252-0.394-0.345-0.605c-0.105-0.187-0.206-0.444-0.305-0.706
								l-1.205-3.077c-0.216-0.506-0.377-1.036-0.537-1.567l-0.49-1.587c-0.712-2.095-1.15-4.29-1.707-6.441
								c-3.761-17.454-4.032-35.807-9.399-53.365l-1.069-3.263c-0.164-0.548-0.383-1.079-0.601-1.61l-0.645-1.596l-0.646-1.595
								c-0.11-0.265-0.211-0.534-0.328-0.796l-0.386-0.772l-1.546-3.087c-1.033-2.055-2.306-4.033-3.789-5.87
								c-1.493-1.826-3.27-3.502-5.388-4.719c-1.042-0.609-2.218-1.1-3.409-1.418c-1.196-0.317-2.417-0.442-3.623-0.474
								c-2.42-0.043-4.771,0.4-7.019,1.056c-4.487,1.371-8.595,3.612-12.329,6.318c-1.865,1.361-3.641,2.845-5.283,4.481
								c-1.641,1.622-3.174,3.428-4.43,5.385c-2.498,3.795-4.76,7.682-7.607,11.031c-1.423,1.661-2.994,3.184-4.791,4.322
								c-1.789,1.146-3.806,1.856-5.899,2.051c-2.095,0.213-4.206-0.179-6.137-1.031c-1.94-0.847-3.682-2.169-5.234-3.688
								c-3.103-3.074-5.488-6.892-7.568-10.826c-1.053-1.983-1.962-3.985-2.948-6.063c-1.007-2.057-2.131-4.057-3.4-5.969
								c-1.263-1.915-2.669-3.745-4.256-5.427c-1.587-1.677-3.363-3.213-5.397-4.399c-2.016-1.194-4.34-2.002-6.743-2.082
								c-2.402-0.099-4.795,0.533-6.861,1.709c-2.072,1.18-3.772,2.858-5.204,4.655c-1.447,1.799-2.663,3.73-3.87,5.637
								c-1.203,1.911-2.39,3.813-3.728,5.584c-1.342,1.759-2.857,3.39-4.676,4.579c-1.809,1.201-3.927,1.871-6.1,2.011
								c-2.168,0.139-4.357-0.357-6.424-1.116c-2.067-0.766-3.996-1.891-5.703-3.297c-1.711-1.405-3.18-3.099-4.479-4.909
								c-2.592-3.642-4.48-7.756-6.216-11.904c-1.733-4.157-3.299-8.396-5.14-12.526c-1.843-4.118-3.977-8.168-6.866-11.664
								c-2.775-3.406-6.09-6.358-9.761-8.749c3.631,2.456,6.888,5.453,9.593,8.884c2.818,3.522,4.868,7.57,6.639,11.702
								c1.778,4.138,3.296,8.387,4.983,12.58c1.693,4.183,3.544,8.357,6.149,12.114c1.306,1.867,2.798,3.632,4.559,5.114
								c1.757,1.483,3.763,2.687,5.917,3.514c2.145,0.816,4.444,1.374,6.802,1.254c2.33-0.119,4.661-0.824,6.632-2.102
								c1.983-1.264,3.6-2.976,5.01-4.779c1.405-1.814,2.632-3.731,3.855-5.624c1.226-1.889,2.446-3.769,3.85-5.472
								c1.392-1.705,2.992-3.229,4.865-4.265c1.865-1.027,4.003-1.576,6.115-1.471c2.117,0.086,4.188,0.811,6.037,1.924
								c1.861,1.102,3.527,2.556,5.025,4.164c1.498,1.612,2.841,3.382,4.047,5.242c1.213,1.856,2.29,3.806,3.252,5.809
								c0.933,2.005,1.876,4.119,2.926,6.13c2.102,4.035,4.515,8.001,7.813,11.322c1.654,1.64,3.55,3.116,5.746,4.097
								c2.18,0.988,4.65,1.462,7.054,1.235c2.407-0.201,4.763-1.019,6.782-2.297c2.032-1.268,3.745-2.919,5.266-4.667
								c3.033-3.521,5.351-7.462,7.84-11.176c2.397-3.632,5.684-6.668,9.25-9.245c3.58-2.558,7.527-4.66,11.69-5.896
								c2.081-0.592,4.22-0.969,6.319-0.914c1.045,0.037,2.083,0.151,3.068,0.421c0.985,0.276,1.906,0.662,2.81,1.196
								c1.792,1.052,3.36,2.513,4.714,4.179c1.345,1.675,2.533,3.515,3.518,5.492l1.477,2.968l0.37,0.741
								c0.113,0.253,0.209,0.513,0.315,0.769l0.619,1.543l0.62,1.542c0.209,0.513,0.421,1.025,0.578,1.56l1.03,3.171
								c0.37,1.047,0.625,2.135,0.913,3.212c0.278,1.08,0.582,2.151,0.839,3.237l0.705,3.277l0.351,1.639l0.295,1.654l0.59,3.308
								l0.513,3.327c0.354,2.215,0.636,4.45,0.942,6.678c1.187,8.924,2.162,17.937,4.07,26.866c0.567,2.217,1.01,4.458,1.743,6.643
								l0.505,1.647c0.164,0.55,0.331,1.1,0.556,1.634l1.255,3.228c0.177,0.504,0.508,1.174,0.858,1.708
								c0.358,0.554,0.772,1.064,1.23,1.523c0.917,0.917,1.981,1.668,3.158,2.196c1.176,0.523,2.454,0.861,3.782,0.897
								c0.668,0.005,1.327-0.028,2.008-0.183c0.67-0.151,1.305-0.392,1.892-0.685c1.176-0.59,2.157-1.375,3.043-2.184
								c0.444-0.401,0.846-0.848,1.27-1.271c0.408-0.439,0.787-0.905,1.174-1.364c1.482-1.891,2.646-4.018,3.496-6.237
								c1.685-4.465,2.144-9.182,2.21-13.763c0.09-9.206-1.376-18.122-0.937-27.021c0.241-8.994,0.724-17.97,1.854-26.85
								c1.122-8.877,3.034-17.635,5.871-26.094c2.807-8.472,6.676-16.571,11.182-24.293c1.161-1.912,2.246-3.869,3.502-5.725
								l1.831-2.815c0.307-0.459,0.607-0.961,0.919-1.385c0.321-0.402,0.608-0.83,0.95-1.215c2.728-3.114,6.783-5.046,10.967-5.625
								c4.186-0.595,8.598,0.137,12.119,2.351c3.527,2.252,6.072,5.897,7.882,9.847c0.915,1.985,1.676,4.044,2.328,6.175
								c0.647,2.146,1.336,4.278,1.912,6.446c1.237,4.31,2.256,8.684,3.242,13.062c1.883,8.781,3.366,17.656,4.566,26.577
								c1.214,8.92,2.183,17.881,3.152,26.851l0.732,6.729c0.226,2.218,0.501,4.653,1.504,6.931c0.506,1.133,1.21,2.281,2.299,3.136
								c1.072,0.868,2.477,1.326,3.79,1.355c1.319,0.08,2.681-0.252,3.843-0.921c0.582-0.336,1.113-0.756,1.573-1.241
								c0.415-0.474,0.822-0.946,1.156-1.457c0.69-1.008,1.252-2.068,1.716-3.145c0.481-1.075,0.872-2.167,1.236-3.261
								c0.716-2.191,1.289-4.397,1.834-6.597c1.082-4.4,2.05-8.789,3.324-13.071c1.272-4.273,2.831-8.467,5.084-12.245
								c1.125-1.885,2.429-3.655,3.938-5.223c0.733-0.745,1.545-1.428,2.423-1.847c0.873-0.439,1.785-0.576,2.579-0.289
								c0.8,0.284,1.522,0.962,2.082,1.813c0.565,0.805,0.904,1.781,1.139,2.814l0.082,0.391l0.121,0.448l0.253,0.9
								c0.09,0.298,0.255,0.576,0.382,0.864c0.139,0.284,0.258,0.578,0.463,0.827l0.561,0.775c0.214,0.235,0.453,0.449,0.681,0.672
								c0.22,0.235,0.48,0.416,0.747,0.588c0.269,0.166,0.514,0.38,0.805,0.5c1.117,0.603,2.346,0.868,3.56,1.005
								c1.22,0.071,2.44-0.008,3.616-0.289c1.168-0.292,2.318-0.698,3.357-1.324c0.54-0.276,1.017-0.66,1.507-1.019
								c0.245-0.181,0.452-0.411,0.678-0.616c0.222-0.211,0.45-0.418,0.633-0.651c1.589-1.788,2.684-3.946,3.405-6.159
								c0.731-2.219,1.116-4.506,1.372-6.777c0.484-4.553,0.423-9.06,1.372-13.379c0.46-2.15,1.2-4.231,2.335-6.076l0.435-0.685
								l0.486-0.649c0.317-0.446,0.663-0.809,1.053-1.157c0.775-0.68,1.702-1.185,2.691-1.387c0.987-0.213,2.032-0.093,2.943,0.297
								c0.92,0.399,1.719,1.102,2.409,1.919C1726.665,3139.367,1727.668,3141.391,1728.758,3143.372z"/></g><g><path fill="#2e7a50" d="M1550.296,2772.769c0,0-56.587-76.039-51.282-153.847
							c5.305-77.807,58.355-159.152,74.271-219.276c15.915-60.124-12.379-137.932,1.768-167.993
							c14.147-30.062,17.683,28.294,26.525,3.537c8.842-24.757,54.819-182.14,127.321-196.287
							c72.503-14.147,60.124,125.553,28.294,208.666c-31.83,83.113-56.587,114.943-51.282,173.299
							C1711.216,2479.222,1762.498,2620.69,1550.296,2772.769z"/><path fill="#6b8e55" d="M1676.774,2174.833c0.281-0.512,0.561-1.027,0.843-1.536
								C1677.617,2173.297,1677.327,2173.794,1676.774,2174.833z"/><path fill="#256641" d="M1549.368 3063.425c20.437-670.829 117.359-869.687 127.407-888.592-125.332 228.42-143.039 754.811-145.526 888.463C1537.205 3063.361 1543.254 3063.403 1549.368 3063.425zM1429.478 2200.565c-16.889-14.372-42.87-8.106-51.646 12.26-7.619 17.681-14.045 43.998-9.676 78.951 8.842 70.734-26.525 116.711 3.537 189.214 26.334 63.511 16.03 182.656 80.822 245.702 16.103 15.669 42.936 10.777 52.644-9.486 12.876-26.876 27.981-71.924 32.759-140.725 8.842-127.321-40.672-116.711-44.209-203.361C1490.973 2306.093 1466.015 2231.658 1429.478 2200.565z"/><path fill="#2e7a50" d="M1512.071,3063.01c7.182,0.136,14.52,0.24,21.983,0.313
							c-10.307-91.494-57.744-495.281-121.69-769.778c0,0,51.282,251.106,67.198,447.393
							C1491.783,2891.665,1506.088,3014.229,1512.071,3063.01z"/><path fill="#256641" d="M1398.217,2744.475c0,0-17.683-42.441-68.966-72.502
							c-51.282-30.062-160.92-83.113-167.994-169.762s3.537-114.943-40.672-169.762c-44.209-54.819-102.564-130.858-38.904-146.773
							c63.661-15.915,198.056,109.638,245.801,221.044C1375.229,2518.126,1398.217,2675.51,1398.217,2744.475z"/><path fill="#2e7a50" d="M1503.84,3062.838c6.98,0.158,14.115,0.287,21.387,0.385
							c-54.977-235.445-251.716-617.843-297.713-705.429c158.184,302.137,261.089,664.691,272.254,704.851
							C1501.101,3062.712,1502.475,3062.774,1503.84,3062.838z"/><path fill="#256641" d="M1633.408,2753.317c0,0-28.294-100.796-3.537-213.971
							c24.757-113.174,106.101-180.372,145.005-251.106c38.904-70.734,83.113-176.835,145.005-152.078
							c61.892,24.757,31.83,129.09-15.915,198.055c-47.745,68.966-63.661,130.858-88.418,206.897
							S1734.204,2712.645,1633.408,2753.317z"/><path fill="#2e7a50" d="M1540.141,3063.375c6.113,0.045,12.3,0.07,18.562,0.07c1.197,0,2.385-0.003,3.577-0.005
							c117.011-486.224,239.122-711.539,239.122-711.539C1642.345,2631.455,1554.821,2998.562,1540.141,3063.375z"/><g><path fill="#2e7a50" d="M1348.704,2763.927c0,0-60.124-127.321-139.7-146.773s-116.711-63.661-180.372-90.186
							c-63.661-26.525-114.943,8.842-99.028,86.649c15.433,75.448,112.338,130.942,185.917,126.178
							c3.093-0.2,5.32,2.905,4.099,5.753c-3.932,9.176,2.241,19.519,12.186,20.398c29.026,2.566,83.061,5.964,117.87-0.252
							C1299.19,2756.854,1348.704,2763.927,1348.704,2763.927z"/><path fill="#2e7a50" d="M1536.523,3063.346c-50.332-339.746-431.852-412.594-431.852-412.594
							c332.88,103.563,395.923,338.32,407.637,412.261C1520.206,3063.163,1528.289,3063.274,1536.523,3063.346z"/></g><g><path fill="#256641" d="M1170.1,2799.294c0,0-103.141,26.711-118.479,175.067
							c-13.377,129.377,51.935,202.925,83.112,182.14c10.61-7.073,5.305-74.271,0-107.87
							c-5.305-33.599,16.576-137.329,42.44-132.626c38.904,7.073,79.576,21.22,116.711-5.305
							c37.135-26.525,74.271-88.418,74.271-88.418S1325.715,2767.464,1170.1,2799.294z"/><path fill="#558e74" d="M1527.701,3063.253c8.152,0.101,16.462,0.164,24.912,0.184
							c-10.277-48.915-36.522-129.375-103.114-200.481c-104.333-111.406-279.399-63.661-279.399-63.661
							C1434.479,2753.616,1508.162,2967.96,1527.701,3063.253z"/></g><g><path fill="#2e7a50" d="M1684.691,2811.673c0,0-7.073-185.677,76.039-277.631s146.773-95.491,194.519-152.078
							c47.745-56.587,111.406-116.711,150.31-81.344c38.904,35.367-14.147,171.53-83.113,235.191
							c18.577,1.689,26.918,24.239,13.825,37.525c-15.987,16.224-41.404,36.388-81.023,56.198
							C1866.831,2673.741,1926.955,2760.39,1684.691,2811.673z"/><path fill="#256641" d="M1566.763,3063.431c9.372-0.029,18.575-0.11,27.568-0.239
							c137.215-407.351,327.252-578.178,369.88-612.6C1706.769,2651.932,1589.274,2991.869,1566.763,3063.431z"/></g><g><path fill="#256641" d="M1804.939,2887.712c0,0,51.282,22.989,44.209,54.819s-30.062,123.785,7.073,176.835
								c37.135,53.051,53.051,72.502,54.819,134.395c1.768,61.892,53.051,102.564,68.966,0S1995.921,2827.588,1804.939,2887.712z"/><path fill="#2e7a50" d="M1884.515,2907.164c-153.371-102.247-274.159,103.574-301.744,156.165
							c11.015-0.105,21.749-0.281,32.131-0.522c1.377-0.065,2.739-0.132,4.082-0.202c36.611-68.513,127.597-201.471,230.164-160.746
							c120.248,47.746,102.564,325.377,102.564,325.377S1980.005,2979.666,1884.515,2907.164z"/></g></g><g><ellipse cx="4946.602" cy="3463.161" fill="#1d1d1b" opacity=".11" rx="508.367" ry="94.712"/><path fill="#a7c1c4" d="M5402.006,2910.594v452.858c0,13.896-4.422,33.791-42.673,46.186
							c-42.334,13.729-89.371,22.312-139.734,27.853c-9.324,1.063-18.767,1.979-28.329,2.813c-0.339,0.042-0.698,0.083-1.036,0.104
							c-8.387,0.75-16.874,1.396-25.46,2.021c-55.384,3.896-113.896,5.333-173.881,6.812c-46.499,1.146-92.2,0.959-137.025-0.562
							c-8.527-0.292-16.974-0.646-25.421-1.021c-0.12,0-0.239,0-0.339-0.021c-8.248-0.375-16.456-0.792-24.624-1.271
							c-96.822-5.521-189.241-17.416-276.222-35.603c-10.459-2.187-18.089-5.708-30.68-18.895c-1.255-1.313-2.431-2.708-3.486-4.187
							c-0.398-0.563-0.797-1.125-1.176-1.688c-2.889-4.437-4.861-9.417-5.837-14.687c-0.1-0.438-0.179-0.896-0.239-1.354
							c-0.359-2.125-0.518-4.313-0.518-6.5V2899.73c-4.924-1.542-9.522-3.907-13.359-7.007c-0.908-0.733-1.752-1.502-2.578-2.281
							v473.01c0,5.917,0.857,11.687,2.53,17.166c1.614,5.396,4.004,10.5,7.132,15.187c1.833,2.771,3.944,5.417,6.275,7.854
							c13.507,14.146,23.667,20.27,38.809,23.437c89.231,18.666,184.121,30.77,283.552,36.186c4.623,0.271,9.264,0.521,13.906,0.729
							c3.904,0.188,7.83,0.375,11.754,0.542c4.363,0.188,8.746,0.375,13.129,0.521c28.05,1.042,56.459,1.583,85.188,1.583
							c19.723,0,39.585-0.25,59.607-0.75c67.457-1.646,133.081-3.271,194.72-8.416c8.606-0.708,17.133-1.5,25.581-2.375
							c54.945-5.625,106.305-14.583,152.484-29.561c35.761-11.583,53.89-32.478,53.89-62.102V2905.51
							C5412.686,2907.361,5407.369,2909.051,5402.006,2910.594z"/><path fill="#a7c1c4" d="M5321.273 2924.857c-4.79.461-9.61.847-14.447 1.178-9.694 14.154-19.836 28.702-30.469 43.618-3.208 4.5-6.455 9.042-9.762 13.604-28.21 39.082-59.527 80.331-93.734 122.475-4.124 5.083-8.268 10.146-12.432 15.166-3.447 4.229-6.933 8.417-10.439 12.604-46.856 56.165-94.65 108.538-143.001 156.786-.14.146-.299.292-.438.438-3.725 3.729-7.431 7.396-11.156 11.041-.338.312-.638.604-.956.917-40.542 39.811-81.482 76.706-122.642 110.538-14.423 11.854-28.867 23.333-43.351 34.436-.06.042-.12.083-.179.146-4.383 3.354-8.766 6.667-13.149 9.958-2.47 1.854-4.941 3.708-7.431 5.521 4.623.271 9.264.521 13.906.729 3.904.188 7.83.375 11.754.542 2.311-1.75 4.602-3.521 6.913-5.312 4.542-3.458 9.065-7 13.587-10.562 8.168-6.417 16.316-12.958 24.444-19.604 43.311-35.436 86.403-74.227 129.037-116.184 3.884-3.812 7.73-7.625 11.595-11.521.159-.167.319-.313.478-.479 48.052-48.019 95.527-100.059 142.085-155.807 3.487-4.188 6.973-8.396 10.439-12.604 2.729-3.312 5.458-6.604 8.168-9.937 35.721-43.728 68.234-86.351 97.44-126.621 3.307-4.542 6.554-9.062 9.762-13.541 14.4-20.097 27.927-39.54 40.599-58.203C5325.685 2924.412 5323.475 2924.645 5321.273 2924.857zM4983.398 2930.205c-28.002 32.028-58.287 65.254-90.76 99.049-10.139 10.557-20.325 21.009-30.559 31.314-4.246 4.277-8.493 8.555-12.763 12.79-57.111 56.832-115.271 109.702-174.147 158.274-4.676 3.877-9.352 7.691-14.027 11.484-42.702 34.706-85.761 67.136-129.012 97.164-14.504 10.072-29.008 19.85-43.537 29.375-5.558 3.646-11.117 7.228-16.675 10.789 1.933 5.458 4.795 10.621 8.541 15.362 5.153-3.266 10.282-6.574 15.411-9.925 14.72-9.588 29.391-19.428 44.062-29.564 44.61-30.807 89.006-64.144 133.044-99.903 4.676-3.772 9.375-7.607 14.051-11.485 59.091-48.698 117.49-101.694 174.815-158.674 4.27-4.235 8.516-8.492 12.762-12.77 8.946-8.977 17.845-18.059 26.719-27.246 38.618-39.941 74.117-78.958 106.382-116.14C4999.608 2930.29 4991.505 2930.305 4983.398 2930.205zM4654.372 2916.151c-47.155 37.129-94.94 72.482-143.243 105.947-5.389 3.734-10.806 7.449-16.194 11.125-1.061.744-2.15 1.467-3.21 2.172-7.427 5.068-14.882 10.097-22.336 15.05v21.204c7.483-4.877 14.909-9.83 22.336-14.802 5.109-3.41 10.191-6.858 15.272-10.326 5.417-3.677 10.833-7.372 16.222-11.106 53.351-36.804 106.052-75.919 157.951-117.13C4672.229 2917.778 4663.294 2917.07 4654.372 2916.151z"/><path fill="#a7c1c4" d="M5287.294 2982.382c-3.666-4.208-7.312-8.458-10.937-12.729-12.319-14.402-24.556-29.083-36.732-43.998-1.223-.108-2.448-.199-3.669-.32-.786.084-1.571.166-2.357.249-2.831.356-5.672.639-8.52.857-1.779.169-3.558.333-5.337.49 2.69 3.327 5.375 6.652 8.104 9.993 12.85 15.729 25.759 31.166 38.749 46.332 3.626 4.25 7.272 8.458 10.938 12.666 40.92 47.186 82.478 91.497 124.474 132.725 5.299 5.229 10.619 10.396 15.938 15.5v-22.75c-5.319-5.167-10.639-10.396-15.938-15.687C5363.337 3067.17 5325.047 3026.026 5287.294 2982.382zM5308.013 3256.331c-45.701-37.582-91.164-78.935-136.088-123.85-3.845-3.833-7.67-7.687-11.495-11.583-52.017-52.748-103.297-110.246-153.461-172.057-5.039-6.209-9.998-12.394-14.91-18.561-6.993.001-13.99-.13-20.989-.339 9.31 11.798 18.849 23.698 28.648 35.691 49.168 60.206 99.372 116.288 150.273 167.87 3.825 3.895 7.65 7.75 11.495 11.583 46.22 46.165 92.998 88.643 140.033 127.1 33.35 27.291 66.879 52.561 100.488 75.81 5.299 3.667 10.619 7.292 15.938 10.854v-19.875c-5.319-3.604-10.619-7.291-15.938-11.02C5370.589 3305.871 5339.231 3281.997 5308.013 3256.331zM5098.372 3359.708c-28.524-20.085-57.013-41.385-85.402-63.882-4.404-3.482-8.788-6.986-13.195-10.53-74.637-60.123-148.609-128.39-220.988-203.986-3.917-4.068-7.815-8.18-11.692-12.292-.934-.962-1.848-1.945-2.762-2.908-50.151-53.216-94.918-105.104-133.74-152.879-1.537-.217-3.074-.421-4.61-.649-7.111-1.057-14.139-2.336-21.09-3.879 42.768 53.256 93.402 112.331 151.348 173.499.356.361.691.743 1.047 1.103 3.541 3.73 7.104 7.459 10.644 11.168 72.037 75.067 145.632 142.975 219.92 202.883 4.408 3.565 8.814 7.089 13.219 10.571 30.263 24.023 60.619 46.681 91.024 67.978 27.423 19.215 54.905 37.298 82.383 54.232 7.76 4.773 15.516 9.463 23.269 14.07 9.157-1.125 18.225-2.329 27.205-3.612-7.79-4.458-15.584-9.042-23.382-13.709C5167.146 3406.313 5132.732 3383.9 5098.372 3359.708zM4469.388 2965.403v32.812c3.367 5.896 6.773 11.812 10.22 17.749 1.893 3.271 3.806 6.521 5.718 9.771.757 1.313 1.514 2.604 2.291 3.896 1.195 2.042 2.391 4.083 3.606 6.104 1.653 2.833 3.327 5.646 5 8.437 1.375 2.292 2.75 4.583 4.144 6.875 41.538 69.081 84.849 133.829 129.574 193.806 3.288 4.417 6.575 8.792 9.882 13.146.358.458.697.937 1.056 1.396 3.586 4.729 7.192 9.437 10.798 14.104 25.879 33.499 52.196 65.394 78.912 95.58 23.986 27.124 48.312 52.894 72.896 77.289 3.885 3.833 7.75 7.625 11.634 11.395 2.152 2.104 4.304 4.167 6.475 6.25 3.904.188 7.83.375 11.754.542 4.363.188 8.746.375 13.129.521-2.072-1.937-4.144-3.875-6.216-5.833-4.004-3.771-8.009-7.604-11.993-11.438-.06-.063-.1-.104-.16-.166-29.983-28.979-59.567-60.019-88.674-93.122-25.4-28.874-50.463-59.269-75.087-91.143-3.605-4.667-7.211-9.375-10.798-14.104-.657-.875-1.334-1.75-1.992-2.625-3.307-4.354-6.594-8.729-9.901-13.145-44.128-59.311-86.881-123.309-127.921-191.556-1.992-3.292-3.964-6.604-5.937-9.916-1.076-1.813-2.152-3.604-3.208-5.417-1.813-3.042-3.626-6.083-5.419-9.146-3.288-5.583-6.555-11.229-9.822-16.875-1.355-2.354-2.689-4.687-4.024-7.021C4479.887 2984.111 4474.587 2974.715 4469.388 2965.403z"/><g><path fill="#a7c1c4" d="M5417.944,2887.1v548.618c0,5.658-0.857,11.177-2.53,16.416
							c-1.613,5.16-4.004,10.041-7.132,14.523c-1.833,2.65-3.945,5.18-6.276,7.511c-13.507,13.527-23.667,19.384-38.809,22.412
							c-89.231,17.85-184.121,29.425-283.553,34.605c-4.622,0.259-9.264,0.498-13.906,0.697c-3.905,0.18-7.83,0.359-11.754,0.518
							c-4.363,0.179-8.746,0.359-13.129,0.498c-28.051,0.996-56.459,1.514-85.188,1.514c-19.723,0-39.585-0.239-59.607-0.717
							c-67.457-1.573-133.08-3.128-194.72-8.048c-8.606-0.677-17.133-1.435-25.58-2.271c-54.945-5.379-106.305-13.946-152.484-28.27
							c-35.761-11.077-53.89-31.059-53.89-59.388v-536.366h15.938v536.366c0,13.288,4.423,32.314,42.673,44.168
							c42.335,13.129,89.371,21.337,139.735,26.636c9.323,1.016,18.767,1.893,28.329,2.69c0.338,0.04,0.697,0.08,1.036,0.1
							c8.387,0.717,16.874,1.335,25.46,1.933c55.384,3.725,113.896,5.1,173.881,6.514c46.499,1.096,92.2,0.917,137.024-0.538
							c8.527-0.279,16.974-0.618,25.421-0.976c0.12,0,0.239,0,0.339-0.02c8.248-0.359,16.456-0.757,24.624-1.216
							c96.822-5.279,189.241-16.655,276.222-34.047c10.459-2.091,18.089-5.458,30.681-18.069c1.255-1.255,2.43-2.59,3.486-4.004
							c0.398-0.538,0.797-1.076,1.175-1.614c2.889-4.243,4.861-9.005,5.837-14.045c0.1-0.418,0.179-0.856,0.239-1.295
							c0.359-2.032,0.518-4.124,0.518-6.216V2887.1H5417.944z"/><path fill="#a7c1c4" d="M5079.645 3531.185c-4.622.259-9.264.498-13.906.697-3.905.18-7.83.359-11.754.518-2.311-1.673-4.602-3.367-6.913-5.08-4.542-3.307-9.065-6.694-13.587-10.101-8.167-6.136-16.316-12.392-24.444-18.747-43.311-33.888-86.402-70.983-129.036-111.106-3.885-3.646-7.73-7.292-11.595-11.017-.159-.159-.319-.299-.478-.458-48.052-45.921-95.527-95.686-142.085-148.999-3.486-4.004-6.973-8.028-10.439-12.052-2.729-3.168-5.459-6.316-8.168-9.503-35.721-41.817-68.233-82.577-97.439-121.087-3.307-4.343-6.555-8.666-9.762-12.949-47.933-63.97-86.382-121.187-114.712-166.032-1.275-2.012-2.51-3.984-3.725-5.917-1.475-2.351-2.929-4.662-4.343-6.953 4.283.438 8.507.718 12.73.817 2.391.199 4.802.399 7.192.578 27.991 44.386 66.261 101.563 113.795 165.334 3.208 4.303 6.455 8.646 9.762 13.009 28.21 37.374 59.528 76.82 93.734 117.123 4.124 4.861 8.268 9.702 12.432 14.504 3.446 4.044 6.933 8.048 10.439 12.053 46.857 53.71 94.65 103.795 143.001 149.935.14.139.299.279.438.418 3.726 3.566 7.431 7.073 11.157 10.559.338.299.637.577.956.876 40.542 38.071 81.482 73.354 122.641 105.707 14.424 11.336 28.867 22.313 43.351 32.931.06.04.12.08.18.139 4.383 3.208 8.766 6.375 13.148 9.523C5074.684 3527.679 5077.155 3529.452 5079.645 3531.185zM5355.202 3413.559c-43.25-28.716-86.31-59.729-129.012-92.918-4.676-3.627-9.352-7.275-14.027-10.982-58.876-46.449-117.036-97.009-174.147-151.357-4.27-4.051-8.516-8.141-12.762-12.232-10.234-9.854-20.421-19.849-30.56-29.945-50.336-50.096-95.447-98.903-134.881-144.122-3.984-4.554-7.896-9.068-11.737-13.542-11.143-12.945-21.744-25.523-31.906-37.762-7.642.33-15.283.606-22.924.84 13.256 16.067 27.385 32.82 42.4 50.162 3.865 4.453 7.777 8.947 11.761 13.481 40.364 46.046 86.668 95.82 138.602 147.185 8.875 8.786 17.773 17.471 26.719 26.055 4.246 4.091 8.493 8.161 12.762 12.212 57.326 54.489 115.725 105.17 174.815 151.739 4.676 3.708 9.375 7.375 14.051 10.982 44.038 34.197 88.433 66.076 133.044 95.537 14.671 9.693 29.342 19.103 44.062 28.272 5.129 3.204 10.258 6.368 15.411 9.491 3.745-4.534 6.608-9.471 8.54-14.69-5.558-3.405-11.117-6.831-16.675-10.317C5384.211 3432.541 5369.706 3423.191 5355.202 3413.559zM5392.397 3119.921c-5.389-3.516-10.805-7.069-16.194-10.64-56.372-37.348-112.045-77.136-166.825-119.239-5.891-4.518-11.699-9.036-17.451-13.518-5.053-3.935-10.051-7.87-15.021-11.787-20.604-16.307-40.375-32.402-59.302-48.192-4.521.318-9.044.622-13.563.967-.694.053-1.306.1-1.847.141-2.503.229-5.005.46-7.509.687-1.014.091-2.028.182-3.042.273 22.712 19.049 46.684 38.592 71.944 58.495 4.97 3.898 9.968 7.816 15.021 11.732 6.757 5.283 13.654 10.585 20.606 15.905 54.137 41.356 109.168 80.507 164.898 117.272 5.389 3.571 10.805 7.105 16.221 10.621 5.082 3.316 10.164 6.613 15.273 9.875 7.427 4.755 14.854 9.492 22.336 14.156v-20.277c-7.455-4.737-14.909-9.546-22.336-14.392C5394.547 3121.324 5393.458 3120.632 5392.397 3119.921z"/><path fill="#a7c1c4" d="M4726.772 2919.72c-23.039 29.783-47.888 60.635-74.539 92.033-13.667 16.097-27.413 31.896-41.259 47.375-3.625 4.084-7.271 8.148-10.938 12.173-37.752 41.737-76.043 81.083-114.712 117.939-5.299 5.06-10.619 10.061-15.938 15.001v21.755c5.319-4.881 10.638-9.822 15.938-14.822 41.996-39.426 83.554-81.801 124.474-126.924 3.666-4.024 7.312-8.049 10.937-12.113 12.989-14.503 25.899-29.266 38.749-44.307 30.986-36.289 59.527-71.741 85.619-105.643C4738.989 2921.439 4732.878 2920.617 4726.772 2919.72zM4973.584 2922.735c-10.262 13.591-20.882 27.42-31.961 41.504-3.426 4.343-6.873 8.706-10.379 13.089-16.157 20.281-33.13 40.98-50.881 61.898-50.164 59.109-101.444 114.094-153.46 164.538-3.826 3.725-7.65 7.411-11.495 11.077-44.925 42.952-90.387 82.498-136.089 118.437-31.218 24.544-62.576 47.375-93.993 68.493-5.319 3.566-10.619 7.092-15.938 10.539v19.006c5.319-3.406 10.638-6.873 15.938-10.379 33.609-22.233 67.138-46.399 100.488-72.497 47.036-36.776 93.813-77.398 140.033-121.546 3.845-3.665 7.67-7.351 11.495-11.076 50.901-49.327 101.105-102.958 150.273-160.533 18.707-21.894 36.518-43.49 53.451-64.627 3.486-4.363 6.953-8.706 10.36-13.029 15.39-19.46 29.977-38.468 43.795-56.928C4988.011 2921.423 4980.798 2922.092 4973.584 2922.735zM5342.315 2900.934c-.46.006-.922.011-1.383.018-13.578 17.726-28.589 36.832-45.018 57.073-3.488 4.309-7.065 8.695-10.728 13.116-44.835 54.562-99.293 116.407-162.188 180.229-.914.921-1.828 1.861-2.762 2.781-3.876 3.932-7.774 7.864-11.692 11.755-72.378 72.292-146.351 137.575-220.988 195.071-4.407 3.389-8.791 6.74-13.195 10.07-28.389 21.514-56.878 41.883-85.402 61.091-34.36 23.136-68.775 44.569-103.199 64.242-7.798 4.463-15.593 8.847-23.382 13.11 8.98 1.228 18.048 2.379 27.206 3.454 7.753-4.406 15.509-8.89 23.269-13.455 27.478-16.193 54.96-33.486 82.383-51.862 30.406-20.366 60.762-42.035 91.025-65.007 4.404-3.33 8.811-6.699 13.218-10.109 74.288-57.291 147.883-122.231 219.92-194.017 3.541-3.547 7.103-7.113 10.645-10.68.355-.344.691-.71 1.046-1.055 64.217-64.824 119.487-127.215 164.982-182.268 3.62-4.404 7.196-8.769 10.725-13.056 20.819-25.525 39.413-49.299 55.729-70.835C5355.784 2900.734 5349.046 2900.843 5342.315 2900.934zM5417.944 3055.064v31.377c-3.367 5.638-6.774 11.296-10.22 16.974-1.893 3.128-3.805 6.236-5.718 9.344-.757 1.255-1.514 2.49-2.291 3.725-1.195 1.952-2.391 3.905-3.606 5.837-1.653 2.71-3.327 5.399-5 8.069-1.375 2.192-2.749 4.383-4.144 6.574-41.538 66.062-84.849 127.98-129.574 185.336-3.288 4.223-6.574 8.407-9.881 12.571-.359.438-.698.896-1.056 1.335-3.586 4.522-7.192 9.025-10.798 13.487-25.879 32.035-52.196 62.536-78.912 91.403-23.986 25.939-48.312 50.582-72.896 73.911-3.884 3.666-7.749 7.292-11.634 10.897-2.151 2.012-4.303 3.985-6.475 5.977-3.905.18-7.83.359-11.754.518-4.363.179-8.746.359-13.129.498 2.072-1.853 4.144-3.705 6.216-5.578 4.004-3.606 8.009-7.272 11.993-10.938.06-.059.1-.099.159-.159 29.983-27.712 59.567-57.396 88.674-89.052 25.401-27.612 50.463-56.679 75.087-87.16 3.606-4.462 7.211-8.965 10.798-13.488.658-.837 1.335-1.673 1.992-2.51 3.307-4.164 6.594-8.348 9.901-12.571 44.128-56.719 86.881-117.92 127.92-183.185 1.992-3.147 3.965-6.315 5.937-9.483 1.076-1.733 2.151-3.447 3.208-5.18 1.813-2.909 3.626-5.817 5.418-8.746 3.288-5.339 6.555-10.738 9.822-16.137 1.355-2.251 2.69-4.482 4.024-6.714C5407.445 3072.954 5412.745 3063.969 5417.944 3055.064z"/></g><g><ellipse cx="4943.665" cy="2893.921" fill="#a06e4d" rx="497.422" ry="45.258"/><path fill="#a06e4d" d="M5441.088,2864.427v29.485c0,0-132.861,7.909-255.642,15.101
							c-10.579,0.637-21.078,1.255-31.397,1.853c-64.588,3.785-122.701,7.152-152.047,8.746
							c-51.618,2.809-232.034-6.395-373.461-14.563c-10.718-0.617-21.197-1.235-31.397-1.833
							c-86.004-5.061-150.891-9.303-150.891-9.303v-29.485c0-5.798,28.19-11.197,76.88-15.759h841.076
							C5412.899,2853.23,5441.088,2858.629,5441.088,2864.427z"/><path fill="#c19170" d="M5441.088,2864.427c0,4.144-14.344,8.068-40.223,11.634
							c-76.123,10.499-252.176,17.851-457.195,17.851s-381.072-7.352-457.195-17.851c-25.879-3.566-40.223-7.491-40.223-11.634
							c0-5.798,28.19-11.197,76.88-15.759c88.156-8.268,243.549-13.746,420.538-13.746c176.969,0,332.362,5.479,420.538,13.746
							C5412.899,2853.23,5441.088,2858.629,5441.088,2864.427z"/></g><g><path fill="#2e7a50" d="M5195.628,2838.874c-9.996-4.61-33.061,26.615-35.578,30.022
						c-1.096,1.484-3.134,4.324-4.767,8.499c-1.219,3.12-5.87,15.018,0.108,24.719c0.754,1.224,5.643,8.846,12.941,9.338
						c14.425,0.972,29.838-26.476,31.609-50.623C5200.383,2854.831,5201.36,2841.518,5195.628,2838.874z"/><path fill="#ffdda6" d="M5349.665,2871.751h-121.653c-14.288,0-26.849-9.615-30.418-23.45
						c-12.966-50.252,1.874-104.067,36.282-132.217c32.414-26.517,78.214-27.003,110.91,0
						c34.291,28.321,48.766,82.415,35.215,132.528C5376.302,2862.29,5363.833,2871.751,5349.665,2871.751z"/><path fill="#ffd584" d="M5264.909,2788.253c-13.89-43.131,14.261-76.49,31.378-91.965
						c-21.9-1.738-44.256,4.943-62.413,19.796c-35.836,29.317-50.445,86.472-34.525,138.448
						c3.133,10.227,12.568,17.219,23.265,17.219H5355c10.491,0,19.883-6.703,23.093-16.691c2.509-7.809,4.319-15.747,5.46-23.699
						C5347.877,2833.782,5279.133,2832.424,5264.909,2788.253z"/><path fill="#256641" d="M5586.513,2924.101c-4.816-3.741-12.272-4.21-19.454-4.305
						c-8.145-4.869-17.446-7.428-27.044-8.003c-0.025-7.344,0.019-14.69-0.01-22.033c-0.01-2.518-0.036-5.04-0.071-7.563
						c2.77,2.202,5.485,4.478,8.305,6.605c8.611,6.495,19.056,12.087,30.204,10.733c4.857-0.59,10.197-2.383,12.242-7.265
						c2.38-5.684-0.02-13.711-2.546-18.865c-4.943-10.083-14.664-17.721-23.975-23.611c-8.297-5.249-18.068-11.119-27.663-13.757
						c-1.835-11.459-4.598-22.753-8.79-33.732c-0.23-0.604-0.481-1.199-0.721-1.8c3.962,5.171,8.324,10.032,13.302,14.228
						c6.428,5.419,15.601,10.569,24.364,9.519c11.755-1.409,6.118-18.803,2.743-25.23c-3.732-7.108-9.128-14.671-15.931-19.521
						c-2.58-3.167-5.43-6.104-8.657-8.673c-7.02-5.588-16.268-7.743-22.767-6.889c-4,0.525-7.889,2.094-7.889,2.094
						c-1.477,0.596-2.667,1.201-3.507,1.662c-6.558-8.825-14.084-16.915-22.41-24.05c-0.031-0.162-0.064-0.323-0.096-0.484
						c11.668,3.815,23.563,6.922,35.65,9.127c6.127,1.118,13.178,2.163,18.976-0.747c6.617-3.321,8.4-10.903,7.928-17.781
						c-1.03-14.988-10.901-27.58-26.089-29.734c-7.02-0.995-14.077-0.483-24.525,3.176c-8.269,2.895-21.283,8.532-35.83,19.8
						c-10.616-5.849-21.987-10.328-33.882-13.117c1.067-0.334,2.138-0.659,3.199-1.007c13.106-4.292,16.952-17.637,10.957-29.82
						c-0.563-1.145-1.988-3.405-4.401-5.162c-11.1-8.084-35.964,1.813-50.286,17.434c-5.389,5.877-8.643,11.865-10.617,16.33
						c-10.12,1.385-20.095,3.944-29.274,7.891c0.771,0.756,1.478,1.561,2.151,2.422c0.374,0.237,0.732,0.505,1.067,0.809
						c0.142,0.107,0.268,0.232,0.402,0.348c0.021,0.022,0.046,0.036,0.067,0.058c0.675,0.614,1.255,1.281,1.681,2.084
						c0.036,0.068,0.076,0.134,0.114,0.2c1.086,0.831,2.019,1.752,2.801,2.759c2.6-0.832,5.215-1.624,7.873-2.299
						c5.612-1.427,11.321-2.493,17.073-3.226c0.889,1.22,1.971,2.251,3.165,2.595c1.041,15.635,4.71,30.936,11.216,45.275
						c4.059,8.947,13.916,32.68,27.317,26.097c14.711-7.227,8.029-29.457,2.524-40.413c-6.863-13.658-15.883-24.303-27.266-34.116
						c0.715-0.183,1.427-0.367,2.142-0.55c1.586,0.021,3.172,0.062,4.756,0.14c18.657,0.914,36.791,5.614,53.353,13.819
						c-2.879,6.982-2.473,14.64-2.419,22.093c0.087,12.102-1.954,38.814,13.805,43.8c15.045,4.76,17.735-19.139,18.365-28.387
						c0.4-5.877,0.314-11.723-0.205-17.514c5.667,5.08,10.888,10.657,15.587,16.641c-0.816,0.844-1.585,1.669-2.3,2.403
						c-10.372,10.648-17.902,23.888-22.35,38.031c-1.958,6.227,1.273,18.098,7.472,21.281c10.083,5.176,19.079-7.734,24.523-14.835
						c3.956-5.16,7.371-10.716,10.281-16.526c0.021,0.052,0.044,0.103,0.064,0.154c4.176,10.447,6.737,21.335,8.313,32.417
						c-2.056,0.093-3.908,0.554-5.566,1.349c-4.938,2.366-6.312,7.344-9.4,12.873c-0.526,0.942-3.584,4.829-9.699,12.601
						c-15.521,19.73-15.653,20.247-17.665,23.668c-3.752,6.381,2.193,26.684,11.713,24.676
						c12.081-2.548,18.188-13.981,26.075-22.279c1.976-2.079,4.379-3.865,7.003-5.238c-0.002,2.172-0.007,4.341-0.014,6.5
						c-0.025,7.68-0.152,15.584-0.164,23.57c-1.749,1.344-4.063,3.156-6.756,5.373c0,0-1.023,0.518-1.474,1.221
						c-15.082,23.541-24.807,49.687-28.645,77.392c-0.771,5.568,1.933,18.944,9.475,18.615c12.9-0.564,18.202-18.017,21.965-27.878
						c3.512-9.201,6.273-18.578,8.48-28.096c0.491,6.231,2.005,15.422,6.922,25.196c7.945,15.791,23.933,31.431,30.54,28.172
						c6.262-3.088,6.534-24.59-2.821-37.67c-5.607-7.839-11.735-14.634-18.376-21.09c-3.23-4.156-6.638-8.173-10.215-12.037
						c-0.12-1.793-0.234-3.587-0.324-5.382c7.475,6.325,13.987,13.911,22.99,18.134c8.646,4.054,20.577,4.583,26.351-4.416
						C5594.634,2943.004,5593.755,2929.728,5586.513,2924.101z"/><path fill="#256641" d="M5341.57,2936.884c6.358,4.664,15.326,11.09,23.53,11.177
						c9.602,0.102,13.151-8.837,12.061-17.225c-1.361-10.474-8.573-17.277-16.434-23.481c-7.397-5.838-15.57-10.75-24.137-14.672
						c-3.736-1.71-9.624-4.843-15.07-5.858c-1.265-7.542-2.623-15.068-4.135-22.567c-2.313-11.471-5.017-22.927-8.185-34.264
						c0.124,0.033,0.246,0.067,0.37,0.1c6.078,9.928,14.022,18.621,23.973,24.833c6.367,3.975,20.659,12.126,25.66,1.758
						c5.352-11.094-14.068-30.028-15.843-31.736c-5.98-6.728-16.018-11.686-25.994-11.355c0,0-0.181,0.006-12.462,2.022
						c-5.252-16.407-11.604-32.446-19.363-47.761c7.832,4.377,16.115,7.969,24.757,10.312c4.195,1.137,12.486,4.453,16.544,1.529
						c4.345-3.13,3.132-11.541,1.902-15.687c-3.259-10.983-15.808-18.563-25.875-22.596c-11.012-4.411-23.1-4.525-34.715-2.933
						c-2.208-3.216-4.469-6.401-6.845-9.515c-3.643-4.773-7.466-9.344-11.465-13.712c12.75,4.691,26.391,7.086,38.373-1.292
						c6.55-4.58-0.479-16.006-0.779-16.569c-9.322-17.5-41.943-13.815-48.233-7.207c-4.531,4.76-4.293,9.213-4.293,9.214
						c0.034,0.625,0.13,1.136,0.208,1.477c-9.387-8.15-19.643-15.276-30.873-21.214c4.655-27.253,11.543-54.166,23.12-78.95
						c2.511-5.375,5.301-10.791,8.416-16.047c1.955,5.904,3.916,11.806,5.866,17.711c2.956,8.951,5.479,18.311,10.405,26.438
						c6.584,10.865,22.708,21.102,32.696,8.009c8.877-11.637,4.869-29.766-2.479-41.02c-7.962-12.197-20.255-21.723-31.347-31.549
						c4.653-4.871,9.836-9.177,15.654-12.616c17.424-10.299,38.449-8.839,51.988,7.1c17.549,20.66,11.492,50.869,5.689,74.851
						c-5.286,21.849-12.64,42.894-20.04,64.013c0.449,0.084,0.906,0.206,1.371,0.379c0.722,0.269,1.41,0.555,2.104,0.838
						c0.229,0.034,0.458,0.046,0.687,0.092c0.383,0.078,0.753,0.176,1.124,0.271c0.644,0.115,1.286,0.231,1.931,0.341
						c7.283-16.642,12.783-34.233,17.523-51.57c6.147-22.483,11.494-46.318,5.686-69.47c-4.401-17.537-15.591-35.335-32.775-42.613
						c-18.263-7.734-37.126-0.288-51.244,12.113c-3.58,3.145-6.866,6.587-9.924,10.234c-0.987-1.874-2.857-5.025-5.977-8.156
						c-18.157-18.219-56.009-12.992-62.592-0.717c-2.218,4.136-2.26,8.809-2.26,8.81c0.374,14.395,12.961,21.471,26.12,20.28
						c12.23-1.107,23.041-6.465,35.095-6.902c-6.234,9.96-11.25,20.769-15.529,31.471c-2.412,6.03-4.554,12.152-6.506,18.333
						c-1.642-5.549-5.104-10.691-10.397-12.107c-1.971-0.527-3.609-0.376-4.585-0.254c-12.576,1.581-29.27,10.086-30.786,10.857
						c-19.896,10.117-22.061,8.742-25.177,13.614c-4.627,7.234-1.292,19.441,4.441,25.196c6.266,6.291,15.455,4.021,23.147,2.004
						c9.229-2.42,18.008-6.206,26.177-11.122c3.536-2.128,7.88-4.542,11.445-7.558c-2.415,9.879-4.448,19.857-6.204,29.867
						c-3.557,20.272-6.474,40.641-8.238,61.059c-1.815,0.326-3.068,2.773-3.395,4.692c-1.166,6.839-0.344,13.541,1.861,19.808
						c-0.794,22.023,0.025,44.087,3.16,66.139c4.065,28.594,10.667,57.041,15.262,85.624c-0.057,2.968,0.644,6.529,1.374,9.031
						c0.197,1.366,0.397,2.732,0.582,4.1c-0.507-0.194-1.106-0.151-1.814,0.224c-12.069,6.402-25.043,15.901-34.215,26.119
						c-9.52,10.605-10.986,22.696-6.271,36.053c0.913,2.586,3.61,7.535,7.087,6.887c17.725-3.3,31.816-15.82,38.347-31.927
						c0.233,10.008-0.087,20.051-1.171,30.144c-2.468,1.797-4.958,3.721-7.431,5.762c-23.422,6.99-63.88,34.94-41.125,61.14
						c10.601,12.206,25.071,0.637,33.819-7.556c11.446-10.719,20.18-24.042,26.063-38.539c7.986,15.163,16.034,30.293,24.047,45.442
						c2.516,4.756,6.417,13.145,12.895,13.288c7.015,0.155,6.237-10.046,5.945-14.704c-1.224-19.528-2.433-31.473-12.073-44.675
						c-10.594-14.508-24.387-20.476-30.181-22.603c-0.298-0.185-0.583-0.387-0.885-0.567c-0.777-0.462-1.452-0.733-2.048-0.863
						c1.096-16.563,0.246-33.144-1.652-49.664c4.695,6.594,10.23,12.573,16.648,17.59c9.494,7.421,25.648,15.681,31.044-0.341
						c4.033-11.976-2.058-29.548-14.368-37.578c-14.779-9.641-27.804,1.351-35.517-8.193c-2.199-2.721-4.165-12.752-8.096-32.814
						c-0.271-1.381-0.49-2.525-0.638-3.3c6.401,6.231,16.312,10.226,23.74,3.551c9.152-8.225,6.333-25.092,1.32-34.681
						c-6.734-12.879-19.668-16.822-31.652-23.19c-0.997-0.53-1.781-0.158-2.355,0.708c-0.498-4.201-0.951-8.407-1.296-12.625
						c-0.928-11.338-1.179-22.705-0.958-34.068c2.238,2.966,4.752,5.731,7.465,8.229c7.866,7.238,23.069,20.081,32.216,7.808
						c8.175-10.969,3.359-28.336-5.042-37.656c-4.663-5.172-10.838-8.906-17.192-11.671c-5.27-2.294-10.1-3.138-15.226-3.155
						c0.102-1.045,0.19-2.091,0.298-3.135c1.581-15.342,3.403-30.94,5.883-46.467c24.642,14.997,45.212,35.56,61.518,59.153
						c-0.054,0.99-0.006,1.978,0.15,2.873c-1.543-0.73-2.485,0.547-3.129,2.45c-4.703,13.906-7.678,26.793-6.442,41.628
						c0.577,6.928,5.185,27.009,16.502,20.808c4.266-2.338,4.239-8.335,4.668-12.536c0.759-7.429,1.803-14.988,2.045-22.453
						c0.116-3.569-0.12-7.923-1.018-12.149c3.543,6.417,6.829,12.972,9.798,19.653c5.589,12.578,10.16,25.511,14.011,38.667
						c-0.978,0.108-1.667,1.16-2.133,2.624c-0.597,1.876-1.539,3.592-2.685,5.206c-2.882,2.396-5.448,4.98-7.549,7.872
						c-2.737,2.413-5.52,4.747-7.734,7.246c-6.425,7.251-8.821,15.933-6.88,25.518c0.844,4.169,2.815,10.107,7.668,11.026
						c4.884,0.925,10.235-4.138,13.224-7.417c7.668-8.413,11.292-19.803,11.223-31.055c-0.004-0.623-0.128-1.783-0.371-3.187
						c3.656,15.081,6.507,30.389,8.912,45.756c-0.612,0.184-1.19,0.445-1.743,0.764c-0.522-0.148-1.136,0.131-1.849,1.025
						c-12.058,15.123-17.66,34.122-19.91,53.078c-0.502,4.233,1.471,14.654,7.232,14.624c19.233-0.101,20.743-22.5,20.666-38.061
						c0.63,4.947,1.249,9.89,1.849,14.819c0.885,7.266,1.682,14.565,2.46,21.878c-7.813,0.716-11.097,5.754-12.591,12.725
						c-1.89,1.188-3.858,2.228-5.773,3.375c-4.602,2.756-9.353,5.666-13.529,9.043c-8.471,6.85-13.417,15.906-13.648,26.871
						c-0.084,4.019,2.04,16.198,8.261,15.288c10.114-1.479,19.57-6.634,26.204-14.459c3.478-4.102,6.292-8.897,7.987-14.003
						c1.348-4.059,0.906-12.253,4.46-14.714c0.351-0.243,0.739-0.439,1.143-0.615c0.35,3.161,0.715,6.319,1.089,9.475
						c-3.543,9.091-10.08,29.925-1.123,49.24c1.292,2.784,9.24,20.098,18.908,19.167c2.084-0.201,4.214-1.166,6.325-3.151
						c7.922-7.448,5.683-22.461,2.305-31.404c-2.212-5.857-5.66-11.738-10.469-15.84c-1.924-1.641-3.881-2.718-5.92-3.454
						c-0.639-5.545-1.327-11.09-2.064-16.632c10.363,8.004,29.828,22.456,35.144,5.546c4.978-15.836-6.148-33.82-22.381-35.812
						c-5.433-0.667-11.338-1.038-17.067-0.978c-0.542-3.977-1.073-7.952-1.575-11.921c-0.806-6.372-1.626-12.743-2.48-19.11
						C5331.382,2928.613,5336.344,2933.05,5341.57,2936.884z"/><path fill="#2e7a50" d="M5187.42 2792.278c.191-3.163-.738-6.698-2.788-7.054-14.99-2.606-31.412-2.674-45.699 3.35-13.374 5.64-25.001 15.882-20.764 31.525 3.936 14.531 17.998 18.65 31.435 15.129 15.288-4.006 27.442-16.496 37.854-27.674C5189.968 2804.859 5189.621 2797.735 5187.42 2792.278zM5189.682 2690.847c-13.145-12.555-62.549 16.416-65.427 34.196-.643 3.969-.154 8.299 1.775 12.998 3.177 7.737 8.148 10.607 16.305 10.108 7.21-.44 14.468-2.373 20.947-5.566 6.818-3.361 26.232-13.984 28.989-34.406C5193.034 2702.524 5194.048 2695.017 5189.682 2690.847zM5370.519 2991.53c4.978-15.836-6.148-33.82-22.382-35.812-5.433-.667-11.339-1.038-17.067-.978l4.305 31.244C5345.738 2993.987 5365.203 3008.439 5370.519 2991.53zM5333.544 2854.929c6.368 3.975 20.66 12.126 25.66 1.758 5.352-11.094-14.068-30.028-15.843-31.736-5.98-6.728-16.018-11.686-25.995-11.355 0 0-.181.006-12.461 2.022l4.296 14.378c.124.033.246.067.37.1C5315.649 2840.023 5323.592 2848.717 5333.544 2854.929zM5288.216 2713.963c6.55-4.58-.479-16.006-.779-16.569-9.322-17.5-41.942-13.815-48.233-7.207-4.531 4.76-4.293 9.213-4.293 9.214.034.625.13 1.136.208 1.477l14.725 14.378C5262.593 2719.946 5276.234 2722.342 5288.216 2713.963zM5377.162 2930.837c-1.361-10.474-8.572-17.277-16.434-23.481-7.397-5.838-15.57-10.75-24.137-14.672-3.736-1.71-9.624-4.844-15.07-5.858l5.495 36.882c4.367 4.904 9.329 9.341 14.555 13.176 6.358 4.664 15.326 11.09 23.531 11.177C5374.703 2948.164 5378.251 2939.225 5377.162 2930.837zM5310.298 2778.169c4.195 1.137 12.486 4.453 16.544 1.529 4.344-3.131 3.132-11.541 1.902-15.687-3.259-10.983-15.808-18.563-25.875-22.595-11.012-4.411-23.1-4.525-34.715-2.934l17.387 29.375C5293.374 2772.234 5301.656 2775.826 5310.298 2778.169zM5271.923 2812.173c4.267-2.338 4.238-8.335 4.668-12.536.759-7.429 1.802-14.988 2.044-22.453.116-3.57-.119-7.923-1.017-12.149-2.947-6.708-12.777-20.621-12.777-20.621-.054.99-.006 1.977.149 2.873-1.542-.73-2.485.547-3.128 2.45-4.703 13.906-7.678 26.794-6.442 41.628C5255.998 2798.293 5260.606 2818.375 5271.923 2812.173zM5282.116 2882.848c4.884.925 10.235-4.138 13.224-7.417 7.667-8.413 11.292-19.803 11.223-31.055-.004-.623-.128-1.783-.371-3.187l-4.763-17.833c-.979.108-1.667 1.16-2.133 2.624-.597 1.876-1.539 3.592-2.685 5.206-2.882 2.396-5.448 4.98-7.549 7.872-2.737 2.413-5.519 4.747-7.733 7.246-6.425 7.251-8.821 15.933-6.879 25.518C5275.292 2875.991 5277.263 2881.93 5282.116 2882.848zM5313.361 2887.708c-.522-.148-1.136.131-1.849 1.025-12.057 15.123-17.66 34.122-19.91 53.078-.502 4.233 1.471 14.654 7.232 14.624 19.233-.101 20.744-22.5 20.666-38.061-.28-5.287-4.396-31.43-4.396-31.43C5314.491 2887.128 5313.913 2887.39 5313.361 2887.708zM5312.733 3007.913c3.478-4.102 6.292-8.897 7.987-14.003 1.348-4.059.906-12.253 4.46-14.714.351-.243.738-.439 1.143-.615l-2.513-23.51c-7.813.716-11.097 5.754-12.591 12.725-1.89 1.188-3.859 2.228-5.774 3.375-4.602 2.756-9.353 5.666-13.529 9.043-8.47 6.85-13.417 15.906-13.648 26.871-.084 4.018 2.041 16.198 8.262 15.288C5296.643 3020.892 5306.1 3015.737 5312.733 3007.913zM5326.291 3037.297c1.292 2.784 9.24 20.098 18.907 19.167 2.084-.2 4.214-1.166 6.325-3.15 7.922-7.448 5.683-22.461 2.306-31.404-2.212-5.857-5.661-11.738-10.469-15.84-1.925-1.642-3.881-2.718-5.92-3.454-2.524 17.111-10.027-14.56-10.027-14.56C5323.869 2997.147 5317.333 3017.981 5326.291 3037.297z"/><g><path fill="#2e7a50" d="M5165.69 2660.648c9.229-2.42 18.008-6.206 26.178-11.122 3.536-2.128 7.88-4.542 11.445-7.558l5.734-20.63c-1.642-5.549-5.104-10.691-10.397-12.107-1.971-.527-3.609-.377-4.585-.254-12.576 1.581-29.27 10.086-30.786 10.857-19.895 10.117-22.06 8.742-25.176 13.614-4.627 7.234-1.292 19.441 4.441 25.195C5148.809 2664.935 5157.998 2662.666 5165.69 2660.648zM5172.127 2549.347c-2.218 4.136-2.26 8.809-2.26 8.809.374 14.395 12.961 21.471 26.121 20.28 12.229-1.107 23.04-6.465 35.094-6.902l9.614-13.314c-.988-1.873-2.857-5.025-5.977-8.156C5216.563 2531.845 5178.71 2537.072 5172.127 2549.347z"/></g><path fill="#2e7a50" d="M5235.781,2584.667c1.954,5.904,3.915,11.806,5.865,17.711
						c2.956,8.951,5.479,18.311,10.405,26.438c6.584,10.864,22.708,21.102,32.696,8.009c8.877-11.637,4.869-29.766-2.479-41.02
						c-7.961-12.197-20.255-21.723-31.347-31.549C5250.922,2564.255,5245.073,2565.737,5235.781,2584.667z"/><g><path fill="#2e7a50" d="M5229.864 2875.166c9.152-8.225 6.333-25.093 1.32-34.681-6.734-12.879-19.668-16.822-31.652-23.19-.997-.53-1.781-.158-2.355.708 1.322 17.198 8.947 53.613 8.947 53.613C5212.525 2877.847 5222.437 2881.842 5229.864 2875.166zM5207.714 2922.289l-1.668.162c-.049.023-.095.036-.145.062-12.069 6.403-25.044 15.902-34.215 26.119-9.521 10.605-10.986 22.696-6.271 36.053.913 2.586 3.61 7.535 7.087 6.887 17.725-3.3 31.816-15.82 38.347-31.927C5211.25 2941.958 5207.714 2922.289 5207.714 2922.289zM5229.562 2749.69c-4.663-5.172-10.838-8.906-17.192-11.671-5.271-2.294-10.1-3.138-15.226-3.155 0 0-3.714-2.603-8.273-1.969-1.815.326-3.068 2.772-3.395 4.692-1.166 6.839-.344 13.542 1.861 19.808 2.587 6.924 7.586 13.915 7.586 13.915 2.238 2.966 4.752 5.731 7.465 8.229 7.866 7.238 23.069 20.08 32.216 7.807C5242.779 2776.377 5237.963 2759.009 5229.562 2749.69zM5194.94 3049.136c11.446-10.719 20.18-24.042 26.063-38.539 7.986 15.163 16.034 30.293 24.048 45.442 2.516 4.756 6.417 13.146 12.894 13.288 7.015.155 6.237-10.045 5.945-14.704-1.224-19.528-2.433-31.473-12.073-44.675-10.594-14.508-24.387-20.476-30.181-22.603-.298-.185-.583-.387-.885-.567-.778-.462-1.452-.733-2.047-.863 0 0-.938 9.63-3.15 10.822-2.212 1.191-5.276-2.553-5.876-6.946-2.468 1.797-4.958 3.721-7.431 5.762-23.423 6.99-63.88 34.94-41.125 61.14C5171.722 3068.898 5186.191 3057.329 5194.94 3049.136zM5250.376 2915.923c-14.78-9.641-27.804 1.351-35.518-8.193-.677-.837-1.332-2.371-2.029-4.673 4.086 17.222 4.223 33.195 4.223 33.195 4.695 6.594 10.229 12.573 16.648 17.59 9.494 7.42 25.648 15.681 31.044-.341C5268.777 2941.524 5262.686 2923.952 5250.376 2915.923z"/></g><g><path fill="#2e7a50" d="M5551.468 2779.501c-2.58-3.167-5.43-6.104-8.657-8.672-7.02-5.588-16.268-7.743-22.767-6.89-3.999.526-7.888 2.094-7.888 2.094-1.477.595-2.667 1.201-3.507 1.662 12.568 15.494 18.341 32.81 18.341 32.81 3.962 5.171 8.325 10.031 13.303 14.228 6.427 5.419 15.601 10.569 24.364 9.519 11.755-1.409 6.118-18.803 2.742-25.23C5563.667 2791.914 5558.271 2784.35 5551.468 2779.501zM5486.143 2743.161c11.668 3.815 23.563 6.922 35.65 9.127 6.128 1.118 13.178 2.163 18.976-.747 6.618-3.322 8.401-10.903 7.929-17.781-1.03-14.988-10.901-27.58-26.089-29.734-7.02-.995-14.077-.483-24.525 3.176-8.27 2.895-21.283 8.532-35.83 19.8C5462.252 2727.001 5477.818 2734.813 5486.143 2743.161zM5431.569 2712.878c13.106-4.292 16.952-17.637 10.957-29.82-.564-1.145-1.988-3.405-4.401-5.162-11.099-8.084-35.964 1.813-50.286 17.435-5.389 5.877-8.643 11.865-10.617 16.33 4.709-.049 30.903-2.376 51.148 2.223C5429.437 2713.551 5430.507 2713.225 5431.569 2712.878zM5536.5 2836.037c1.754 10.725 3.433 46.16 3.433 46.16 2.77 2.202 5.485 4.478 8.305 6.605 8.611 6.496 19.056 12.087 30.204 10.733 4.857-.59 10.197-2.383 12.242-7.265 2.38-5.684-.02-13.712-2.546-18.865-4.943-10.083-14.664-17.721-23.975-23.611C5555.866 2844.545 5546.095 2838.675 5536.5 2836.037zM5523.571 2919.425c-15.082 23.541-24.807 49.687-28.645 77.392-.771 5.569 1.933 18.944 9.475 18.615 12.9-.564 18.202-18.018 21.965-27.877 3.512-9.202 6.272-18.579 8.479-28.096.491 6.23 2.005 15.422 6.922 25.195 7.945 15.791 23.933 31.431 30.54 28.172 6.261-3.088 6.534-24.59-2.821-37.67-5.607-7.839-11.735-14.634-18.376-21.089-3.23-4.156-6.638-8.173-10.215-12.037 0 0 .36 4.927-5.128 4.417-5.489-.511-3.966-33.615-3.966-33.615-1.749 1.343-4.063 3.156-6.756 5.373C5525.045 2918.204 5524.021 2918.721 5523.571 2919.425z"/><path fill="#2e7a50" d="M5589.913,2950.364c4.722-7.36,3.842-20.636-3.4-26.263c-4.816-3.741-12.272-4.21-19.454-4.305
							c-8.145-4.869-17.446-7.428-27.044-8.003l0.559,24.854c7.475,6.325,13.986,13.911,22.989,18.134
							C5572.208,2958.834,5584.139,2959.363,5589.913,2950.364z"/><path fill="#558e74" d="M5487.928,2755.547c0.713,0.639,1.397,1.308,2.095,1.963
							C5489.402,2756.893,5488.715,2756.243,5487.928,2755.547z"/><path fill="#2e7a50" d="M5469.768 2801.447c15.045 4.76 17.736-19.139 18.365-28.387.4-5.877.315-11.722-.205-17.514-10.312-9.135-29.546-19.992-29.546-19.992-2.879 6.983-2.473 14.64-2.419 22.093C5456.05 2769.749 5454.009 2796.46 5469.768 2801.447zM5384.34 2725.302c1.041 15.635 4.71 30.936 11.215 45.275 4.06 8.946 13.916 32.68 27.318 26.097 14.711-7.228 8.029-29.457 2.524-40.413-6.863-13.658-15.884-24.303-27.267-34.117.715-.182 1.428-.367 2.143-.549-8.873.057-19.097 1.112-19.097 1.112C5382.064 2723.927 5383.146 2724.959 5384.34 2725.302z"/><path fill="#558e74" d="M5400.273,2721.595c0.222,0.003,0.443,0.016,0.665,0.02
							C5400.698,2721.602,5400.472,2721.594,5400.273,2721.595z"/><path fill="#2e7a50" d="M5510.861 2819.067c3.956-5.159 7.37-10.715 10.281-16.525-8.291-19.836-17.625-30.355-17.625-30.355-.817.844-1.586 1.669-2.3 2.403-10.372 10.649-17.902 23.889-22.35 38.032-1.958 6.227 1.273 18.098 7.472 21.28C5496.421 2839.079 5505.417 2826.168 5510.861 2819.067zM5498.902 2910.279c12.081-2.548 18.188-13.981 26.075-22.28 1.975-2.079 4.379-3.865 7.003-5.237.552-14.669-2.461-47.65-2.461-47.65-2.056.093-3.908.554-5.566 1.349-4.938 2.366-6.313 7.344-9.4 12.872-.527.942-3.584 4.829-9.699 12.602-15.521 19.73-15.653 20.247-17.665 23.668C5483.437 2891.984 5489.382 2912.287 5498.902 2910.279z"/></g></g><g><path fill="#256641" d="M4828.737,2579.518c0,0-17.624-126.938,0-218.83c16.002-83.437-45.502-118.562-48.461-154.662
						c-2.958-36.1,19.618-64.461,2.883-80.589c-2.161-2.083-87.35,75.259-87.159,117.256c0.191,41.997,40.688,61.784,25.386,81.571
						c-15.302,19.787-54.161,84.431-10.438,151.845C4754.67,2543.525,4825.786,2603.766,4828.737,2579.518z"/><path fill="#256641" d="M4821.254,2512.543c-3.956-5.936,27.235-88.095,52.203-144.962
						c24.968-56.866,60.717-85.927,38.951-154.783c-21.766-68.855-7.716-129.016,19.664-147.284
						c13.54-9.034,13.798-21.961,24.696-47.986c5.139-12.272,23.139-10.18,25.375,2.935c3.016,17.687,7.288,37.077,13.238,53.807
						c15.83,44.511,35.617,107.829,0,173.126s-22.114,110.742-48.652,195.859c-26.539,85.117-21.07,136.839-73.272,141.648
						C4821.256,2589.712,4821.254,2512.543,4821.254,2512.543z"/><path fill="#fff" d="M4721.833,2704.219l14.723,99.097c2.838,19.152,12.727,35.746,26.794,47.319
							c13.163,10.886,30.038,17.312,48.192,17.312h76.982c37.556,0,69.465-27.511,74.986-64.63l14.723-99.097
							c3.618-24.205-15.16-45.977-39.646-45.977h-177.109C4736.993,2658.242,4718.215,2680.014,4721.833,2704.219z"/><path fill="#eaeaea" d="M4742.36,2748.848c0.521,0,0.968-0.112,1.354-0.294c0.347,0.322,0.772,0.592,1.359,0.724
						c12.004,2.695,24.068,4.666,36.172,6.104c3.07,22.124,6.573,44.188,10.534,66.188c0.711,3.951,6.722,2.267,6.016-1.658
						c-3.82-21.216-7.196-42.496-10.178-63.831c9.884,1.02,19.796,1.671,29.724,2.078c2.089,17.683,4.358,35.344,6.831,52.981
						c0.556,3.965,6.566,2.268,6.015-1.658c-2.386-17.018-4.576-34.058-6.592-51.12c8.658,0.261,17.33,0.29,26.006,0.234
						c1.957,19.945,3.839,39.907,2.529,59.996c-0.262,4.015,5.979,3.986,6.239,0c1.31-20.088-0.671-40.076-2.691-60.048
						c14.406-0.19,28.824-0.671,43.232-1.291c0.223,15.061,0.197,30.125-0.104,45.198c-0.08,4.022,6.159,4.009,6.239,0
						c0.303-15.163,0.325-30.318,0.098-45.469c0.283-0.013,0.567-0.024,0.85-0.037c4.005-0.178,4.014-6.417,0-6.239
						c-0.329,0.015-0.658,0.029-0.987,0.043c-0.176-8.888-0.444-17.775-0.803-26.662c2.758-0.089,5.515-0.144,8.272-0.253
						c4.007-0.159,4.015-6.397,0-6.239c-2.838,0.112-5.676,0.169-8.513,0.261c-0.038-0.824-0.057-1.648-0.096-2.472
						c-0.188-4.004-6.428-4.013-6.239,0c0.042,0.887,0.063,1.775,0.103,2.663c-15.065,0.402-30.126,0.463-45.179,0.264
						c-0.18-5.97-0.146-11.944,0.143-17.923c20.78,0.543,41.596,0.242,62.431-1.002c3.996-0.239,4.01-6.478,0-6.238
						c-20.704,1.237-41.395,1.555-62.054,1.039c0.235-2.854,0.534-5.71,0.918-8.568c0.529-3.932-5.483-5.619-6.015-1.658
						c-0.453,3.366-0.769,6.729-1.021,10.089c-22.505-0.752-44.966-2.545-67.35-5.391c-0.074-0.751-0.168-1.499-0.241-2.25
						c-0.383-3.967-6.624-3.993-6.238,0c0.044,0.461,0.103,0.921,0.147,1.382c-4.81-0.655-9.62-1.307-14.421-2.06
						c-3.934-0.617-5.613,5.396-1.659,6.016c5.581,0.875,11.169,1.653,16.759,2.399c0.698,6.894,1.424,13.784,2.208,20.666
						c-9.122-0.728-18.24-1.528-27.351-2.477c-3.996-0.416-3.953,5.827,0,6.239c9.34,0.973,18.688,1.792,28.039,2.532
						c1.096,9.318,2.309,18.62,3.562,27.916c-11.268-1.39-22.5-3.247-33.677-5.757c-0.834-0.188-1.538-0.018-2.135,0.304
						c-0.502-0.573-1.245-0.958-2.236-0.958C4738.339,2742.61,4738.346,2748.848,4742.36,2748.848z M4855.053,2752.337
						c-0.924-9.26-1.761-18.519-2.232-27.784c15.044,0.195,30.095,0.13,45.151-0.274c0.358,8.914,0.627,17.828,0.802,26.743
						C4884.204,2751.651,4869.623,2752.146,4855.053,2752.337z M4819.772,2723.687c8.997,0.373,17.999,0.604,27.003,0.768
						c0.479,9.318,1.313,18.626,2.218,27.935c-8.709,0.054-17.416,0.022-26.107-0.251
						C4821.792,2742.662,4820.755,2733.178,4819.772,2723.687z M4783.159,2721.604c10.111,0.744,20.229,1.344,30.35,1.819
						c0.984,9.509,2.023,19.01,3.121,28.505c-9.98-0.425-19.943-1.104-29.876-2.169
						C4785.479,2740.385,4784.27,2731.001,4783.159,2721.604z M4780.276,2694.957c22.038,2.753,44.144,4.511,66.294,5.276
						c-0.259,5.999-0.256,11.991-0.066,17.978c-9.13-0.169-18.258-0.406-27.381-0.79c-0.203-2.012-0.426-4.021-0.625-6.033
						c-0.391-3.965-6.632-3.993-6.239,0c0.19,1.923,0.404,3.843,0.599,5.766c-10.141-0.482-20.277-1.09-30.407-1.842
						C4781.676,2708.532,4780.967,2701.746,4780.276,2694.957z"/><path fill="#2e7a50" d="M4763.35,2426.172c8.516,22.49,17.405,35.247,25.578,44.605
							c1.685,1.903,3.306,3.681,4.897,5.334c8.453,8.89,15.752,15.315,20.431,27.324c1.279,3.306,2.371,7.018,3.244,11.354
							c1.31,6.55,2.121,14.442,2.277,24.267c0.156,10.106-1.216,20.93-3.212,31.91c-0.374,2.059-0.78,4.148-1.186,6.207
							c-1.871,9.326-4.055,18.653-6.083,27.73c-0.437,2.121-0.904,4.211-1.341,6.301c-2.152,10.231-3.868,19.994-4.367,28.853
							c-0.125,2.246-0.187,4.46-0.125,6.582c0.561,26.794,15.876,42.827,72.334,32.284c4.023-0.749,11.385-8.328,18.434-19.963
							c1.404-2.308,2.808-4.804,4.18-7.455c6.582-12.758,12.227-28.759,13.662-45.541c0.187-2.183,0.281-4.367,0.312-6.55
							c0.25-13.163-2.371-26.576-9.295-39.052c-1.185-2.152-2.526-4.305-4.024-6.395c-0.062-0.156-0.187-0.281-0.281-0.437
							c-8.702-12.259-17.312-24.673-25.047-37.337c-1.154-1.871-2.277-3.743-3.4-5.615c-9.046-15.503-16.625-31.317-21.242-47.568
							c-0.686-2.308-1.279-4.648-1.809-6.987c-1.622-6.987-2.683-14.068-2.994-21.242c-0.125-2.339-0.156-4.71-0.125-7.081
							c0.125-9.202,1.466-18.56,4.211-28.042c0.53-1.934,1.154-3.868,1.84-5.833c0.78-2.246,1.653-4.492,2.589-6.769
							c2.62-6.27,5.396-12.165,8.235-17.748c0.936-1.903,1.903-3.743,2.87-5.552c3.431-6.395,6.924-12.415,10.387-18.123
							c1.091-1.809,2.183-3.618,3.275-5.365c12.851-20.836,24.829-38.522,30.537-59.826c0.593-2.183,1.123-4.398,1.528-6.675
							c1.903-9.389,2.526-19.589,1.498-31.067c-0.281-3.338-0.655-6.738-1.029-10.2c-0.25-2.184-0.531-4.367-0.812-6.582
							c-1.653-12.633-3.899-25.577-6.363-38.085c-0.437-2.34-0.905-4.679-1.404-6.987c-2.152-10.574-4.46-20.68-6.644-29.789
							c-0.717-3.057-1.435-5.989-2.121-8.796c-5.022-20.181-9.046-33.812-9.046-33.812s-16.75,7.549-36.557,27.199
							c-1.341,1.31-2.683,2.714-4.055,4.149c-7.829,8.266-15.97,18.372-23.581,30.631c-0.936,1.435-1.809,2.901-2.683,4.398
							c-6.55,11.073-12.664,23.8-17.779,38.304c-0.749,2.028-1.435,4.055-2.09,6.145c-2.402,7.361-4.554,15.159-6.363,23.425
							c-0.406,1.809-0.811,3.587-1.217,5.333c-0.53,2.34-1.061,4.648-1.622,6.894c-3.931,16.157-7.986,29.882-11.885,41.922
							c-0.717,2.215-1.435,4.367-2.152,6.457C4756.582,2354.555,4743.762,2374.425,4763.35,2426.172z"/><path fill="#48a06e" d="M4843.108 2139.798c3.337 2.932 6.02 5.396 7.299 6.363 5.896 4.429 12.103 9.389 19.402 11.291 9.544 2.464 17.405-2.527 25.078-6.394-.717-3.057-1.435-5.989-2.121-8.796-7.922 5.864-9.077 12.103-21.273 9.171-7.705-1.841-15.222-8.515-21.086-13.163-1.092-.873-2.184-1.716-3.244-2.62C4845.822 2136.959 4844.481 2138.363 4843.108 2139.798zM4816.845 2174.826c10.886 7.517 21.46 16.314 34.717 17.904 11.417 1.373 22.24-2.215 33.344-4.242 6.363-1.154 12.29-1.31 18.029-.655-.437-2.34-.905-4.679-1.404-6.987-.749-.094-1.528-.125-2.277-.125-14.536-.25-28.229 6.176-42.702 6.114-14.504-.094-25.671-8.578-37.025-16.407C4818.591 2171.863 4817.718 2173.329 4816.845 2174.826zM4796.975 2219.275c10.356 6.426 21.554 11.167 33.813 12.914 17.093 2.433 32.876-3.743 49.783-4.617 10.355-.561 20.306 1.217 29.539 4.928-.25-2.184-.531-4.367-.812-6.582-14.348-4.647-29.851-4.897-46.414-2.121-22.333 3.774-40.862 2.932-60.793-8.827-1.029-.593-2.028-1.217-3.025-1.84C4798.316 2215.158 4797.63 2217.185 4796.975 2219.275zM4787.774 2254.928c5.271 1.528 10.355 3.587 15.752 6.55 5.396 2.963 10.761 6.051 16.594 8.048 14.442 4.897 26.232-.842 40.518-3.244 18.56-3.088 34.749 2.901 47.475 14.161.593-2.183 1.123-4.398 1.528-6.675-15.752-12.539-35.59-17.405-57.736-11.822-12.664 3.213-22.989 5.084-35.435-.624-8.079-3.712-15.346-8.983-23.706-12.165-1.154-.437-2.246-.811-3.369-1.123C4788.865 2250.374 4788.335 2252.682 4787.774 2254.928zM4773.737 2303.307c13.225 7.33 27.729 13.787 40.425 13.6 12.227-.156-7.393-11.073 21.148.717 6.582 2.714 13.194 8.703 18.996 12.852 6.8 4.835 13.475 9.919 19.995 15.159 1.091-1.809 2.183-3.618 3.275-5.365-5.084-4.055-10.231-7.985-15.471-11.822-9.233-6.769-19.682-16.189-30.693-19.807-10.793-3.587-21.679 1.903-33.22-1.965-7.549-2.558-15.003-6.02-22.303-9.826C4775.172 2299.064 4774.455 2301.217 4773.737 2303.307zM4779.165 2341.361c7.268 11.822 17.904 19.589 31.878 21.304 12.071 1.529 24.423-1.528 36.37 1.217 4.928 1.123 9.482 2.963 13.631 5.427.936-1.903 1.903-3.743 2.87-5.552-5.833-3.4-12.29-5.708-19.277-6.675-22.801-3.182-45.603 4.71-60.107-18.871C4782.44 2334.811 4777.043 2337.93 4779.165 2341.361zM4759.544 2378.979c17.094-.998 23.831 22.146 42.078 21.71 9.077-.187 17.687-3.743 26.888-3.868 6.831-.094 13.475.936 19.869 2.839.53-1.934 1.154-3.868 1.84-5.833-11.292-3.275-22.989-3.961-35.247-1.903-7.642 1.31-17 3.556-24.548.063-5.022-2.308-8.733-8.921-12.851-12.57-5.646-4.991-10.449-7.112-18.029-6.675C4755.552 2372.959 4755.521 2379.197 4759.544 2378.979zM4767.468 2430.664c16.688.125 30.599 16.002 47.755 12.82 4.741-.905 7.081-3.4 10.979-5.677 6.426-3.712 12.259-4.086 18.092-3.026-.125-2.339-.156-4.71-.125-7.081-6.457-1.466-12.789-1.341-19.37 2.776-15.939 9.95-22.334 5.49-37.244-1.123-6.644-2.963-12.789-4.866-20.087-4.928C4763.444 2424.363 4763.444 2430.602 4767.468 2430.664zM4788.928 2470.777c1.685 1.903 3.306 3.681 4.897 5.334 10.761-6.27 18.403-15.253 33.438-15.44 7.174-.094 14.536.842 21.834 2.339-.686-2.308-1.279-4.648-1.809-6.987-15.939-2.994-32.159-2.87-45.26 5.552C4797.193 2464.663 4793.451 2468.157 4788.928 2470.777zM4814.256 2503.435c1.279 3.306 2.371 7.018 3.244 11.354 8.329 5.927 16.75 12.851 27.043 14.348 11.198 1.622 20.244-6.956 29.196-12.945-1.154-1.871-2.277-3.743-3.4-5.615-1.466 1.092-2.932 2.308-4.461 3.556C4841.83 2534.128 4831.786 2513.729 4814.256 2503.435zM4815.378 2577.173c.53.156 1.061.281 1.591.406 15.69 3.587 27.013-.842 39.958-9.607 12.04-8.141 20.93-11.666 36.183-9.046 3.525.593 6.769 1.154 9.981 1.435-1.185-2.152-2.526-4.305-4.024-6.395-10.979-1.372-21.554-4.554-32.876.874-18.185 8.734-28.104 21.304-49.626 16.126C4816.19 2573.025 4815.784 2575.115 4815.378 2577.173zM4807.955 2611.204c8.016-.187 16.126 2.963 23.831 4.585 12.383 2.62 21.492.842 32.346-5.396 11.323-6.519 21.242-10.761 34.873-8.235 4.46.811 8.827 2.152 13.069 3.805.187-2.183.281-4.367.312-6.55-7.268-2.62-14.816-4.46-22.552-4.46-15.346-.031-25.141 10.075-39.052 14.317-14.411 4.367-27.324-4.304-41.486-4.367C4808.859 2607.024 4808.392 2609.114 4807.955 2611.204zM4803.463 2646.638c.998.374 1.996.811 2.995 1.31 10.387 5.271 17 14.629 28.416 18.435 21.46 7.143 39.958-1.217 59.358-7.424 6.675-2.121 13.444-3.993 20.494-4.866 3.93-.499 3.993-6.738 0-6.239-5.49.686-10.917 2.028-16.313 3.618-23.113 6.894-45.416 18.653-69.434 5.459-9.264-5.084-15.44-13.444-25.39-16.875C4803.463 2642.302 4803.401 2644.517 4803.463 2646.638z"/><g><path fill="#2e7a50" d="M4886.153,2642.833c12.62,46.767,73.863,21.616,73.863,21.616s44.043-19.339,43.107-62.915
							c-0.031-2.027-0.156-4.149-0.437-6.301c-0.749-6.675-2.589-13.88-5.74-21.647c-4.741-11.635-8.234-24.736-10.574-38.616
							c-0.343-2.028-0.655-4.055-0.936-6.114c-0.967-6.925-1.653-13.974-2.059-21.149c-0.156-2.433-0.25-4.897-0.312-7.33
							c-0.312-9.514-0.125-19.152,0.53-28.697c0.187-2.433,0.375-4.866,0.624-7.268c1.373-14.692,3.899-29.102,7.517-42.609
							c0.749-2.745,1.498-5.427,2.339-8.079c2.152-6.956,4.617-13.6,7.362-19.838c0.936-2.152,1.934-4.242,2.963-6.27
							c5.178-10.449,11.26-19.589,18.279-26.919c0.936-0.998,1.84-1.996,2.713-3.088c1.373-1.591,2.683-3.306,3.93-5.084
							c5.583-7.985,10.2-17.623,13.943-28.166c0.811-2.183,1.56-4.429,2.277-6.675c3.275-10.387,5.833-21.46,7.829-32.565
							c0.374-1.996,0.717-4.024,1.061-6.051c1.685-10.48,2.932-20.899,3.805-30.631c0.156-1.84,0.312-3.618,0.437-5.396
							c2.246-28.26,1.591-49.783,1.591-49.783s-15.503,4.211-35.403,16.001c-1.934,1.154-3.93,2.371-5.958,3.681
							c-10.2,6.519-21.211,15.003-31.691,25.827c-1.934,1.965-3.836,4.024-5.708,6.145c-10.605,12.041-20.4,26.669-27.948,44.293
							c-1.279,2.995-2.526,6.082-3.649,9.264c-1.622,4.46-3.088,9.108-4.398,13.911c-3.275,12.072-5.833,23.613-7.829,34.624
							c-0.406,2.277-0.78,4.523-1.154,6.737c-1.466,8.983-2.527,17.593-3.307,25.921c-0.218,2.277-0.405,4.554-0.562,6.769
							c-0.749,9.95-1.06,19.401-1.06,28.478c-0.031,2.277,0,4.554,0.062,6.8c0.218,16.906,1.435,32.377,2.683,46.726
							c0.218,2.62,0.467,5.209,0.686,7.736c1.186,13.225,2.277,25.546,2.496,37.212c0.031,1.528,0.063,3.026,0.063,4.523
							c0,0.967-0.031,1.965-0.093,2.932c-0.468,9.576-3.307,19.464-7.455,29.321c-0.936,2.246-1.965,4.523-3.057,6.769
							c-1.528,3.244-3.182,6.488-4.959,9.67c-0.967,1.84-1.996,3.649-3.026,5.49c-6.176,10.699-12.976,20.992-18.933,30.319
							c-1.404,2.183-2.776,4.335-4.086,6.394C4886.185,2624.585,4883.953,2634.676,4886.153,2642.833z"/><path fill="#48a06e" d="M5018.907 2212.943c2.059 11.541 9.42 22.396 18.715 29.82 7.704 6.176 14.317 7.112 20.618 5.677.156-1.84.312-3.618.437-5.396-1.404.281-2.808.437-4.242.406-15.128-.312-27.824-18.341-29.57-34.187C5022.931 2210.417 5020.935 2211.633 5018.907 2212.943zM4981.508 2244.915c1.778 16.969 17.468 33.313 31.629 41.205 13.787 7.642 26.918 2.371 40.238-.998.374-1.996.717-4.024 1.061-6.051-4.772 1.248-9.576 2.776-14.66 3.899-22.053 4.897-53.214-18.403-52.153-42.483.031-.686-.125-1.279-.406-1.716C4985.282 2240.735 4983.379 2242.794 4981.508 2244.915zM4949.91 2298.472c5.739 14.005 19.246 25.64 32.533 31.161 9.701 4.024 20.494 5.49 30.943 4.304 8.204-.936 19.558-7.268 29.882-9.576.811-2.183 1.56-4.429 2.277-6.675-7.83 1.684-15.908 6.145-23.737 8.266-25.203 6.862-64.568-7.517-68.249-36.744C4952.281 2292.202 4951.033 2295.29 4949.91 2298.472zM4935.375 2350.75c.343 1.06.718 2.058 1.154 2.994 13.787 31.411 67.5-1.871 88.866 3.868 1.373-1.591 2.683-3.306 3.93-5.084-3.93-1.403-8.546-1.56-13.475-1.029-18.653 2.027-66.096 23.706-74.456-2.402-.593-1.809-2.246-2.402-3.712-2.09C4936.061 2347.319 4934.72 2348.722 4935.375 2350.75zM4931.601 2414.912c-.031 2.277 0 4.554.062 6.8 7.861 3.15 16.22 5.053 25.016 5.677 9.327.624 19.027-.374 28.011-3.025 2.402-.718 4.741-1.591 7.049-2.558.749-2.745 1.498-5.427 2.339-8.079-6.426 2.807-12.913 5.49-19.963 6.644C4959.548 2422.741 4944.857 2420.683 4931.601 2414.912zM4934.346 2468.438c.218 2.62.467 5.209.686 7.736 8.235 4.523 17.25 6.551 26.888 4.928 7.643-1.279 14.629-5.802 21.679-9.42.187-2.433.375-4.866.624-7.268-.281.125-.562.249-.842.405C4966.442 2473.304 4952.25 2480.322 4934.346 2468.438zM4937.496 2520.84c14.348 7.549 31.504-2.527 45.883-13.132-.156-2.433-.25-4.897-.312-7.33-14.317 10.948-32.564 22.802-45.541 13.007.031 1.528.063 3.026.063 4.523C4937.589 2518.875 4937.558 2519.874 4937.496 2520.84zM4926.984 2556.93c6.332.655 12.758-.25 19.277-2.87 12.945-5.178 25.983-17.655 40.113-19.09-.343-2.028-.655-4.055-.936-6.114-18.902 2.277-35.809 20.4-55.397 21.304C4929.105 2552.407 4928.076 2554.684 4926.984 2556.93zM4918.999 2572.089c16.095 10.512 33.22 19.713 51.28 26.108 8.234 2.932 22.739 6.8 32.845 3.338-.031-2.027-.156-4.149-.437-6.301-12.477 7.767-42.141-7.486-51.592-12.072-10.044-4.928-19.713-10.48-29.071-16.563C4921.058 2568.44 4920.028 2570.249 4918.999 2572.089zM4895.979 2608.802c8.328 8.016 17.437 15.222 26.919 17.187 6.301 1.341 11.791-.094 17.592-2.589 15.035-6.457 25.827-11.916 41.018-1.279 3.307 2.308 6.426-3.088 3.15-5.365-11.51-8.079-24.049-9.358-36.963-3.805-6.27 2.651-12.414 7.58-19.588 7.424-8.609-.156-15.097-6.488-21.055-11.697-2.339-2.059-4.679-4.149-6.987-6.27C4898.662 2604.591 4897.289 2606.743 4895.979 2608.802zM4932.661 2386.434c9.514 5.958 17.936 12.664 30.288 12.757 13.163.094 25.671-4.991 38.492-5.303.936-2.152 1.934-4.242 2.963-6.27-8.172-.25-16.22 1.466-24.673 3.088-11.042 2.121-21.647 3.836-32.128-1.653-5.146-2.682-9.545-6.301-14.38-9.389C4933.004 2381.942 4932.817 2384.219 4932.661 2386.434z"/></g><g><path fill="#2e7a50" d="M4564.438,2356.957c-0.094,12.945,1.373,23.893,4.242,33.469
							c0.655,2.308,1.435,4.523,2.277,6.675c5.209,13.381,13.412,24.049,23.986,34.062c1.497,1.466,3.088,2.901,4.679,4.304
							c4.741,4.18,9.857,8.297,15.378,12.477c1.778,1.372,3.587,2.745,5.458,4.148c4.585,3.431,9.389,6.956,14.38,10.636
							c5.115,3.806,9.856,7.268,14.223,10.543c1.997,1.466,3.899,2.901,5.74,4.304c8.671,6.675,15.752,12.633,21.709,19.183
							c1.435,1.56,2.807,3.15,4.117,4.803c8.172,10.324,14.005,22.583,18.872,40.862c0.53,1.965,1.061,4.024,1.56,6.145
							c1.497,6.238,2.901,13.101,4.273,20.774c0.25,1.372,0.5,2.807,0.749,4.242c0.125,0.718,0.25,1.435,0.405,2.152
							c1.123,5.989,2.651,11.635,4.46,16.906c0.842,2.495,1.778,4.897,2.776,7.205c4.71,11.229,10.792,20.712,17.343,28.635
							c2.683,3.212,5.396,6.207,8.172,8.921c7.268,7.174,14.66,12.695,21.117,16.844c2.932,1.84,5.677,3.431,8.11,4.741
							c7.081,3.837,11.822,5.459,11.822,5.459c23.862-7.174,37.867-21.335,43.856-39.115c1.092-3.338,1.934-6.8,2.496-10.356
							c1.56-9.638,1.123-20.057-1.061-30.818c-1.061-5.334-2.589-10.761-4.523-16.22c-3.057-8.765-7.143-17.561-12.165-26.201
							c-1.217-2.09-2.464-4.18-3.805-6.239c-4.991-7.892-10.762-15.565-17.187-22.926c-1.716-1.996-3.525-3.993-5.396-5.927
							c-6.863-7.268-14.349-14.099-22.427-20.306c-2.527-1.965-5.084-3.868-7.705-5.677c-4.211-2.932-8.578-5.708-13.039-8.297
							c-5.708-3.306-10.387-6.02-14.286-8.422c-2.184-1.341-4.086-2.558-5.802-3.743c-10.013-6.925-12.57-11.76-14.879-23.238
							c-0.437-2.027-0.842-4.273-1.279-6.769c-1.466-8.235-3.275-19.277-6.894-34.904c-0.499-2.184-1.029-4.304-1.591-6.363
							c-0.53-1.997-1.091-3.93-1.653-5.771c-4.897-15.814-11.167-26.575-19.089-34.093c-1.715-1.622-3.462-3.057-5.334-4.398
							c-6.8-4.897-14.66-8.016-23.768-10.262c-2.838-0.718-5.771-1.342-8.858-1.872c-9.607-1.747-20.4-2.901-32.502-4.304
							c-0.437-0.063-0.873-0.094-1.31-0.156c-2.402-0.312-4.647-0.718-6.737-1.185c-41.299-8.983-26.046-42.515-30.444,18.403
							c-0.125,1.84-0.218,3.65-0.312,5.396C4564.5,2352.84,4564.469,2354.929,4564.438,2356.957z"/><path fill="#48a06e" d="M4564.438 2356.957c5.989-.811 12.04-2.433 18.06-4.429 6.145-2.027 8.11-3.119 11.604-8.297 2.184-3.244 2.589-8.515 4.71-11.916.936-1.528 2.027-2.963 3.275-4.242-2.402-.312-4.647-.718-6.737-1.185-1.404 1.84-2.714 3.868-3.93 6.051-4.897 8.734-7.705 13.132-17.904 15.815-3.026.811-5.989 1.466-8.921 1.934C4564.5 2352.84 4564.469 2354.929 4564.438 2356.957zM4568.68 2390.426c.655 2.308 1.435 4.523 2.277 6.675 14.036-5.147 28.104-10.637 40.362-17.998 6.176-3.712 9.607-7.548 12.134-14.286 1.996-5.396-.655-8.266 2.776-15.128 3.681-7.455 11.073-11.884 18.528-15.284-2.838-.718-5.771-1.342-8.858-1.872-8.36 5.396-13.6 12.071-18.061 23.768-4.024 10.543-7.736 16.75-17.936 21.273-6.644 2.932-13.444 5.552-20.181 8.328C4576.042 2387.401 4572.361 2388.929 4568.68 2390.426zM4594.944 2431.163c1.497 1.466 3.088 2.901 4.679 4.304 3.743-2.558 7.112-5.739 10.013-9.545 4.46-5.864 6.27-13.225 11.448-18.528 7.673-7.798 15.908-4.897 25.266-7.455 9.544-2.62 13.912-9.389 12.477-19.214-.53-3.65-2.651-6.956-3.182-10.512-1.435-9.794 4.211-16.095 12.727-19.433 2.09-.811 3.836-1.217 5.49-1.716-1.715-1.622-3.462-3.057-5.334-4.398-7.268 1.591-15.596-.094-19.932 8.422-1.996 3.868-1.528 8.328-.78 12.414.687 3.525 2.963 6.987 3.369 10.48.874 7.33-2.651 15.877-9.919 18.341-10.699 3.618-18.871.063-26.701 10.325-4.834 6.332-6.581 14.161-12.102 20.212C4600.184 2427.358 4597.658 2429.448 4594.944 2431.163zM4615 2447.945c1.778 1.372 3.587 2.745 5.458 4.148.53-.499.842-1.217.78-2.183-.842-12.758 24.829-9.046 32.721-11.978 4.554-1.715 8.921-4.585 12.352-8.079 12.258-12.477 10.605-36.963 28.291-40.924-.53-1.997-1.091-3.93-1.653-5.771-12.102 3.119-18.434 13.849-23.362 27.355-4.835 13.163-11.947 21.491-26.233 22.957-5.677.562-11.978-.78-17.499.998C4618.962 2436.684 4615.219 2441.394 4615 2447.945zM4649.062 2473.272c1.997 1.466 3.899 2.901 5.74 4.304 3.712-1.684 7.236-3.961 10.574-6.738 14.598-12.134 23.488-26.482 38.99-33.875-.437-2.027-.842-4.273-1.279-6.769-6.488 2.495-12.539 6.083-18.06 10.98C4673.735 2451.157 4663.691 2468.469 4649.062 2473.272zM4676.511 2496.76c1.435 1.56 2.807 3.15 4.117 4.803 6.333-8.952 18.497-12.134 27.449-18.466 6.238-4.429 10.886-13.943 16.969-19.152-2.184-1.341-4.086-2.558-5.802-3.743-4.492 5.302-8.017 12.695-14.317 17.499C4695.32 2485.001 4683.686 2488.057 4676.511 2496.76zM4699.5 2542.425c.53 1.965 1.061 4.024 1.56 6.145 8.079-3.088 15.159-8.578 20.212-16.189 5.833-8.796 4.928-17.624 7.86-27.23 4.46-14.723 17.53-18.373 30.943-18.809-2.527-1.965-5.084-3.868-7.705-5.677-10.855 1.342-20.961 5.427-26.607 15.877-5.271 9.732-2.932 21.273-8.765 31.005C4712.819 2534.534 4706.612 2539.556 4699.5 2542.425zM4705.333 2569.344c.25 1.372.5 2.807.749 4.242.125.718.25 1.435.405 2.152 15.097-3.494 27.013-21.585 40.799-27.948 8.453-3.93 17.779-5.802 24.767-12.384 6.176-5.833 9.981-16.376 15.846-22.833-1.716-1.996-3.525-3.993-5.396-5.927-3.463 4.648-5.428 10.699-8.329 15.471-9.108 15.003-24.61 16.032-38.304 24.579C4726.637 2552.469 4716.718 2566.319 4705.333 2569.344zM4710.947 2592.645c.842 2.495 1.778 4.897 2.776 7.205 8.297-9.108 16.594-11.198 29.757-9.919 33.531 3.275 52.184-21.429 65.41-48.192-1.217-2.09-2.464-4.18-3.805-6.239-5.833 12.851-12.446 25.702-22.864 35.341-8.422 7.798-19.058 13.319-30.755 13.506-7.954.125-15.752-2.495-23.706-1.435C4720.149 2583.911 4715.314 2587.529 4710.947 2592.645zM4731.066 2628.485c2.683 3.212 5.396 6.207 8.172 8.921 19.776 3.525 40.394-4.429 56.801-17.218 3.494-2.745 6.083-5.521 8.858-8.952 4.273-5.365 11.167-9.451 15.222-14.598 2.713-3.462 4.398-7.798 5.458-12.477-1.061-5.334-2.589-10.761-4.523-16.22-.063 5.084-.406 10.325-1.997 14.723-2.152 5.989-6.831 9.513-11.167 13.631-4.617 4.367-6.519 9.295-10.574 14.224C4782.284 2628.796 4753.119 2637 4731.066 2628.485zM4760.355 2654.249c2.932 1.84 5.677 3.431 8.11 4.741 9.014-1.279 18.216-1.341 26.669-5.115 9.42-4.211 15.222-12.321 21.398-20.243 2.308-2.932 4.866-5.677 7.611-8.297 1.092-3.338 1.934-6.8 2.496-10.356-5.49 4.679-10.762 9.482-15.003 14.879-10.169 12.914-17.998 19.713-34.811 21.772C4771.023 2652.346 4765.658 2652.908 4760.355 2654.249z"/></g></g></g></g></svg>