<svg xmlns="http://www.w3.org/2000/svg" xmlns:xlink="http://www.w3.org/1999/xlink" viewBox="0 0 159.96 104.23"><defs><linearGradient id="a" x1="-3883.72" x2="-3883.72" y1="5.86" y2="44.41" gradientTransform="matrix(-1 0 0 1 -3855.13 0)" gradientUnits="userSpaceOnUse"><stop offset="0" stop-color="#fffa68"/><stop offset="1"/></linearGradient><linearGradient id="b" x1="-3935.11" x2="-3935.11" y1="5.86" y2="44.41" xlink:href="#a"/><linearGradient id="c" x1="-3986.5" x2="-3986.5" y1="5.86" y2="44.41" xlink:href="#a"/></defs><g data-name="1"><path fill="#ffe9c1" d="M0 0h159.96v104.23H0z"/><path fill="#fadbcc" d="M0 95.18h159.96v1.5H0z"/><path fill="#e6c4b6" d="M0 94.53h159.96v.65H0z"/><path fill="#fff" d="M0 94.08h159.96v.45H0z"/><path fill="#bd937d" d="M0 96.68h159.96v7.56H0z"/><path fill="#d3a186" d="m160 97.66-1.32.83-2.41-1.49.61-.39h-.52l-.36.22-.35-.22h-.53l.62.39-2.37 1.5L151 97l.62-.39H151l-.36.22h-.05l-.35-.22h-.53l.62.39-2.33 1.49-2.37-1.49.62-.39h-.53l-.36.22h-.05l-.31-.23h-.52l.61.39-2.37 1.5-2.41-1.49.62-.39h-.53l-.36.22-.35-.22h-.52l.61.39-2.37 1.5L135 97l.62-.39h-.53l-.35.22h-.06l-.34-.22h-.53l.61.39-2.42 1.49-2.33-1.49.62-.39h-.53l-.35.22h-.06l-.35-.23h-.53l.61.39-2.37 1.5-2.36-1.49.62-.39h-.53l-.35.22H124l-.34-.22h-.53l.61.39-2.37 1.5L119 97l.62-.39h-.53l-.35.22-.35-.22h-.53l.61.39-2.37 1.5-2.39-1.5.62-.39h-.53l-.35.22-.35-.22h-.53l.62.39-2.38 1.5-2.42-1.5.62-.39h-.53l-.35.22-.35-.22h-.53l.62.39-2.38 1.5-2.42-1.5.62-.39h-.53l-.35.22-.35-.22h-.53l.62.39-2.38 1.5-2.42-1.5.62-.39h-.53l-.35.22-.35-.22h-.53l.62.39-2.38 1.5-2.42-1.5.62-.39h-.53l-.35.22-.35-.22h-.53l.62.39-2.37 1.5-2.43-1.5.62-.39h-.53l-.35.22-.35-.22h-.53l.62.39-2.37 1.5-2.43-1.5.62-.39h-.53l-.35.22-.35-.22h-.58l.62.39-2.37 1.5-2.38-1.5.62-.39h-.53l-.35.22-.35-.22h-.53l.62.39-2.37 1.5-2.42-1.5.61-.39h-.53l-.35.22-.35-.22H70l.62.39-2.37 1.5-2.41-1.5.61-.39h-.53l-.35.22-.35-.22h-.53l.62.39-2.37 1.5-2.42-1.5.61-.39h-.53l-.35.22-.35-.22h-.53l.62.39-2.37 1.5L55.2 97l.61-.39h-.53l-.35.22-.35-.22H54l.62.39-2.37 1.5-2.37-1.5.61-.39H50l-.36.22-.35-.22h-.53l.62.39-2.37 1.5-2.45-1.5.61-.39h-.52l-.36.22-.35-.22h-.53L44 97l-2.37 1.5-2.39-1.5.62-.39h-.53l-.36.22-.35-.22h-.52l.61.39-2.37 1.5-2.42-1.5.62-.39H34l-.36.22-.35-.22h-.52l.61.39L31 98.49 28.6 97l.62-.39h-.53l-.36.22-.35-.22h-.52L28 97l-2.37 1.5-2.35-1.5.62-.39h-.53l-.35.22H23l-.34-.22h-.53l.61.39-2.37 1.5L18 97l.62-.39h-.53l-.35.22h-.06l-.34-.22h-.53l.61.39L15 98.49 12.64 97l.62-.39h-.53l-.35.22h-.06L12 96.6h-.53l.61.39-2.37 1.5L7.32 97l.62-.39h-.53l-.35.22H7l-.35-.22h-.52l.61.39-2.37 1.5L2 97l.62-.39h-.53l-.35.22h-.05l-.35-.22H.81l.62.39-1.43.89v.34l1.69-1.07 2.37 1.5-2.37 1.51L0 99.09v.34l1.43.9-1.43.91v.33l1.69-1.07h.05l2.37 1.5-2.37 1.5h-.05L0 102.44v.33l1.43.91-.27.17-.49.31h.53l.49-.31h.05l.49.31h.53l-.49-.31-.27-.17 2.37-1.51 2.37 1.51-.26.17-.49.31h.53l.49-.31.49.31h.53l-.49-.31-.27-.17 2.37-1.51 2.37 1.51-.26.17-.49.31h.53l.48-.31h.06l.49.31h.53l-.49-.31-.27-.17 2.41-1.51 2.37 1.51-.26.17-.49.31h.53l.48-.31h.06l.49.31h.53l-.49-.31-.27-.17 2.37-1.51 2.37 1.51-.27.17-.48.31h.53l.48-.31H23l.49.31H24l-.48-.31-.27-.17 2.37-1.51 2.38 1.51-.27.17-.48.31h.53l.48-.31h.06l.49.31h.52l-.48-.31-.27-.17 2.42-1.51 2.37 1.51-.27.17-.48.31h.53l.48-.31h.06l.49.31h.52l-.48-.31-.27-.17 2.37-1.51 2.37 1.51-.27.17-.48.31h.53l.48-.31H39l.48.31H40l-.48-.31-.27-.17 2.37-1.51 2.38 1.51-.27.17-.48.31h.52l.49-.31h.06l.48.31h.53l-.48-.31-.27-.17 2.37-1.51 2.37 1.51-.27.17-.48.31h.52l.49-.31h.06l.48.31h.53l-.48-.31-.27-.17 2.37-1.51 2.37 1.51-.27.17-.49.31h.53l.49-.31h.06l.48.31H56l-.49-.31-.26-.17 2.37-1.51 2.37 1.51-.27.17-.49.31h.53l.49-.31h.06l.48.31h.53l-.49-.31-.26-.17 2.37-1.51 2.37 1.51-.27.17-.49.31H65l.49-.31h.06l.48.31h.53l-.49-.31-.26-.17 2.37-1.51 2.37 1.51-.27.17-.49.31h.53l.49-.31.49.31h.53l-.49-.31-.26-.17 2.37-1.51 2.37 1.51-.27.17-.49.31h.53l.49-.31.49.31h.53l-.49-.31-.27-.17 2.38-1.51 2.37 1.51-.27.17-.49.31H81l.49-.31.49.31h.53l-.49-.31-.27-.17 2.38-1.51 2.37 1.51-.27.17-.49.31h.53l.49-.31.49.31h.53l-.49-.31-.27-.17 2.38-1.51 2.37 1.51-.27.17-.49.31h.53l.49-.31.49.31h.53l-.49-.31-.27-.17 2.38-1.51 2.37 1.51-.27.17-.49.31H97l.49-.31.49.31h.53l-.49-.31-.27-.17 2.37-1.51 2.38 1.51-.27.17-.49.31h.53l.49-.31.49.31h.53l-.49-.31-.27-.17 2.37-1.51 2.38 1.51-.27.17-.49.31h.53l.49-.31.49.31h.53l-.49-.31-.27-.17 2.37-1.51 2.38 1.51-.27.17-.49.31h.53l.49-.31.49.31h.53l-.49-.31-.27-.17 2.37-1.51 2.37 1.51-.26.17-.49.31h.53l.49-.31.49.31h.53l-.49-.31-.27-.17 2.37-1.51 2.37 1.51-.26.17-.49.31h.53l.48-.31h.06l.49.31h.53l-.49-.31-.27-.17 2.37-1.51 2.37 1.51-.26.17-.49.31h.53l.48-.31h.06l.49.31h.53l-.49-.31-.27-.17 2.37-1.51 2.37 1.51-.27.17-.48.31h.53l.48-.31h.06l.49.31h.52l-.48-.31-.27-.17 2.37-1.51 2.37 1.51-.27.17-.48.31h.53l.48-.31h.06l.49.31h.52l-.48-.31-.27-.17 2.37-1.51 2.37 1.51-.27.17-.48.31h.53l.48-.31h.06l.49.31h.52l-.48-.31-.27-.17 2.37-1.51 2.37 1.51-.27.17-.48.31h.53l.48-.31h.06l.48.31h.53l-.48-.31-.27-.17 2.37-1.51 2.37 1.51-.27.17-.48.31h.52l.49-.31h.25l.48.31h.52l-.48-.31-.27-.17 2.37-1.51 1.38.83v-.34l-1.1-.66 1.06-.67V101l-1.32.84-2.37-1.51 2.37-1.5 1.32.84v-.34l-1.06-.67L160 98Zm-9.33-.5 2.38 1.5-2.38 1.51h-.05l-2.37-1.5Zm-5.32 0 2.38 1.5-2.38 1.51h-.05l-2.3-1.51Zm-5.32 0 2.38 1.5-2.41 1.51-2.36-1.5Zm-5.32 0 2.37 1.5-2.37 1.51h-.06l-2.36-1.5Zm-5.32 0 2.37 1.5-2.37 1.51h-.06L127 98.66Zm-5.32 0 2.37 1.5-2.37 1.51H124l-2.36-1.5Zm-5.31 0 2.37 1.5-2.37 1.51-2.37-1.5Zm-5.32 0 2.37 1.5-2.37 1.51-2.44-1.51Zm-5.32 0 2.37 1.5-2.37 1.51-2.37-1.5Zm-5.32 0 2.37 1.5-2.37 1.51-2.37-1.5Zm-5.32 0 2.37 1.5-2.37 1.51-2.37-1.5Zm-5.32 0 2.37 1.5-2.37 1.51-2.37-1.5Zm-5.32 0 2.37 1.5-2.37 1.51-2.37-1.5Zm-5.32 0 2.37 1.5-2.37 1.51-2.37-1.5Zm-5.32 0 2.37 1.5-2.37 1.51-2.37-1.5Zm-5.32 0 2.37 1.5-2.37 1.51-2.37-1.5Zm-5.32 0 2.37 1.5-2.37 1.51-2.37-1.5Zm-5.32 0 2.37 1.5-2.37 1.51-2.37-1.5Zm-5.32 0 2.37 1.5-2.37 1.51-2.37-1.5Zm-5.32 0 2.4 1.5-2.37 1.51-2.37-1.5Zm-5.32 0 2.37 1.5-2.37 1.51-2.37-1.5Zm-5.32 0 2.38 1.5-2.34 1.51-2.37-1.5Zm-5.32 0 2.36 1.5-2.38 1.51-2.36-1.5Zm-5.32 0 2.38 1.5-2.38 1.51-2.36-1.5Zm-5.32 0 2.37 1.5-2.37 1.51-2.36-1.5Zm-5.32 0 2.37 1.5-2.37 1.51h-.06l-2.36-1.5Zm-5.32 0 2.37 1.5-2.37 1.51h-.06L10 98.66Zm-5.36 0 2.37 1.5L7 100.17l-2.37-1.5Zm-2.64 4.68L2 100.33l2.37-1.5 2.37 1.5Zm2.69 1.67H7L4.64 102 7 100.5l2.43 1.5Zm2.63-1.67-2.37-1.51 2.37-1.5 2.37 1.5Zm2.69 1.67h-.06L10 102l2.36-1.51h.06l2.33 1.51Zm2.63-1.67-2.37-1.51 2.37-1.5 2.37 1.5Zm2.69 1.67h-.06L15.28 102l2.36-1.51h.06l2.37 1.51Zm2.63-1.67L18 100.33l2.37-1.5 2.37 1.5Zm2.68 1.67L20.6 102l2.4-1.5 2.39 1.5Zm2.63-1.67-2.37-1.51 2.37-1.5 2.37 1.5Zm2.68 1.67L25.92 102l2.36-1.51 2.43 1.51Zm2.69-1.67-2.37-1.51 2.37-1.5 2.37 1.5Zm2.68 1.67L31.24 102l2.36-1.51L36 102Zm2.64-1.67-2.37-1.51 2.37-1.5 2.37 1.5Zm2.68 1.67L36.55 102l2.37-1.51 2.43 1.51Zm2.64-1.67-2.37-1.51 2.37-1.5 2.37 1.5Zm2.68 1.67L41.87 102l2.37-1.51 2.42 1.51Zm2.64-1.67-2.37-1.51 2.37-1.5 2.37 1.5Zm2.68 1.67L47.19 102l2.37-1.51L52 102Zm2.64-1.67-2.37-1.51 2.37-1.5 2.37 1.5Zm2.68 1.67L52.51 102l2.37-1.51L57.3 102Zm2.64-1.67-2.37-1.51 2.37-1.5 2.37 1.5Zm2.68 1.67L57.83 102l2.37-1.51 2.42 1.51Zm2.64-1.67-2.37-1.51 2.37-1.5 2.37 1.5Zm2.68 1.67L63.15 102l2.37-1.51 2.42 1.51Zm2.64-1.67-2.37-1.51 2.37-1.5 2.37 1.5Zm2.68 1.67L68.47 102l2.37-1.51 2.42 1.51Zm2.64-1.67-2.37-1.51 2.37-1.5 2.37 1.5Zm2.68 1.67L73.79 102l2.37-1.51 2.42 1.51Zm2.64-1.67-2.38-1.51 2.38-1.5 2.37 1.5Zm2.68 1.67L79.11 102l2.37-1.51L83.9 102Zm2.64-1.67-2.38-1.51 2.38-1.5 2.37 1.5Zm2.68 1.67L84.43 102l2.37-1.51 2.42 1.51Zm2.64-1.67-2.38-1.51 2.38-1.5 2.37 1.5Zm2.68 1.67L89.75 102l2.37-1.51 2.42 1.51Zm2.63-1.67-2.37-1.51 2.38-1.5 2.37 1.5Zm2.69 1.67L95.07 102l2.37-1.51 2.42 1.51Zm2.63-1.67-2.37-1.51 2.37-1.5 2.38 1.5Zm2.69 1.67-2.37-1.5 2.37-1.51 2.37 1.51Zm2.63-1.67-2.37-1.51 2.37-1.5 2.38 1.5Zm2.69 1.67-2.37-1.5 2.37-1.51 2.34 1.5Zm2.63-1.67-2.37-1.51 2.37-1.5 2.38 1.5Zm2.69 1.67L111 102l2.37-1.51 2.37 1.51Zm2.63-1.67-2.37-1.51 2.37-1.5 2.37 1.5Zm2.69 1.67-2.37-1.5 2.37-1.51 2.37 1.51Zm2.63-1.67-2.43-1.51 2.37-1.5 2.37 1.5Zm2.69 1.67H124l-2.36-1.5 2.36-1.51h.06l2.37 1.51Zm2.63-1.67-2.37-1.51 2.37-1.5 2.37 1.5Zm2.69 1.67h-.06L127 102l2.36-1.51h.06l2.37 1.51Zm2.63-1.67-2.37-1.51 2.37-1.5 2.37 1.5Zm2.69 1.67h-.06l-2.36-1.5 2.36-1.51h.06l2.34 1.5Zm2.63-1.67-2.39-1.51 2.37-1.5 2.37 1.5Zm2.68 1.67-2.36-1.5 2.29-1.51 2.38 1.51Zm2.64-1.67-2.37-1.51 2.37-1.5 2.37 1.5Zm2.68 1.67h-.05L143 102l2.36-1.51h.05l2.38 1.51Zm2.64-1.67-2.37-1.51 2.37-1.5 2.37 1.5Zm2.68 1.67h-.05l-2.37-1.5 2.37-1.51h.05l2.38 1.51Zm2.64-1.67-2.35-1.51 2.37-1.5 2.37 1.5Zm5.05.17-2.37 1.5H156l-2.37-1.5 2.37-1.51Zm-2.4-1.84-2.37-1.5 2.37-1.5 2.37 1.5Z"/><path fill="#fff5cd" d="M0 1.76h159.96v5.57H0zM0 14.86h159.96v5.57H0zM0 27.96h159.96v5.57H0zM0 41.05h159.96v5.57H0zM0 54.15h159.96v5.57H0zM0 67.25h159.96v4.57H0zM0 80.35h159.96v5.57H0z"/><path fill="#ffc768" d="M0 0h159.96v1.76H0z"/><path fill="#b8e2ff" d="M40.87 16.44h77.92v82.08H40.87z"/><path fill="#90ff68" d="m66.77 72.33-9 1.82s-1.91 2.22-3.09.78-.91-4 .79-4.56a2.8 2.8 0 0 1-2.54-3.51c.2-1.11 1.24-3.37 2.36-3.83a1.73 1.73 0 0 1 1.71.25 1.73 1.73 0 0 1 2-.7 2.12 2.12 0 0 1 3.82-1.43 3.19 3.19 0 0 1 .06-1.86 1.38 1.38 0 0 1 1-1 1.71 1.71 0 0 1 .66.12 3.13 3.13 0 0 1 2 1.89 2.14 2.14 0 0 1 2.71.05 3 3 0 0 1 .52 2.93 1.92 1.92 0 0 1 2.16-1.15 3.07 3.07 0 0 1 2 1.61 8.89 8.89 0 0 1 .72 4.41 7.33 7.33 0 0 1-.48 3.09c-1.17 2.54-5.17 1.25-7.4 1.09Z"/><path fill="#62949a" d="M56.79 97.48H40.87V43.33l15.92 10.94v43.21z"/><path fill="#75a8b0" d="M56.79 98.53H40.87V44.37l15.92 10.94v43.22z"/><path fill="#3db2b6" d="m82.84 28.7-11.89 8.21v1.04l11.89-8.2 11.88 8.2v-1.04L82.84 28.7z"/><path fill="#68d6dd" d="m82.84 28.18-11.89 8.21v1.04l11.89-8.2 11.88 8.2v-1.04l-11.88-8.21z"/><path fill="#68d6dd" d="M70.95 37.95v59.53h23.77V37.95l-11.88-8.2-11.89 8.2z"/><path fill="#6eb2ff" d="M74.35 41h1.83v3.4h-1.83z"/><path fill="#fff" d="M76.41 42.18v-1.44h-2.29v3.92h2.29v-2.45Zm-.23-.18h-.82v-1h.82Zm-1.83-1h.82v1h-.82Zm0 1.18h.82v1h-.82Zm0 1.22h.82v1h-.82Zm1.83 1h-.82v-1h.82Zm0-1.18h-.82v-1h.82Z"/><path fill="#6eb2ff" d="M79.4 41h1.83v3.4H79.4z"/><path fill="#fff" d="M81.46 42.18v-1.44h-2.29v3.92h2.29v-2.45Zm-.23-.18h-.82v-1h.82Zm-1.83-1h.82v1h-.82Zm0 1.18h.82v1h-.82Zm0 1.22h.82v1h-.82Zm1.83 1h-.82v-1h.82Zm0-1.18h-.82v-1h.82Z"/><path fill="#6eb2ff" d="M84.45 41h1.83v3.4h-1.83z"/><path fill="#fff" d="M86.5 42.18v-1.44h-2.28v3.92h2.28v-2.45Zm-.22-.18h-.82v-1h.82Zm-1.83-1h.82v1h-.82Zm0 1.18h.82v1h-.82Zm0 1.22h.82v1h-.82Zm1.83 1h-.82v-1h.82Zm0-1.18h-.82v-1h.82Z"/><path fill="#6eb2ff" d="M89.5 41h1.83v3.4H89.5z"/><path fill="#fff" d="M91.55 42.18v-1.44h-2.28v3.92h2.28v-2.45Zm-.22-.18h-.82v-1h.82Zm-1.83-1h.81v1h-.81Zm0 1.18h.81v1h-.81Zm0 1.22h.81v1h-.81Zm1.83 1h-.82v-1h.82Zm0-1.18h-.82v-1h.82Z"/><path fill="#6eb2ff" d="M74.35 47.46h1.83v3.4h-1.83z"/><path fill="#fff" d="M76.41 48.65V47.2h-2.29v3.92h2.29v-2.45Zm-.23-.2h-.82v-1h.82Zm-1.83-1h.82v1h-.82Zm0 1.19h.82v1h-.82Zm0 1.22h.82v1h-.82Zm1.83 1h-.82v-1h.82Zm0-1.19h-.82v-1h.82Z"/><path fill="#6eb2ff" d="M79.4 47.46h1.83v3.4H79.4z"/><path fill="#fff" d="M81.46 48.65V47.2h-2.29v3.92h2.29v-2.45Zm-.23-.2h-.82v-1h.82Zm-1.83-1h.82v1h-.82Zm0 1.19h.82v1h-.82Zm0 1.22h.82v1h-.82Zm1.83 1h-.82v-1h.82Zm0-1.19h-.82v-1h.82Z"/><path fill="#6eb2ff" d="M84.45 47.46h1.83v3.4h-1.83z"/><path fill="#fff" d="M86.5 48.65V47.2h-2.28v3.92h2.28v-2.45Zm-.22-.2h-.82v-1h.82Zm-1.83-1h.82v1h-.82Zm0 1.19h.82v1h-.82Zm0 1.22h.82v1h-.82Zm1.83 1h-.82v-1h.82Zm0-1.19h-.82v-1h.82Z"/><path fill="#6eb2ff" d="M89.5 47.46h1.83v3.4H89.5z"/><path fill="#fff" d="M91.55 48.65V47.2h-2.28v3.92h2.28v-2.45Zm-.22-.2h-.82v-1h.82Zm-1.83-1h.81v1h-.81Zm0 1.19h.81v1h-.81Zm0 1.22h.81v1h-.81Zm1.83 1h-.82v-1h.82Zm0-1.19h-.82v-1h.82Z"/><path fill="#6eb2ff" d="M74.35 53.92h1.83v3.4h-1.83z"/><path fill="#fff" d="M76.41 55.11v-1.45h-2.29v3.92h2.29v-2.44Zm-.23-.2h-.82v-1h.82Zm-1.83-1h.82v1h-.82Zm0 1.19h.82v1h-.82Zm0 1.22h.82v1h-.82Zm1.83 1h-.82v-1h.82Zm0-1.18h-.82v-1h.82Z"/><path fill="#6eb2ff" d="M79.4 53.92h1.83v3.4H79.4z"/><path fill="#fff" d="M81.46 55.11v-1.45h-2.29v3.92h2.29v-2.44Zm-.23-.2h-.82v-1h.82Zm-1.83-1h.82v1h-.82Zm0 1.19h.82v1h-.82Zm0 1.22h.82v1h-.82Zm1.83 1h-.82v-1h.82Zm0-1.18h-.82v-1h.82Z"/><path fill="#6eb2ff" d="M84.45 53.92h1.83v3.4h-1.83z"/><path fill="#fff" d="M86.5 55.11v-1.45h-2.28v3.92h2.28v-2.44Zm-.22-.2h-.82v-1h.82Zm-1.83-1h.82v1h-.82Zm0 1.19h.82v1h-.82Zm0 1.22h.82v1h-.82Zm1.83 1h-.82v-1h.82Zm0-1.18h-.82v-1h.82Z"/><path fill="#6eb2ff" d="M89.5 53.92h1.83v3.4H89.5z"/><path fill="#fff" d="M91.55 55.11v-1.45h-2.28v3.92h2.28v-2.44Zm-.22-.2h-.82v-1h.82Zm-1.83-1h.81v1h-.81Zm0 1.19h.81v1h-.81Zm0 1.22h.81v1h-.81Zm1.83 1h-.82v-1h.82Zm0-1.18h-.82v-1h.82Z"/><path fill="#6eb2ff" d="M74.35 60.39h1.83v3.4h-1.83z"/><path fill="#fff" d="M76.41 61.57v-1.44h-2.29v3.92h2.29V61.6Zm-.23-.19h-.82v-1h.82Zm-1.83-1h.82v1h-.82Zm0 1.18h.82v1h-.82Zm0 1.22h.82v1h-.82Zm1.83 1h-.82v-1h.82Zm0-1.19h-.82v-1h.82Z"/><path fill="#6eb2ff" d="M79.4 60.39h1.83v3.4H79.4z"/><path fill="#fff" d="M81.46 61.57v-1.44h-2.29v3.92h2.29V61.6Zm-.23-.19h-.82v-1h.82Zm-1.83-1h.82v1h-.82Zm0 1.18h.82v1h-.82Zm0 1.22h.82v1h-.82Zm1.83 1h-.82v-1h.82Zm0-1.19h-.82v-1h.82Z"/><path fill="#6eb2ff" d="M84.45 60.39h1.83v3.4h-1.83z"/><path fill="#fff" d="M86.5 61.57v-1.44h-2.28v3.92h2.28V61.6Zm-.22-.19h-.82v-1h.82Zm-1.83-1h.82v1h-.82Zm0 1.18h.82v1h-.82Zm0 1.22h.82v1h-.82Zm1.83 1h-.82v-1h.82Zm0-1.19h-.82v-1h.82Z"/><path fill="#6eb2ff" d="M89.5 60.39h1.83v3.4H89.5z"/><path fill="#fff" d="M91.55 61.57v-1.44h-2.28v3.92h2.28V61.6Zm-.22-.19h-.82v-1h.82Zm-1.83-1h.81v1h-.81Zm0 1.18h.81v1h-.81Zm0 1.22h.81v1h-.81Zm1.83 1h-.82v-1h.82Zm0-1.19h-.82v-1h.82Z"/><path fill="#6eb2ff" d="M74.35 66.85h1.83v3.4h-1.83z"/><path fill="#fff" d="M76.41 68v-1.41h-2.29v3.92h2.29V68Zm-.23-.2h-.82v-1h.82Zm-1.83-1h.82v1h-.82Zm0 1.19h.82v1h-.82Zm0 1.22h.82v1h-.82Zm1.83 1h-.82v-1h.82Zm0-1.19h-.82V68h.82Z"/><path fill="#6eb2ff" d="M79.4 66.85h1.83v3.4H79.4z"/><path fill="#fff" d="M81.46 68v-1.41h-2.29v3.92h2.29V68Zm-.23-.2h-.82v-1h.82Zm-1.83-1h.82v1h-.82Zm0 1.19h.82v1h-.82Zm0 1.22h.82v1h-.82Zm1.83 1h-.82v-1h.82Zm0-1.19h-.82V68h.82Z"/><path fill="#6eb2ff" d="M84.45 66.85h1.83v3.4h-1.83z"/><path fill="#fff" d="M86.5 68v-1.41h-2.28v3.92h2.28V68Zm-.22-.2h-.82v-1h.82Zm-1.83-1h.82v1h-.82Zm0 1.19h.82v1h-.82Zm0 1.22h.82v1h-.82Zm1.83 1h-.82v-1h.82Zm0-1.19h-.82V68h.82Z"/><path fill="#6eb2ff" d="M89.5 66.85h1.83v3.4H89.5z"/><path fill="#fff" d="M91.55 68v-1.41h-2.28v3.92h2.28V68Zm-.22-.2h-.82v-1h.82Zm-1.83-1h.81v1h-.81Zm0 1.19h.81v1h-.81Zm0 1.22h.81v1h-.81Zm1.83 1h-.82v-1h.82Zm0-1.19h-.82V68h.82ZM50.11 28.38A9.33 9.33 0 0 0 54 26.29s1.53-3.29 4.66-3.64 3.65 4.05 3.65 4.05 2.6-1.63 3.82-.41a1.91 1.91 0 0 1 0 2.61s4.69.35 4.86 1.92-24 .52-24.67 0 2.57-2.09 3.79-2.44ZM84.53 23.64a2.22 2.22 0 0 1 1.2-2.14 2.12 2.12 0 0 1 2.38.39c1.33-1.37 2.61-3.11 4.63-3.34s2.73 1.73 3.11 3.35a4.44 4.44 0 0 1 1.33-1 2.09 2.09 0 0 1 2 .11 1.54 1.54 0 0 1 .53 1.88c1.13.11 2.36-1 3.28-.37.73.54.48 1.7.06 2.51a6 6 0 0 1 6.81 1.18 2.76 2.76 0 0 1-2.06.5c-4.19-.13-8.36-.08-12.55-.12-5 0-10-.28-15-.12-.33 0-.77-.05-.85-.39s.21-.56.48-.72a12.19 12.19 0 0 1 4.65-1.72ZM55.05 42c.41-1.77 2.63-1.49 2.63-1.49A2.83 2.83 0 0 1 60.12 38c2.2-.25 2.51 3.12 2.51 3.12s2.5-2.75 3.36-1.88a1.35 1.35 0 0 1 0 1.84s3.31.25 3.44 1.35-15.16 2.98-14.38-.43ZM101 36.47c.92-.67 1.41-.17 2 .15-.8-1-1.35-1.63-.44-2.43 1.39-1.21 2.93.56 2.91 1.1.23-.47.52-1.15 1-1.14 1.42 0 1.09 1.3 1.08 1.52a2.47 2.47 0 0 1 3.29-1 3.27 3.27 0 0 1 1.46 1.64s1.84-.25 1.83 1c0 .31-.68.52-1.13.47a45.13 45.13 0 0 0-8.3-.08 15.49 15.49 0 0 1-2.94.33c-.61-.1-1.71-.87-.76-1.56Z"/><path fill="#1ac441" d="M78.87 71.41a4.53 4.53 0 0 1 .52 0c.74 0 1.45 0 1.89.76.16.29.4 1.84-.28 1.81.75 0 1.13 1 1.07 1.72a6.36 6.36 0 0 0-.07 2.22 1.69 1.69 0 0 1 2.32-1.15 6.62 6.62 0 0 1 .26-2.77 2.77 2.77 0 0 1 1.94-1.79 2.9 2.9 0 0 1 3 2c.43 1.17.15 2.34.34 3.53.12.75.43 1.46.54 2.24.2 1.49.55 3.56-.12 5-.94 2-4.26 2.12-6.08 2.06-2.7-.1-7.09 11.43-7.09 11.43H42.79c.17 0 18.76-20.88 22.51-23a32.17 32.17 0 0 1 5.28-2.4 6.55 6.55 0 0 1 2.57-.65c.28 0 2.19.87 2 1.29a4.63 4.63 0 0 1 3.72-2.3Z"/><path fill="#62949a" d="M53.22 62.38h1.48v2.81h-1.48zM51.35 62.38h1.48v2.81h-1.48zM49.48 62.38h1.48v2.81h-1.48zM47.62 62.38h1.48v2.81h-1.48zM45.75 62.38h1.48v2.81h-1.48zM43.88 62.38h1.48v2.81h-1.48zM53.22 57.32h1.48v2.81h-1.48zM51.35 57.32h1.48v2.81h-1.48zM49.48 57.32h1.48v2.81h-1.48zM47.62 57.32h1.48v2.81h-1.48zM45.75 57.32h1.48v2.81h-1.48zM43.88 57.32h1.48v2.81h-1.48zM53.41 67.45h1.48v2.81h-1.48zM51.54 67.45h1.48v2.81h-1.48zM49.68 67.45h1.48v2.81h-1.48zM47.81 67.45h1.48v2.81h-1.48zM45.94 67.45h1.48v2.81h-1.48zM44.07 67.45h1.48v2.81h-1.48z"/><path fill="#fff" d="M101.18 45.65a8.53 8.53 0 0 0-3.79.23 1.89 1.89 0 0 0-2.67-1v2.86c2.18 0 4.87-.26 5.55-.26a9.8 9.8 0 0 0 3.24-.12c-.18-1.02-1.32-1.54-2.33-1.71Z"/><path fill="#62bf3f" d="M67.2 79.71c.27-1 1.51-1.32 2.5-1.15a6.3 6.3 0 0 1 4.06 3.34 7.86 7.86 0 0 1 1 5.46 4.82 4.82 0 0 1-3.75 3.79c4.22 2.17 3.89 7.38 3.89 7.38h-29s.87-19.84 4.36-20.91a2.8 2.8 0 0 1-2.53-3.52c.27-1.1 1.27-3.37 2.4-3.83a1.71 1.71 0 0 1 1.7.25 1.76 1.76 0 0 1 2-.7 2.13 2.13 0 0 1 3.83-1.43 3.08 3.08 0 0 1 .06-1.85 1.34 1.34 0 0 1 1-1 1.48 1.48 0 0 1 .66.11 3.11 3.11 0 0 1 2 1.89 2.13 2.13 0 0 1 2.71.06 2.94 2.94 0 0 1 .52 2.92 1.93 1.93 0 0 1 2.17-1.15 3.07 3.07 0 0 1 2 1.61c1.45 2.52.08 6.64-1.58 8.73Z"/><path fill="#c5b069" d="M118.79 56.18v-1.39h-.11l-5.86-4.6-5.86 4.6h-.46l-5.87-4.6-5.86 4.6h-.05v1.39h24.07z"/><path fill="#dac171" d="M106.5 55.31H94.77l5.86-4.6 5.87 4.6zM118.68 55.31h-11.72l5.86-4.6 5.86 4.6zM94.72 55.31h24.07v43.21H94.72z"/><path fill="#c5b069" d="M106.36 55.31h.59v21.46h-.59z"/><path fill="#22dd52" d="M40.87 98.53V86.71s.44-6 3.75-4.91c0 0-3-2.34-1.87-3.36s1.87-1 1.87-1-2.32-1.44-.55-2.15a1.22 1.22 0 0 1 1.87 1.1s.36-1.63 1.83-1.34a5.23 5.23 0 0 1 2.58 1.56l-.24 21.92Z"/><path fill="#c5b069" d="M99.7 54.66h1.87v3.91H99.7zM99.12 58.57h-1.87v-2.39l1.87-1.52v3.91zM102.07 58.57h1.87v-2.39l-1.87-1.52v3.91zM99.75 61.31h1.87v3.91h-1.87zM97.29 61.31h1.87v3.91h-1.87zM102.11 61.31h1.87v3.91h-1.87zM111.97 61.31h1.87v3.91h-1.87zM109.52 61.31h1.87v3.91h-1.87zM114.34 61.31h1.87v3.91h-1.87zM99.75 68.3h1.87v3.91h-1.87zM97.29 68.3h1.87v3.91h-1.87zM102.11 68.3h1.87v3.91h-1.87zM111.97 68.3h1.87v3.91h-1.87zM109.52 68.3h1.87v3.91h-1.87zM114.34 68.3h1.87v3.91h-1.87zM111.93 54.66h1.87v3.91h-1.87zM111.34 58.57h-1.86v-2.39l1.86-1.52v3.91zM114.3 58.57h1.87v-2.39l-1.87-1.52v3.91z"/><path fill="#22dd52" d="M72.43 98.53a7.82 7.82 0 0 1 0-10.3c4.43-5.47 12.93-2.41 12.93-2.41s-3.23-4.36-.91-6.19 4.82 0 4.82 0-2.9-5.6-.81-6.51 3.09 3 3.09 3 2-5 5.9-4S99.57 76 99.57 76s1.94-2.09 3.94-.66a3.11 3.11 0 0 1 1.36 3.41s2-6.27 7.95-5.62c0 0-2.85-3.54-1-5.29s4.49.62 4.49.62.21-3.83 2.45-4.4v34.47Z"/><path fill="#55f865" d="M118.79 98.53H88.5s-3.13-5 0-7.58a4.71 4.71 0 0 1 6.13 0s-4.39-5.11-2-6.56 3.65 0 3.65 0a2.86 2.86 0 0 1 1.91-3.1c2.26-.79 3.34 3.1 3.34 3.1s1-5.63 5.85-4.76 3.66 8.67 1.06 9.2c0 0 3.24-2.91 6.79-1.72 2.59.86 3.41 4.16 3.41 4.16ZM50.39 87.11c-.4-1.78-1.84-3.37-3.71-2.35-1.31.72-.19 2.35-.19 2.35a1.8 1.8 0 0 0-2.61 1.12A2 2 0 0 0 45.27 91a3.39 3.39 0 0 0-1.55 1 1.08 1.08 0 0 0 0 1.43s-2.22-.26-2.85.79v4.3h24.68c1.18-.62-1.8-6.57-3.74-7-3.65-.9-6.83 2.65-7.79 2.67a1.27 1.27 0 0 0 1.06-.86 3 3 0 0 0 .09-1.42 4.65 4.65 0 0 0-1.57-3.31 2.25 2.25 0 0 0-3.24.48 4 4 0 0 0 .03-1.97Z"/><path fill="#e9ffff" d="M44.92 77.05h73.87v.78H44.92zM44.92 96.7h73.87v1.56H44.92z"/><path fill="#e9ffff" d="M48.06 98c-2-.13-6.23-11.69-6.27-11.8a.39.39 0 1 1 .73-.27c1.91 5.26 4.64 10.8 5.53 11.26 1.81-3.58.19-8.31-1.12-12.11-1-3-1.87-5.44-.92-6.78a2.72 2.72 0 0 1 2.37-1 4.56 4.56 0 0 1 4.72 4.46 4.43 4.43 0 0 1-4.43 4.64h-.27l-.12-.24c-.2-.45-2-4.42-1-6a1.42 1.42 0 0 1 1.2-.68 2.47 2.47 0 0 1 2.65 2.29 2.18 2.18 0 0 1-2 2.4.39.39 0 0 1-.09-.78 1.39 1.39 0 0 0 1.34-1.56 1.68 1.68 0 0 0-1.83-1.57.63.63 0 0 0-.57.3c-.54.88.27 3.44 1 5a3.61 3.61 0 0 0 3.44-3.81 3.75 3.75 0 0 0-3.94-3.7 2 2 0 0 0-1.73.61c-.72 1 .09 3.36 1 6.07 1.36 4 3 8.88 1.06 12.76a.71.71 0 0 1-.75.51Z"/><path fill="#e9ffff" d="M54.6 98c-2-.13-6.23-11.69-6.27-11.8a.39.39 0 1 1 .73-.27c1.91 5.26 4.64 10.8 5.53 11.26 1.82-3.58.19-8.31-1.12-12.11-1-3-1.87-5.44-.92-6.78a2.72 2.72 0 0 1 2.37-1 4.56 4.56 0 0 1 4.72 4.46 4.43 4.43 0 0 1-4.43 4.64h-.27l-.11-.24c-.21-.45-2-4.42-1-6a1.42 1.42 0 0 1 1.2-.68 2.47 2.47 0 0 1 2.65 2.29 2.18 2.18 0 0 1-2 2.4.39.39 0 0 1-.09-.78 1.39 1.39 0 0 0 1.34-1.56A1.68 1.68 0 0 0 55 80.31a.63.63 0 0 0-.57.3c-.53.88.27 3.44 1 5a3.61 3.61 0 0 0 3.44-3.81 3.75 3.75 0 0 0-3.94-3.7 2 2 0 0 0-1.73.61c-.72 1 .09 3.36 1 6.07 1.36 4 3 8.88 1.06 12.76a.71.71 0 0 1-.66.46Z"/><path fill="#e9ffff" d="M61.14 98c-2-.13-6.23-11.69-6.27-11.8a.39.39 0 1 1 .73-.27c1.91 5.26 4.64 10.8 5.53 11.26 1.82-3.58.19-8.31-1.12-12.11-1-3-1.87-5.44-.92-6.78a2.72 2.72 0 0 1 2.37-1 4.56 4.56 0 0 1 4.72 4.46 4.42 4.42 0 0 1-4.43 4.64h-.27l-.11-.24c-.21-.45-2-4.42-1-6a1.42 1.42 0 0 1 1.2-.68 2.47 2.47 0 0 1 2.65 2.29 2.18 2.18 0 0 1-2 2.4.39.39 0 0 1-.43-.35.38.38 0 0 1 .34-.43 1.39 1.39 0 0 0 1.34-1.56 1.68 1.68 0 0 0-1.83-1.57.63.63 0 0 0-.57.3c-.53.88.27 3.44 1 5a3.61 3.61 0 0 0 3.44-3.81 3.75 3.75 0 0 0-3.94-3.7 2 2 0 0 0-1.73.61c-.72 1 .09 3.36 1 6.07 1.36 4 3 8.88 1.06 12.76a.71.71 0 0 1-.76.51Z"/><path fill="#e9ffff" d="M67.68 98c-2-.13-6.23-11.69-6.27-11.8a.39.39 0 1 1 .73-.27c1.91 5.26 4.64 10.8 5.53 11.26 1.82-3.58.19-8.31-1.12-12.11-1-3-1.87-5.44-.92-6.78a2.72 2.72 0 0 1 2.37-1 4.56 4.56 0 0 1 4.72 4.46 4.42 4.42 0 0 1-4.43 4.64h-.27l-.11-.24c-.21-.45-2-4.42-1-6a1.42 1.42 0 0 1 1.2-.68 2.47 2.47 0 0 1 2.65 2.29 2.16 2.16 0 0 1-2 2.4.39.39 0 0 1-.09-.78 1.39 1.39 0 0 0 1.34-1.56 1.68 1.68 0 0 0-1.83-1.57.63.63 0 0 0-.57.3c-.53.88.27 3.44 1 5a3.6 3.6 0 0 0 3.44-3.81A3.75 3.75 0 0 0 68 78.12a2 2 0 0 0-1.73.61c-.72 1 .09 3.36 1 6.07 1.36 4 3 8.88 1.06 12.76a.71.71 0 0 1-.65.44Z"/><path fill="#e9ffff" d="M74.22 98c-2-.13-6.23-11.69-6.27-11.8a.39.39 0 0 1 .23-.5.38.38 0 0 1 .5.23c1.91 5.26 4.64 10.8 5.53 11.26 1.82-3.58.19-8.31-1.12-12.11-1-3-1.87-5.44-.92-6.78a2.72 2.72 0 0 1 2.37-1 4.56 4.56 0 0 1 4.72 4.46 4.42 4.42 0 0 1-4.43 4.64h-.27l-.11-.24c-.21-.45-2-4.42-1-6a1.42 1.42 0 0 1 1.2-.68 2.47 2.47 0 0 1 2.65 2.29 2.16 2.16 0 0 1-2 2.4.39.39 0 0 1-.43-.35.39.39 0 0 1 .35-.43 1.38 1.38 0 0 0 1.33-1.56 1.68 1.68 0 0 0-1.83-1.57.63.63 0 0 0-.57.3c-.53.88.27 3.44 1 5a3.6 3.6 0 0 0 3.44-3.81 3.75 3.75 0 0 0-4-3.7 2 2 0 0 0-1.73.61c-.72 1 .09 3.36 1 6.07 1.36 4 3 8.88 1.06 12.76a.71.71 0 0 1-.7.51Z"/><path fill="#e9ffff" d="M80.76 98c-2-.13-6.23-11.69-6.27-11.8a.39.39 0 0 1 .23-.5.38.38 0 0 1 .5.23c1.91 5.26 4.64 10.8 5.53 11.26 1.82-3.58.19-8.31-1.12-12.11-1-3-1.87-5.44-.92-6.78a2.72 2.72 0 0 1 2.37-1 4.56 4.56 0 0 1 4.72 4.46 4.42 4.42 0 0 1-4.43 4.64h-.27l-.1-.19c-.21-.45-2-4.42-1-6a1.42 1.42 0 0 1 1.2-.68 2.47 2.47 0 0 1 2.65 2.29 2.16 2.16 0 0 1-2 2.4.39.39 0 1 1-.08-.78A1.38 1.38 0 0 0 83 81.88a1.68 1.68 0 0 0-1.83-1.57.63.63 0 0 0-.57.3c-.53.88.27 3.44 1 5a3.6 3.6 0 0 0 3.4-3.79 3.75 3.75 0 0 0-3.94-3.7 2 2 0 0 0-1.73.61c-.72 1 .09 3.36 1 6.07 1.36 4 3 8.88 1.06 12.76a.71.71 0 0 1-.63.44Z"/><path fill="#e9ffff" d="M87.3 98c-2-.13-6.23-11.69-6.27-11.8a.39.39 0 0 1 .23-.5.4.4 0 0 1 .51.23c1.9 5.26 4.63 10.8 5.52 11.26 1.82-3.58.19-8.31-1.12-12.11-1-3-1.87-5.44-.92-6.78a2.72 2.72 0 0 1 2.37-1 4.56 4.56 0 0 1 4.72 4.46 4.42 4.42 0 0 1-4.43 4.64h-.27l-.11-.24c-.21-.45-2-4.42-1-6a1.42 1.42 0 0 1 1.2-.68 2.47 2.47 0 0 1 2.65 2.29 2.16 2.16 0 0 1-2 2.4.39.39 0 0 1-.08-.78 1.38 1.38 0 0 0 1.33-1.56 1.68 1.68 0 0 0-1.83-1.57.63.63 0 0 0-.57.3c-.53.88.27 3.44 1 5a3.6 3.6 0 0 0 3.43-3.81 3.75 3.75 0 0 0-3.94-3.7 2 2 0 0 0-1.74.61c-.72 1 .09 3.36 1 6.07 1.36 4 3 8.88 1.06 12.76a.7.7 0 0 1-.74.51Z"/><path fill="#e9ffff" d="M93.84 98c-2-.13-6.23-11.69-6.27-11.8a.39.39 0 0 1 .74-.27c1.91 5.26 4.63 10.8 5.52 11.26 1.82-3.58.19-8.31-1.12-12.11-1-3-1.87-5.44-.92-6.78a2.72 2.72 0 0 1 2.37-1 4.56 4.56 0 0 1 4.72 4.46 4.42 4.42 0 0 1-4.43 4.64h-.27l-.11-.24c-.21-.45-2-4.42-1-6a1.42 1.42 0 0 1 1.2-.68 2.48 2.48 0 0 1 2.66 2.29 2.18 2.18 0 0 1-2 2.4.4.4 0 0 1-.43-.35.39.39 0 0 1 .35-.43 1.39 1.39 0 0 0 1.34-1.56 1.69 1.69 0 0 0-1.84-1.57.63.63 0 0 0-.57.3c-.53.88.27 3.44 1 5a3.6 3.6 0 0 0 3.43-3.81 3.74 3.74 0 0 0-3.94-3.7 2 2 0 0 0-1.74.61c-.72 1 .09 3.36 1 6.07 1.36 4 3.06 8.88 1.06 12.76a.7.7 0 0 1-.75.51Zm-.08-.75Z"/><path fill="#e9ffff" d="M100.39 98c-2-.13-6.23-11.69-6.27-11.8a.39.39 0 0 1 .74-.27c1.91 5.26 4.63 10.8 5.52 11.26 1.82-3.58.19-8.31-1.12-12.11-1-3-1.86-5.44-.92-6.78a2.72 2.72 0 0 1 2.37-1 4.57 4.57 0 0 1 4.73 4.46 4.44 4.44 0 0 1-4.44 4.67h-.27l-.11-.24c-.21-.45-2-4.42-1-6a1.42 1.42 0 0 1 1.2-.68 2.49 2.49 0 0 1 2.66 2.29 2.18 2.18 0 0 1-2 2.4.4.4 0 0 1-.43-.35.39.39 0 0 1 .35-.43 1.39 1.39 0 0 0 1.34-1.56 1.69 1.69 0 0 0-1.84-1.57.63.63 0 0 0-.57.3c-.53.88.27 3.44 1 5a3.6 3.6 0 0 0 3.43-3.81 3.74 3.74 0 0 0-3.93-3.7 2 2 0 0 0-1.74.61c-.71 1 .09 3.36 1 6.07 1.36 4 3.06 8.88 1.06 12.76a.7.7 0 0 1-.76.48Zm-.09-.75Z"/><path fill="#e9ffff" d="M106.93 98h-.05c-1.95-.13-6.23-11.69-6.27-11.8a.39.39 0 0 1 .74-.27c1.91 5.26 4.63 10.8 5.52 11.26 1.82-3.58.19-8.31-1.11-12.11-1.05-3-1.87-5.44-.93-6.78a2.73 2.73 0 0 1 2.37-1 4.56 4.56 0 0 1 4.8 4.49 4.44 4.44 0 0 1-4.44 4.64h-.27l-.11-.24c-.21-.45-2-4.42-1-6a1.43 1.43 0 0 1 1.2-.68 2.49 2.49 0 0 1 2.62 2.31 2.18 2.18 0 0 1-2 2.4.4.4 0 0 1-.43-.35.39.39 0 0 1 .35-.43 1.39 1.39 0 0 0 1.34-1.56 1.69 1.69 0 0 0-1.84-1.57.64.64 0 0 0-.57.3c-.53.88.27 3.44 1 5a3.6 3.6 0 0 0 3.43-3.81 3.74 3.74 0 0 0-3.93-3.7 2 2 0 0 0-1.74.61c-.71 1 .09 3.36 1 6.07 1.36 4 3.06 8.88 1.06 12.76a.7.7 0 0 1-.74.46Zm-.09-.75Z"/><path fill="#e9ffff" d="M113.47 98c-2-.13-6.22-11.69-6.27-11.8a.39.39 0 0 1 .74-.27c1.91 5.26 4.63 10.8 5.52 11.26 1.82-3.58.19-8.31-1.11-12.11-1-3-1.87-5.44-.92-6.78a2.7 2.7 0 0 1 2.36-1h.05a4.56 4.56 0 0 1 4.72 4.46 4.44 4.44 0 0 1-4.44 4.64h-.27l-.11-.24c-.21-.45-2-4.42-1-6a1.43 1.43 0 0 1 1.21-.68 2.48 2.48 0 0 1 2.65 2.29 2.18 2.18 0 0 1-2 2.4.4.4 0 0 1-.43-.35.39.39 0 0 1 .35-.43 1.39 1.39 0 0 0 1.34-1.56 1.69 1.69 0 0 0-1.84-1.57.64.64 0 0 0-.57.3c-.53.88.27 3.44 1 5a3.61 3.61 0 0 0 3.44-3.81 3.75 3.75 0 0 0-4-3.7 2 2 0 0 0-1.74.61c-.71 1 .09 3.36 1 6.07 1.36 4 3 8.88 1 12.76a.7.7 0 0 1-.68.51Zm-.09-.75Z"/><path fill="#3f94a1" d="M44.23 77.31h73.87v.78H44.23zM44.23 96.96h73.87v1.56H44.23z"/><path fill="#3f94a1" d="M47.38 98.24h-.05c-1.95-.13-6.23-11.68-6.27-11.8a.39.39 0 0 1 .74-.27c1.91 5.26 4.63 10.81 5.52 11.26 1.82-3.58.19-8.31-1.12-12.11-1-3-1.86-5.44-.92-6.78a2.72 2.72 0 0 1 2.37-1A4.57 4.57 0 0 1 52.38 82 4.45 4.45 0 0 1 48 86.7h-.27l-.11-.24c-.21-.45-2-4.41-1-6a1.42 1.42 0 0 1 1.2-.68 2.49 2.49 0 0 1 2.66 2.29 2.18 2.18 0 0 1-2 2.4.39.39 0 0 1-.08-.78 1.39 1.39 0 0 0 1.34-1.56 1.69 1.69 0 0 0-1.84-1.57.63.63 0 0 0-.57.3c-.53.88.27 3.44 1 5a3.6 3.6 0 0 0 3.43-3.81 3.74 3.74 0 0 0-3.93-3.7 2 2 0 0 0-1.74.62c-.71 1 .09 3.35 1 6.06C48.3 89 50 93.94 48 97.82a.7.7 0 0 1-.62.42Z"/><path fill="#3f94a1" d="M53.92 98.24h-.05c-1.95-.13-6.23-11.68-6.27-11.8a.39.39 0 0 1 .74-.27C50.25 91.43 53 97 53.86 97.43c1.82-3.58.19-8.31-1.11-12.11-1-3-1.87-5.44-.93-6.78a2.73 2.73 0 0 1 2.37-1h.05A4.56 4.56 0 0 1 59 82.05a4.45 4.45 0 0 1-4.44 4.65h-.27l-.11-.24c-.21-.45-2-4.41-1-6a1.43 1.43 0 0 1 1.21-.68 2.48 2.48 0 0 1 2.61 2.3 2.18 2.18 0 0 1-2 2.4.39.39 0 0 1-.08-.78 1.39 1.39 0 0 0 1.34-1.56 1.69 1.69 0 0 0-1.84-1.57.64.64 0 0 0-.57.3c-.53.88.27 3.44 1 5a3.6 3.6 0 0 0 3.43-3.81 3.74 3.74 0 0 0-3.93-3.7 2 2 0 0 0-1.74.62c-.71 1 .09 3.35 1 6.06 1.36 4 3.06 8.88 1.06 12.76a.7.7 0 0 1-.75.44Z"/><path fill="#3f94a1" d="M60.46 98.24h-.05c-1.95-.13-6.23-11.68-6.27-11.8a.39.39 0 0 1 .74-.27c1.91 5.26 4.63 10.83 5.52 11.26 1.82-3.58.19-8.31-1.11-12.11-1-3-1.87-5.44-.92-6.78a2.7 2.7 0 0 1 2.36-1h.05A4.56 4.56 0 0 1 65.5 82a4.45 4.45 0 0 1-4.44 4.65h-.27l-.11-.24c-.21-.45-2-4.41-1-6a1.43 1.43 0 0 1 1.21-.68 2.48 2.48 0 0 1 2.65 2.29 2.18 2.18 0 0 1-2 2.4.39.39 0 0 1-.08-.78 1.39 1.39 0 0 0 1.34-1.56 1.69 1.69 0 0 0-1.84-1.57.64.64 0 0 0-.57.3c-.53.88.27 3.44 1 5A3.61 3.61 0 0 0 64.83 82a3.75 3.75 0 0 0-3.94-3.7A2 2 0 0 0 59 79c-.71 1 .09 3.35 1 6.06 1.36 4 3 8.88 1 12.76a.7.7 0 0 1-.54.42Z"/><path fill="#3f94a1" d="M67 98.24c-1.94-.13-6.22-11.68-6.27-11.8a.39.39 0 0 1 .74-.27c1.91 5.26 4.63 10.81 5.52 11.26 1.82-3.58.19-8.31-1.11-12.11-1-3-1.87-5.44-.92-6.78a2.7 2.7 0 0 1 2.36-1A4.56 4.56 0 0 1 72 82.05a4.44 4.44 0 0 1-4.4 4.65h-.27l-.11-.24c-.21-.45-2-4.41-1-6a1.43 1.43 0 0 1 1.21-.68 2.48 2.48 0 0 1 2.57 2.3 2.18 2.18 0 0 1-2 2.4.39.39 0 1 1-.09-.78 1.39 1.39 0 0 0 1.34-1.56 1.69 1.69 0 0 0-1.83-1.57.66.66 0 0 0-.58.3c-.53.88.27 3.44 1 5a3.61 3.61 0 0 0 3.44-3.81 3.75 3.75 0 0 0-3.94-3.7 2 2 0 0 0-1.74.62c-.71 1 .09 3.35 1 6.06 1.36 4 3.05 8.88 1.05 12.76a.69.69 0 0 1-.65.44Z"/><path fill="#3f94a1" d="M73.54 98.24h-.05c-1.94-.13-6.22-11.68-6.27-11.8a.4.4 0 0 1 .24-.5.38.38 0 0 1 .5.23c1.91 5.26 4.64 10.83 5.52 11.26 1.82-3.58.2-8.31-1.11-12.11-1.05-3-1.87-5.44-.92-6.78a2.7 2.7 0 0 1 2.36-1A4.56 4.56 0 0 1 78.53 82a4.44 4.44 0 0 1-4.44 4.65h-.26l-.12-.24c-.2-.45-2-4.41-1-6a1.4 1.4 0 0 1 1.2-.68 2.48 2.48 0 0 1 2.65 2.29 2.18 2.18 0 0 1-2 2.4.39.39 0 1 1-.09-.78 1.39 1.39 0 0 0 1.34-1.56A1.69 1.69 0 0 0 74 80.57a.66.66 0 0 0-.58.3c-.53.88.28 3.44 1 5a3.61 3.61 0 0 0 3.44-3.81 3.75 3.75 0 0 0-4-3.7 2 2 0 0 0-1.74.62c-.71 1 .09 3.35 1 6.06 1.36 4 3 8.88 1 12.76a.69.69 0 0 1-.58.44Z"/><path fill="#3f94a1" d="M80.08 98.24c-1.94-.13-6.22-11.68-6.27-11.8a.4.4 0 0 1 .24-.5.38.38 0 0 1 .5.23C76.41 91.43 79.14 97 80 97.43c1.82-3.58.2-8.31-1.11-12.11-1-3-1.87-5.44-.92-6.78a2.7 2.7 0 0 1 2.36-1h.05A4.56 4.56 0 0 1 85.1 82a4.44 4.44 0 0 1-4.44 4.65h-.26l-.12-.24c-.2-.45-2-4.41-1-6a1.4 1.4 0 0 1 1.2-.68 2.47 2.47 0 0 1 2.65 2.29 2.18 2.18 0 0 1-2 2.4.39.39 0 0 1-.13-.72 1.39 1.39 0 0 0 1.34-1.56 1.69 1.69 0 0 0-1.83-1.57.66.66 0 0 0-.58.3c-.53.88.28 3.44 1 5a3.61 3.61 0 0 0 3.44-3.81 3.75 3.75 0 0 0-3.94-3.7 2 2 0 0 0-1.73.62c-.72 1 .08 3.35 1 6.06 1.36 4 3 8.88 1 12.76a.69.69 0 0 1-.62.44Z"/><path fill="#3f94a1" d="M86.62 98.24c-2-.13-6.23-11.68-6.27-11.8a.39.39 0 1 1 .73-.27C83 91.43 85.68 97 86.57 97.43c1.81-3.58.19-8.31-1.12-12.11-1-3-1.87-5.44-.92-6.78a2.7 2.7 0 0 1 2.36-1A4.56 4.56 0 0 1 91.61 82a4.44 4.44 0 0 1-4.44 4.65H87l-.12-.24c-.2-.45-2-4.41-1-6a1.4 1.4 0 0 1 1.2-.68 2.48 2.48 0 0 1 2.65 2.29 2.18 2.18 0 0 1-2 2.4.39.39 0 0 1-.09-.78 1.39 1.39 0 0 0 1.34-1.56 1.69 1.69 0 0 0-1.83-1.57.63.63 0 0 0-.57.3c-.54.88.27 3.44 1 5A3.61 3.61 0 0 0 91.02 82a3.75 3.75 0 0 0-3.94-3.7 2 2 0 0 0-1.73.62c-.72 1 .08 3.35 1 6.06 1.36 4 3 8.88 1 12.76a.69.69 0 0 1-.73.5Z"/><path fill="#3f94a1" d="M93.16 98.24c-2-.13-6.23-11.68-6.27-11.8a.39.39 0 1 1 .73-.27c1.91 5.26 4.64 10.81 5.53 11.26 1.81-3.58.19-8.31-1.12-12.11-1-3-1.87-5.44-.92-6.78a2.71 2.71 0 0 1 2.37-1A4.56 4.56 0 0 1 98.2 82a4.44 4.44 0 0 1-4.43 4.65h-.27l-.12-.24c-.2-.45-2-4.41-1-6a1.4 1.4 0 0 1 1.2-.68 2.47 2.47 0 0 1 2.65 2.29 2.18 2.18 0 0 1-2 2.4.39.39 0 0 1-.09-.78 1.39 1.39 0 0 0 1.34-1.56 1.69 1.69 0 0 0-1.83-1.57.63.63 0 0 0-.57.3c-.54.88.27 3.44 1 5A3.61 3.61 0 0 0 97.52 82a3.75 3.75 0 0 0-3.94-3.7 2 2 0 0 0-1.73.62c-.72 1 .09 3.35 1 6.06 1.36 4 3 8.88 1.06 12.76a.71.71 0 0 1-.75.5Zm-.09-.75Z"/><path fill="#3f94a1" d="M99.7 98.24c-2-.13-6.23-11.68-6.27-11.8a.39.39 0 1 1 .73-.27C96 91.43 98.76 97 99.65 97.43c1.81-3.58.19-8.31-1.12-12.11-1-3-1.87-5.44-.92-6.78a2.72 2.72 0 0 1 2.37-1A4.56 4.56 0 0 1 104.7 82a4.44 4.44 0 0 1-4.43 4.65H100l-.12-.24c-.2-.45-2-4.41-1-6a1.42 1.42 0 0 1 1.2-.68 2.47 2.47 0 0 1 2.65 2.29 2.18 2.18 0 0 1-2 2.4.39.39 0 0 1-.09-.78 1.39 1.39 0 0 0 1.36-1.5 1.68 1.68 0 0 0-1.83-1.57.63.63 0 0 0-.57.3c-.54.88.27 3.44 1 5a3.61 3.61 0 0 0 3.4-3.79 3.75 3.75 0 0 0-3.94-3.7 2 2 0 0 0-1.73.62c-.72 1 .09 3.35 1 6.06 1.36 4 3 8.88 1.06 12.76a.71.71 0 0 1-.69.42Zm-.09-.75Z"/><path fill="#3f94a1" d="M106.24 98.24c-2-.13-6.23-11.68-6.27-11.8a.39.39 0 1 1 .73-.27c1.91 5.26 4.64 10.81 5.53 11.26 1.82-3.58.19-8.31-1.12-12.11-1-3-1.87-5.44-.92-6.78a2.72 2.72 0 0 1 2.37-1 4.56 4.56 0 0 1 4.72 4.46 4.44 4.44 0 0 1-4.43 4.65h-.27l-.11-.24c-.21-.45-2-4.41-1-6a1.42 1.42 0 0 1 1.2-.68 2.47 2.47 0 0 1 2.65 2.29 2.18 2.18 0 0 1-2 2.4.39.39 0 0 1-.09-.78 1.39 1.39 0 0 0 1.34-1.56 1.68 1.68 0 0 0-1.83-1.57.63.63 0 0 0-.57.3c-.53.88.27 3.44 1 5a3.61 3.61 0 0 0 3.44-3.81 3.75 3.75 0 0 0-3.94-3.7 2 2 0 0 0-1.73.62c-.72 1 .09 3.35 1 6.06 1.36 4 3 8.88 1.06 12.76a.71.71 0 0 1-.76.5Zm-.09-.75Z"/><path fill="#3f94a1" d="M112.78 98.24c-1.95-.13-6.23-11.68-6.27-11.8a.39.39 0 1 1 .73-.27c1.91 5.26 4.64 10.81 5.53 11.26 1.82-3.58.19-8.31-1.12-12.11-1-3-1.87-5.44-.92-6.78a2.72 2.72 0 0 1 2.37-1 4.56 4.56 0 0 1 4.72 4.46 4.44 4.44 0 0 1-4.43 4.65h-.27l-.11-.24c-.21-.45-2-4.41-1-6a1.42 1.42 0 0 1 1.2-.68 2.47 2.47 0 0 1 2.65 2.29 2.18 2.18 0 0 1-2 2.4.39.39 0 0 1-.09-.78 1.39 1.39 0 0 0 1.23-1.5 1.68 1.68 0 0 0-1.83-1.57.63.63 0 0 0-.57.3c-.53.88.27 3.44 1 5a3.61 3.61 0 0 0 3.4-3.79 3.75 3.75 0 0 0-4-3.7 2 2 0 0 0-1.73.62c-.72 1 .09 3.35 1 6.06 1.36 4 3.05 8.88 1.06 12.76a.71.71 0 0 1-.55.42Zm-.08-.75Z"/><path fill="#58453f" d="M77.66 18.73h4.17v79.8h-4.17zM40.78 18.73h4.17v79.8h-4.17zM114.53 18.73h4.17v79.8h-4.17z"/><path fill="#58453f" d="M77.71-20.48h4.07v77.92h-4.07z" transform="rotate(90 79.74 18.47)"/><path fill="#58453f" d="M59.27 75.97h4.07v41.04h-4.07z" transform="rotate(90 61.305 96.495)"/><path style="mix-blend-mode:multiply" fill="#008eff" d="M44.95 20.51h32.7v73.95h-32.7z" opacity=".2"/><path fill="#fff" d="M77.66 24.17 44.95 43.11v6.6l32.71-21.72v-3.82zM44.95 56.14l32.71-23.28v10.25L44.95 66.04v-9.9zM77.66 49.62l-30.8 23.02 28.41-18.67-20.72 17.1 6.75-2.63 16.36-12.82v-6z" opacity=".37"/><path fill="#24d7db" d="M114.3 11.66h24.36v86.86H114.3zM20.69 11.66h24.23v86.86H20.69z"/><path fill="#825100" d="M78.68-55.86h2.61V72.75h-2.61z" transform="rotate(90 79.98 8.44)"/><path fill="#be7800" d="M79.59-55.86h.78V72.75h-.78z" transform="rotate(90 79.98 8.44)"/><path fill="#a76d00" d="M17.82 8.44a2.15 2.15 0 1 1-2.15-2.15 2.15 2.15 0 0 1 2.15 2.15Z"/><circle cx="15.67" cy="8.44" r=".9" fill="#e08800"/><path fill="#a76d00" d="M146.44 8.44a2.15 2.15 0 1 1-2.15-2.15 2.15 2.15 0 0 1 2.15 2.15Z"/><circle cx="144.29" cy="8.44" r=".9" fill="#e08800"/><path fill="#00bdc7" d="M20.69 6.8h1.63v4.86h-1.63zM24.47 6.8h1.63v4.86h-1.63zM28.25 6.8h1.63v4.86h-1.63zM32.04 6.8h1.63v4.86h-1.63zM35.82 6.8h1.63v4.86h-1.63zM39.6 6.8h1.63v4.86H39.6zM43.39 6.8h1.63v4.86h-1.63z"/><path fill="#24d7db" d="M20.69 6.8h1.63v2.43h-1.63zM24.47 6.8h1.63v2.43h-1.63zM28.25 6.8h1.63v2.43h-1.63zM32.04 6.8h1.63v2.43h-1.63zM35.82 6.8h1.63v2.43h-1.63zM39.6 6.8h1.63v2.43H39.6zM43.39 6.8h1.63v2.43h-1.63z"/><path fill="#00bdc7" d="M114.34 6.8h1.63v4.86h-1.63zM118.12 6.8h1.63v4.86h-1.63zM121.91 6.8h1.63v4.86h-1.63zM125.69 6.8h1.63v4.86h-1.63zM129.47 6.8h1.63v4.86h-1.63zM133.25 6.8h1.63v4.86h-1.63zM137.04 6.8h1.63v4.86h-1.63z"/><path fill="#24d7db" d="M114.34 6.8h1.63v2.43h-1.63zM118.12 6.8h1.63v2.43h-1.63zM121.91 6.8h1.63v2.43h-1.63zM125.69 6.8h1.63v2.43h-1.63zM129.47 6.8h1.63v2.43h-1.63zM133.25 6.8h1.63v2.43h-1.63zM137.04 6.8h1.63v2.43h-1.63z"/><path fill="#58453f" d="M81.56 97.48h32.7v1.04h-32.7z"/><path fill="#00bdc7" d="M22.31 11.66s1.81 48.22 3 47.85c2.63-.82 3-47.85 3-47.85ZM33.66 11.66s1.46 83.84 2.16 83.75c2.5-.33 3.78-83.75 3.78-83.75ZM41.23 11.66s-.2 20.33.49 20 1.67-20 1.67-20ZM119.75 11.66s.23 46.7 3 47.06 3-47.06 3-47.06ZM131.1 11.66s.05 75.72 2.15 76 3.79-76 3.79-76ZM126.48 98.53s.36-67 1.58-66.88 3 66.88 3 66.88Z"/><path style="mix-blend-mode:screen" fill="url(#a)" d="M1.87 44.41H55.3L32.8 5.86h-8.52L1.87 44.41z" opacity=".45"/><path fill="#ffe77d" d="M27.33 1.53h2.81l2.69 4.33h-8.46l2.96-4.33z"/><path fill="#e08a3a" d="M28.28 0h.6v1.53h-.6z" transform="rotate(180 28.585 .765)"/><path style="mix-blend-mode:screen" fill="url(#b)" d="M53.26 44.41h53.43L84.19 5.86h-8.52L53.26 44.41z" opacity=".45"/><path fill="#ffe77d" d="M78.72 1.53h2.81l2.69 4.33h-8.46l2.96-4.33z"/><path fill="#e08a3a" d="M79.68 0h.6v1.53h-.6z" transform="rotate(180 79.98 .765)"/><path style="mix-blend-mode:screen" fill="url(#c)" d="M104.66 44.41h53.43l-22.5-38.55h-8.53l-22.4 38.55z" opacity=".45"/><path fill="#ffe77d" d="M130.12 1.53h2.8l2.69 4.33h-8.46l2.97-4.33z"/><path fill="#e08a3a" d="M131.07 0h.6v1.53h-.6z" transform="rotate(180 131.37 .765)"/><path fill="#558d14" d="M17.8 78.09s3.54-1.9 3.69-5.25a14.48 14.48 0 0 0-3.69 5.25Z"/><path fill="#558d14" d="M17.8 78.08s4 .23 5.88-2.55a14.47 14.47 0 0 0-5.88 2.55Z"/><path fill="#558d14" d="M17.8 78.09s1.81-3.58 0-6.42a14.61 14.61 0 0 0 0 6.42Z"/><path fill="#558d14" d="M17.81 78.08s-.44-4-3.5-5.36a14.52 14.52 0 0 0 3.5 5.36ZM9.15 60s3.7-3.12 3-7.11a17.58 17.58 0 0 0-3 7.11Z"/><path fill="#558d14" d="M9.15 60s4.78-.73 6.29-4.48A17.67 17.67 0 0 0 9.15 60ZM9.15 60s1.24-4.67-1.6-7.56A17.5 17.5 0 0 0 9.15 60Z"/><path fill="#558d14" d="M9.16 60s-1.53-4.59-5.48-5.45A17.56 17.56 0 0 0 9.16 60Z"/><path fill="#558d14" d="M9.14 60s-4-2.68-7.67-.93a17.57 17.57 0 0 0 7.67.93Z"/><path fill="#8c5615" d="M17.21 89.33s1-16.52-.87-21.28-6.52-7.74-6.52-7.74v-.74s5.76 3.83 7.07 8.07c0 0-.25-12.87 5-16.09l.63.16s-4.77 2.81-4.87 15.85c0 0 1.22 6.71 1.06 9.22 0 0 .57-9.59 8.64-13.93l.43.39A18.82 18.82 0 0 0 21.62 69a22.27 22.27 0 0 1 13.53-2.26l-.41.4a21.85 21.85 0 0 0-13.12 2.77s-2.61 5.13-2.69 9.9l.07 9.6Z"/><path fill="#7ea700" d="M9.92 60.12s-1-4.74-4.83-6a17.68 17.68 0 0 0 4.83 6Z"/><path fill="#7ea700" d="M9.91 60.12s1.62-4.56-1-7.67a17.6 17.6 0 0 0 1 7.67Z"/><path fill="#7ea700" d="M9.92 60.12s-3.53-3.31-7.42-2.18a17.6 17.6 0 0 0 7.42 2.18Z"/><path fill="#7ea700" d="M9.92 60.11s-4.76-.83-7.4 2.24a17.68 17.68 0 0 0 7.4-2.24Z"/><path fill="#7ea700" d="M9.91 60.12s-4.27 2.27-4.46 6.31a17.56 17.56 0 0 0 4.46-6.31ZM17.39 67.63s-1-4.73-4.84-6a17.64 17.64 0 0 0 4.84 6Z"/><path fill="#7ea700" d="M17.37 67.63s1.63-4.56-1-7.67a17.6 17.6 0 0 0 1 7.67Z"/><path fill="#7ea700" d="M17.39 67.63s-3.54-3.3-7.42-2.17a17.45 17.45 0 0 0 7.42 2.17Z"/><path fill="#7ea700" d="M17.39 67.62s-4.77-.83-7.4 2.24a17.53 17.53 0 0 0 7.4-2.24Z"/><path fill="#558d14" d="M21 51.46s2.87 3.89 6.9 3.48a17.53 17.53 0 0 0-6.9-3.48Z"/><path fill="#558d14" d="M21.05 51.45s.41 4.82 4.06 6.58a17.75 17.75 0 0 0-4.06-6.58Z"/><path fill="#558d14" d="M21 51.46s4.58 1.54 7.65-1.1a17.56 17.56 0 0 0-7.65 1.1Z"/><path fill="#558d14" d="M21 51.47s4.68-1.22 5.8-5.11a17.58 17.58 0 0 0-5.8 5.11Z"/><path fill="#558d14" d="M21.05 51.45s2.94-3.84 1.43-7.6a17.69 17.69 0 0 0-1.43 7.6Z"/><path fill="#7ea700" d="M20.9 52.22s4.79-.68 6.34-4.42a17.65 17.65 0 0 0-6.34 4.42Z"/><path fill="#7ea700" d="M20.9 52.21s4.44 1.92 7.72-.45a17.64 17.64 0 0 0-7.72.45Z"/><path fill="#7ea700" d="M20.9 52.22s3.53-3.3 2.66-7.26a17.63 17.63 0 0 0-2.66 7.26Z"/><path fill="#7ea700" d="M20.91 52.22s1.15-4.7-1.75-7.53a17.57 17.57 0 0 0 1.75 7.53Z"/><path fill="#7ea700" d="M20.9 52.21s-2-4.41-6-4.87a17.63 17.63 0 0 0 6 4.87Z"/><path fill="#558d14" d="M27.18 62.86s2.88 3.89 6.9 3.49a17.62 17.62 0 0 0-6.9-3.49Z"/><path fill="#558d14" d="M27.19 62.86s.42 4.82 4.06 6.58a17.5 17.5 0 0 0-4.06-6.58Z"/><path fill="#558d14" d="M27.18 62.86s4.59 1.54 7.65-1.1a17.56 17.56 0 0 0-7.65 1.1Z"/><path fill="#558d14" d="M27.19 62.87s4.68-1.22 5.8-5.11a17.48 17.48 0 0 0-5.8 5.11Z"/><path fill="#558d14" d="M27.2 62.86s2.94-3.85 1.43-7.6a17.64 17.64 0 0 0-1.43 7.6Z"/><path fill="#7ea700" d="M27.05 63.63s4.79-.69 6.34-4.43a17.6 17.6 0 0 0-6.34 4.43Z"/><path fill="#7ea700" d="M27.05 63.62s4.44 1.91 7.72-.46a17.56 17.56 0 0 0-7.72.46Z"/><path fill="#7ea700" d="M27.05 63.63s3.53-3.31 2.66-7.26a17.47 17.47 0 0 0-2.66 7.26Z"/><path fill="#7ea700" d="M27.06 63.63s1.14-4.7-1.75-7.53a17.57 17.57 0 0 0 1.75 7.53Z"/><path fill="#7ea700" d="M27.05 63.61s-2-4.41-6-4.86a17.67 17.67 0 0 0 6 4.86Z"/><path fill="#558d14" d="M34.55 66.75s2.08 2.81 5 2.52a12.64 12.64 0 0 0-5-2.52Z"/><path fill="#558d14" d="M34.56 66.75s.3 3.48 2.94 4.75a12.67 12.67 0 0 0-2.94-4.75Z"/><path fill="#558d14" d="M34.55 66.75s3.32 1.11 5.53-.8a12.71 12.71 0 0 0-5.53.8Z"/><path fill="#558d14" d="M34.56 66.76s3.38-.89 4.19-3.7a12.73 12.73 0 0 0-4.19 3.7Z"/><path fill="#558d14" d="M34.57 66.75s2.12-2.78 1-5.49a12.65 12.65 0 0 0-1 5.49Z"/><path fill="#7ea700" d="M34.49 66.66s-2.91 1.94-2.75 4.86a12.67 12.67 0 0 0 2.75-4.86Z"/><path fill="#7ea700" d="M34.49 66.67s-3.49.14-4.88 2.71a12.77 12.77 0 0 0 4.88-2.71Z"/><path fill="#7ea700" d="M34.49 66.66s-1.26 3.26.54 5.56a12.77 12.77 0 0 0-.54-5.56Z"/><path fill="#7ea700" d="M34.48 66.66S35.21 70.08 38 71a12.79 12.79 0 0 0-3.52-4.34Z"/><path fill="#7ea700" d="M34.49 66.67s2.68 2.25 5.44 1.28a12.71 12.71 0 0 0-5.44-1.28Z"/><path d="M18.23 79.38a1.17 1.17 0 0 1-.76-.37c0 5.3-.26 10.32-.26 10.32l1.8.08-.08-9.59v-.94a1.25 1.25 0 0 1-.7.5Z" style="mix-blend-mode:multiply" fill="#5e514f" opacity=".26"/><path fill="#ffe6bb" d="M23.59 94.77a5.36 5.36 0 0 0-2.05-4.21v-.43l.95-1.7H14l1 1.7v.43a5.35 5.35 0 0 0 0 8.42v1.68h6.62V99a5.36 5.36 0 0 0 1.97-4.23Z"/><path d="M23.59 94.77v-.36a5.35 5.35 0 0 1-10.68 0v.36A5.33 5.33 0 0 0 14.92 99v1.68h6.62V99a5.36 5.36 0 0 0 2.05-4.23ZM16 99.65Zm.41.17Zm.84.22Zm.46.07Zm2.67-.44Zm-1.76.44Zm.47-.06Zm.87-.22ZM14.92 90.13v.37h6.62v-.37l.55-.97h-7.72l.55.97z" style="mix-blend-mode:multiply" fill="#7f554a" opacity=".26"/><path fill="#497603" d="M140.23 88.17A7.78 7.78 0 0 1 136 91a1.71 1.71 0 0 1-1.23.1 1.42 1.42 0 0 1-.56-.58 5.53 5.53 0 0 1 .77-6.23 4.34 4.34 0 0 1 2.27-1.54c1.1-.23 1.38.42 2.14 1a3 3 0 0 1 .84 4.42ZM149.92 88.45c-.76-.4-1.58-1-1.54-1.9a.64.64 0 0 1 .12-.35c.23-.28.7-.12 1-.29a2.75 2.75 0 0 1-.13-1.1 1.21 1.21 0 0 1 .55-.92 1.41 1.41 0 0 1 .64-.16 4.61 4.61 0 0 1 5 4.47c.17 3.35-4.25 1-5.64.25Z"/><path fill="#ffe6bb" d="M149 95a5.19 5.19 0 0 0-2-4.07v-.42l.92-1.64h-8.25l.92 1.64v.42a5.18 5.18 0 0 0 0 8.15v1.62H147V99a5.19 5.19 0 0 0 2-4Z"/><path d="M149 95v-.34a5.18 5.18 0 0 1-10.34 0V95a5.19 5.19 0 0 0 2 4.08v1.62H147V99a5.19 5.19 0 0 0 2-4ZM140.6 90.47v.36h6.4v-.36l.53-.94h-7.46l.53.94z" style="mix-blend-mode:multiply" fill="#7f554a" opacity=".26"/><path fill="#558d14" d="M138.62 68.71s4.73 6 5.39 10.06c0 0 0-5.38 3.52-9 0 0-3.52 4.73-3.23 10.28.09 1.74.25 2.88.25 2.88a9.27 9.27 0 0 1 4.85-2.79v.32a7.34 7.34 0 0 0-4.65 2.84c-.5.66.12 3.78.12 3.78a7.23 7.23 0 0 1 4.53-1l-.41.17s-2.76-.41-4 1.31v1.35h-.66l-.14-3.2s-1.71-1.89-5.62-1.11l.09-.28a7.57 7.57 0 0 1 5.52 1 24 24 0 0 0-.43-4.82s-1.26-2.5-5.13-2.5v-.41s4.69.66 5.18 2.34a13.17 13.17 0 0 0-2.21-5.93 3.39 3.39 0 0 0-2.55-.72l-.08-.46a3.36 3.36 0 0 1 2.3.51l-2.64-4.07Z"/><path fill="#558d14" d="M138.85 71a1.1 1.1 0 0 1-.09.54 1 1 0 0 1-.52.35 3.77 3.77 0 0 1-1.83.33 2.86 2.86 0 0 1-1.82-1.22 7.4 7.4 0 0 1-1-2c-.32-.84-.6-1.69-.85-2.55a2.25 2.25 0 0 1-.07-1.53 1.85 1.85 0 0 1 1-.86c1.73-.74 3.74-.21 5.46.54a5.11 5.11 0 0 1 2.44 1.81 2.06 2.06 0 0 1-.4 2.75c-.8.52-1.22-.24-1.9-.11s-.44 1.21-.42 1.95ZM145.8 70a1.67 1.67 0 0 1 .2-1.6 4.74 4.74 0 0 1 3.11-1.83 7.2 7.2 0 0 1 3.66.07 4.42 4.42 0 0 1 2.76 2.29 1.12 1.12 0 0 1 0 1.16.92.92 0 0 1-.54.31 4.33 4.33 0 0 1-2.28-.33 2.82 2.82 0 0 0-2.26 0 3.65 3.65 0 0 0-.79.73 8 8 0 0 1-1.7 1.38c-.39.24-1 .41-1.25 0s.37-1.1.48-1.56c-.46-.2-1.1-.03-1.39-.62ZM134.6 76.48a4.5 4.5 0 0 0-3.27 3.27 4.21 4.21 0 0 0 .67 3.45 3.51 3.51 0 0 0 3.15 1.42 1.7 1.7 0 0 0 1.1-.49 2.74 2.74 0 0 0 .47-1.36 3 3 0 0 1 1.69-2.53 10.66 10.66 0 0 1 1.28-.18 1.21 1.21 0 0 0 1-.71 1 1 0 0 0-.57-1.13c-.37-.21-.82-.14-1.19-.32s-.71-.63-1.1-.87a4.21 4.21 0 0 0-3.23-.55ZM143.78 76.94a5.89 5.89 0 0 1 2.58-2.38 13.38 13.38 0 0 1 3.39-1.07 6.84 6.84 0 0 1 2.42-.17 2.53 2.53 0 0 1 1.92 1.33 2.6 2.6 0 0 1-.71 2.79 7.63 7.63 0 0 1-2.65 1.5l-4 1.61c-.93.37-2.16.64-2.87-.22a3.32 3.32 0 0 1-.08-3.39ZM149.76 79.54a6.84 6.84 0 0 1 6.05-.43 5.22 5.22 0 0 1 3.08 5 .85.85 0 0 1-.12.38.74.74 0 0 1-.43.22 18.32 18.32 0 0 1-3.29.44q-2.1.12-4.2.09a4.41 4.41 0 0 1-2.84-.72 2.36 2.36 0 0 1-.62-2.68c.32-.71.86-.77 1.39-1.22.38-.3.44-.78.98-1.08Z"/><path fill="#4e8000" d="M134.4 73.52a4.14 4.14 0 0 1 1.6-1.16 5.89 5.89 0 0 1 1.31-.28 2.43 2.43 0 0 1 1.17 0 .9.9 0 0 1 .65.87 1.72 1.72 0 0 1 1.76 2.41 2.59 2.59 0 0 1-1.38 1.2c-1.89.86-7.7-.24-5.11-3.04Z"/><path fill="#6da011" d="M138 79.45a2.08 2.08 0 0 0-.93 2.62c.07.11.17.23.3.21a.51.51 0 0 0 .15-.07c1-.68 2.14-1.79 3.34-2 .84-.17 1.57.41 2.35.3-.46-1.85-3.96-1.81-5.21-1.06ZM132.74 66.5c.25.86.53 1.71.85 2.55a7.4 7.4 0 0 0 1 2 2.86 2.86 0 0 0 1.82 1.16 3.77 3.77 0 0 0 1.83-.33 1 1 0 0 0 .52-.35.84.84 0 0 0 .08-.38l-.22-1.88a20.54 20.54 0 0 0-6-4.26 2.25 2.25 0 0 0 .12 1.49ZM143.8 79.88l-.28-.07v.12l1.38 1a4 4 0 0 0 1.74-.34l4-1.61a7.63 7.63 0 0 0 2.65-1.5 2.6 2.6 0 0 0 .71-2.79c-7.87.94-10.2 5.19-10.2 5.19ZM147.39 81.87a2.36 2.36 0 0 0 .62 2.68 4.41 4.41 0 0 0 2.84.72q2.1 0 4.2-.09a18.32 18.32 0 0 0 3.29-.44.74.74 0 0 0 .43-.22c-3.54-3.46-10-3.87-10-3.87-.51.45-1.06.51-1.38 1.22Z"/><path fill="#558d14" d="M139.79 84.09s-4.24.49-5 7A1.71 1.71 0 0 0 136 91a7.78 7.78 0 0 0 4.21-2.81 3 3 0 0 0-.42-4.1Z"/></g></svg>